{"glyphs":{"0":{"ha":842,"x_min":69,"x_max":772,"o":"m 421 -19 q 235 45 315 -19 q 113 226 156 110 q 69 494 69 343 q 113 753 69 640 q 237 929 157 867 q 421 992 317 992 q 606 929 526 992 q 728 754 685 867 q 772 494 772 642 q 729 226 772 342 q 607 45 686 110 q 421 -19 528 -19 m 421 136 q 559 226 508 136 q 610 494 610 317 q 558 749 610 661 q 421 836 507 836 q 284 749 336 836 q 232 494 232 663 q 283 227 232 318 q 421 136 333 136 z "},"1":{"ha":444,"x_min":50,"x_max":326,"o":"m 172 743 q 63 681 122 697 l 50 821 q 145 879 99 836 q 213 972 192 922 l 326 972 l 326 0 l 172 0 l 172 743 z "},"2":{"ha":625,"x_min":67,"x_max":567,"o":"m 268 378 q 360 574 335 504 q 385 710 385 644 q 352 803 385 769 q 263 836 319 836 q 100 769 182 836 l 83 922 q 307 992 188 992 q 485 919 422 992 q 547 733 547 846 q 517 560 547 644 q 406 322 488 475 l 313 150 l 567 150 l 567 0 l 67 0 l 268 378 z "},"3":{"ha":635,"x_min":36,"x_max":565,"o":"m 399 511 q 522 422 478 483 q 565 269 565 361 q 483 58 565 135 q 265 -19 400 -19 q 36 36 136 -19 l 75 178 q 160 137 118 150 q 250 124 201 124 q 363 163 322 124 q 404 271 404 201 q 361 388 404 347 q 238 429 318 429 l 201 429 l 201 579 l 238 579 q 337 616 303 579 q 371 721 371 653 q 340 815 371 781 q 250 849 308 849 q 172 835 208 849 q 94 797 135 822 l 69 943 q 275 992 160 992 q 463 922 394 992 q 532 739 532 853 q 498 601 532 660 q 399 511 464 543 z "},"4":{"ha":671,"x_min":8,"x_max":625,"o":"m 625 356 l 625 228 l 536 228 l 536 0 l 382 0 l 382 228 l 8 228 l 429 972 l 536 972 l 536 356 l 625 356 m 382 356 l 382 650 l 224 356 l 382 356 z "},"5":{"ha":635,"x_min":56,"x_max":581,"o":"m 299 613 q 503 529 426 613 q 581 307 581 446 q 541 135 581 208 q 432 22 501 61 q 274 -18 363 -18 q 56 39 154 -18 l 94 185 q 176 147 138 160 q 261 133 215 133 q 378 179 335 133 q 421 303 421 225 q 374 432 421 386 q 243 478 326 478 q 106 457 179 478 l 167 972 l 540 972 l 531 819 l 289 819 l 264 611 q 299 613 275 613 z "},"6":{"ha":656,"x_min":61,"x_max":608,"o":"m 365 585 q 490 547 435 585 q 577 441 546 508 q 608 289 608 374 q 535 65 608 149 q 338 -19 463 -19 q 134 75 207 -19 q 61 329 61 169 q 114 606 61 474 q 248 837 167 738 q 415 993 329 936 l 524 899 q 243 554 308 754 q 365 585 296 585 m 339 118 q 426 165 394 118 q 458 285 458 211 q 426 403 458 358 q 339 447 394 447 q 252 403 283 447 q 221 285 221 358 q 252 164 221 210 q 339 118 283 118 z "},"7":{"ha":596,"x_min":46,"x_max":583,"o":"m 583 972 l 269 0 l 113 0 l 385 831 l 46 831 l 46 972 l 583 972 z "},"8":{"ha":725,"x_min":69,"x_max":656,"o":"m 529 531 q 622 428 589 493 q 656 279 656 363 q 620 124 656 192 q 518 19 585 57 q 361 -19 451 -19 q 206 19 272 -19 q 105 124 140 57 q 69 279 69 192 q 103 429 69 364 q 199 532 136 494 q 135 618 158 567 q 113 732 113 669 q 139 858 113 799 q 221 955 165 918 q 361 992 276 992 q 549 915 488 992 q 611 732 611 839 q 590 617 611 668 q 529 531 569 565 m 361 860 q 285 824 311 860 q 260 729 260 789 q 286 634 260 672 q 361 596 313 596 q 438 634 411 596 q 464 729 464 672 q 438 824 464 789 q 361 860 411 860 m 361 121 q 465 167 428 121 q 501 289 501 213 q 465 408 501 363 q 361 454 428 454 q 260 408 296 454 q 224 289 224 363 q 260 167 224 213 q 361 121 296 121 z "},"9":{"ha":656,"x_min":47,"x_max":594,"o":"m 318 993 q 522 898 449 993 q 594 644 594 803 q 542 368 594 500 q 408 136 489 236 q 240 -19 326 36 l 132 75 q 302 224 226 138 q 414 419 378 310 q 290 389 361 389 q 167 427 222 389 q 79 533 111 465 q 47 685 47 600 q 121 908 47 824 q 318 993 194 993 m 317 526 q 403 571 372 526 q 435 689 435 615 q 403 810 435 764 q 317 856 372 856 q 230 809 261 856 q 199 689 199 763 q 230 571 199 615 q 317 526 261 526 z "},"\r":{"ha":268,"x_min":0,"x_max":0,"o":""}," ":{"ha":268,"x_min":0,"x_max":0,"o":""},"A":{"ha":746,"x_min":3,"x_max":743,"o":"m 515 243 l 231 243 l 160 0 l 3 0 l 299 972 l 446 972 l 743 0 l 586 0 l 515 243 m 475 386 l 374 738 l 271 386 l 475 386 z "},"Á":{"ha":746,"x_min":3,"x_max":743,"o":"m 515 243 l 231 243 l 160 0 l 3 0 l 299 972 l 446 972 l 743 0 l 586 0 l 515 243 m 475 386 l 374 738 l 271 386 l 475 386 m 267 1147 l 479 1258 l 479 1121 l 267 1057 l 267 1147 z "},"Ă":{"ha":746,"x_min":3,"x_max":743,"o":"m 515 243 l 231 243 l 160 0 l 3 0 l 299 972 l 446 972 l 743 0 l 586 0 l 515 243 m 475 386 l 374 738 l 271 386 l 475 386 m 372 1063 q 229 1112 282 1063 q 176 1233 176 1161 l 292 1233 q 314 1174 292 1194 q 372 1154 336 1154 q 431 1174 408 1154 q 453 1233 453 1194 l 568 1233 q 516 1112 568 1161 q 372 1063 464 1063 z "},"Ắ":{"ha":746,"x_min":3,"x_max":743,"o":"m 515 243 l 231 243 l 160 0 l 3 0 l 299 972 l 446 972 l 743 0 l 586 0 l 515 243 m 475 386 l 374 738 l 271 386 l 475 386 m 372 1063 q 229 1112 282 1063 q 176 1233 176 1161 l 292 1233 q 314 1174 292 1194 q 372 1154 336 1154 q 431 1174 408 1154 q 453 1233 453 1194 l 568 1233 q 516 1112 568 1161 q 372 1063 464 1063 m 267 1386 l 479 1497 l 479 1360 l 267 1296 l 267 1386 z "},"Ặ":{"ha":746,"x_min":3,"x_max":743,"o":"m 515 243 l 231 243 l 160 0 l 3 0 l 299 972 l 446 972 l 743 0 l 586 0 l 515 243 m 475 386 l 374 738 l 271 386 l 475 386 m 372 1093 q 232 1144 283 1093 q 181 1271 181 1196 l 292 1271 q 313 1212 292 1233 q 372 1190 333 1190 q 432 1212 411 1190 q 453 1271 453 1233 l 564 1271 q 513 1144 564 1196 q 372 1093 461 1093 m 307 -112 l 438 -112 l 438 -243 l 307 -243 l 307 -112 z "},"Ằ":{"ha":746,"x_min":3,"x_max":743,"o":"m 515 243 l 231 243 l 160 0 l 3 0 l 299 972 l 446 972 l 743 0 l 586 0 l 515 243 m 475 386 l 374 738 l 271 386 l 475 386 m 372 1061 q 229 1110 282 1061 q 176 1232 176 1160 l 292 1232 q 314 1173 292 1193 q 372 1153 336 1153 q 431 1173 408 1153 q 453 1232 453 1193 l 568 1232 q 516 1110 568 1160 q 372 1061 464 1061 m 265 1357 l 265 1496 l 478 1385 l 478 1294 l 265 1357 z "},"Ẳ":{"ha":746,"x_min":3,"x_max":743,"o":"m 515 243 l 231 243 l 160 0 l 3 0 l 299 972 l 446 972 l 743 0 l 586 0 l 515 243 m 475 386 l 374 738 l 271 386 l 475 386 m 372 1063 q 229 1112 282 1063 q 176 1233 176 1161 l 292 1233 q 314 1174 292 1194 q 372 1154 336 1154 q 431 1174 408 1154 q 453 1233 453 1194 l 568 1233 q 516 1112 568 1161 q 372 1063 464 1063 m 367 1313 q 397 1332 388 1321 q 407 1363 407 1343 q 360 1403 407 1403 q 292 1383 331 1403 l 268 1463 q 369 1483 319 1483 q 458 1455 424 1483 q 493 1376 493 1426 q 466 1303 493 1332 q 385 1254 439 1274 l 367 1313 z "},"Ẵ":{"ha":746,"x_min":3,"x_max":743,"o":"m 515 243 l 231 243 l 160 0 l 3 0 l 299 972 l 446 972 l 743 0 l 586 0 l 515 243 m 475 386 l 374 738 l 271 386 l 475 386 m 372 1063 q 229 1112 282 1063 q 176 1233 176 1161 l 292 1233 q 314 1174 292 1194 q 372 1154 336 1154 q 431 1174 408 1154 q 453 1233 453 1194 l 568 1233 q 516 1112 568 1161 q 372 1063 464 1063 m 476 1300 q 430 1308 453 1300 q 378 1331 407 1317 q 340 1347 358 1340 q 306 1354 321 1354 q 265 1310 265 1354 l 165 1310 q 191 1416 165 1379 q 268 1453 217 1453 q 315 1444 292 1453 q 367 1422 338 1436 q 405 1406 386 1413 q 439 1399 424 1399 q 479 1444 479 1399 l 579 1444 q 553 1337 579 1374 q 476 1300 528 1300 z "},"Â":{"ha":746,"x_min":3,"x_max":743,"o":"m 515 243 l 231 243 l 160 0 l 3 0 l 299 972 l 446 972 l 743 0 l 586 0 l 515 243 m 475 386 l 374 738 l 271 386 l 475 386 m 539 1136 l 539 1040 l 372 1131 l 206 1040 l 206 1136 l 372 1254 l 539 1136 z "},"Ấ":{"ha":746,"x_min":3,"x_max":743,"o":"m 515 243 l 231 243 l 160 0 l 3 0 l 299 972 l 446 972 l 743 0 l 586 0 l 515 243 m 475 386 l 374 738 l 271 386 l 475 386 m 547 1417 l 693 1417 l 568 1246 l 469 1246 l 547 1417 m 539 1144 l 539 1049 l 372 1139 l 206 1049 l 206 1144 l 372 1263 l 539 1144 z "},"Ậ":{"ha":746,"x_min":3,"x_max":743,"o":"m 515 243 l 231 243 l 160 0 l 3 0 l 299 972 l 446 972 l 743 0 l 586 0 l 515 243 m 475 386 l 374 738 l 271 386 l 475 386 m 219 1167 l 372 1297 l 525 1167 l 525 1067 l 372 1163 l 219 1067 l 219 1167 m 307 -112 l 438 -112 l 438 -243 l 307 -243 l 307 -112 z "},"Ầ":{"ha":746,"x_min":3,"x_max":743,"o":"m 515 243 l 231 243 l 160 0 l 3 0 l 299 972 l 446 972 l 743 0 l 586 0 l 515 243 m 475 386 l 374 738 l 271 386 l 475 386 m 504 1246 l 401 1417 l 539 1417 l 597 1246 l 504 1246 m 539 1144 l 539 1049 l 372 1139 l 206 1049 l 206 1144 l 372 1263 l 539 1144 z "},"Ẩ":{"ha":746,"x_min":3,"x_max":743,"o":"m 515 243 l 231 243 l 160 0 l 3 0 l 299 972 l 446 972 l 743 0 l 586 0 l 515 243 m 475 386 l 374 738 l 271 386 l 475 386 m 539 1135 l 539 1039 l 372 1129 l 206 1039 l 206 1135 l 372 1253 l 539 1135 m 492 1269 q 522 1289 513 1278 q 532 1319 532 1300 q 485 1360 532 1360 q 417 1340 456 1360 l 393 1419 q 494 1440 444 1440 q 583 1412 549 1440 q 618 1333 618 1383 q 591 1260 618 1289 q 510 1211 564 1231 l 492 1269 z "},"Ẫ":{"ha":746,"x_min":3,"x_max":743,"o":"m 515 243 l 231 243 l 160 0 l 3 0 l 299 972 l 446 972 l 743 0 l 586 0 l 515 243 m 475 386 l 374 738 l 271 386 l 475 386 m 539 1135 l 539 1039 l 372 1129 l 206 1039 l 206 1135 l 372 1253 l 539 1135 m 476 1306 q 430 1314 453 1306 q 378 1336 407 1322 q 340 1353 358 1346 q 306 1360 321 1360 q 265 1315 265 1360 l 165 1315 q 191 1422 165 1385 q 268 1458 217 1458 q 315 1450 292 1458 q 367 1428 338 1442 q 405 1411 386 1418 q 439 1404 424 1404 q 479 1450 479 1404 l 579 1450 q 553 1342 579 1379 q 476 1306 528 1306 z "},"Ȁ":{"ha":746,"x_min":3,"x_max":743,"o":"m 515 243 l 231 243 l 160 0 l 3 0 l 299 972 l 446 972 l 743 0 l 586 0 l 515 243 m 475 386 l 374 738 l 271 386 l 475 386 m 224 1094 l 101 1308 l 247 1308 l 322 1094 l 224 1094 m 419 1094 l 307 1308 l 451 1308 l 517 1094 l 419 1094 z "},"Ä":{"ha":746,"x_min":3,"x_max":743,"o":"m 515 243 l 231 243 l 160 0 l 3 0 l 299 972 l 446 972 l 743 0 l 586 0 l 515 243 m 475 386 l 374 738 l 271 386 l 475 386 m 199 1207 l 322 1207 l 322 1093 l 199 1093 l 199 1207 m 422 1207 l 546 1207 l 546 1093 l 422 1093 l 422 1207 z "},"Ạ":{"ha":746,"x_min":3,"x_max":743,"o":"m 515 243 l 231 243 l 160 0 l 3 0 l 299 972 l 446 972 l 743 0 l 586 0 l 515 243 m 475 386 l 374 738 l 271 386 l 475 386 m 307 -112 l 438 -112 l 438 -243 l 307 -243 l 307 -112 z "},"À":{"ha":746,"x_min":3,"x_max":743,"o":"m 515 243 l 231 243 l 160 0 l 3 0 l 299 972 l 446 972 l 743 0 l 586 0 l 515 243 m 475 386 l 374 738 l 271 386 l 475 386 m 265 1119 l 265 1258 l 478 1147 l 478 1057 l 265 1119 z "},"Ả":{"ha":746,"x_min":3,"x_max":743,"o":"m 515 243 l 231 243 l 160 0 l 3 0 l 299 972 l 446 972 l 743 0 l 586 0 l 515 243 m 475 386 l 374 738 l 271 386 l 475 386 m 344 1069 q 383 1117 372 1099 q 394 1160 394 1136 q 346 1206 394 1206 q 278 1183 314 1206 l 254 1261 q 353 1282 303 1282 q 440 1251 406 1282 q 475 1165 475 1219 q 456 1090 475 1122 q 394 1021 438 1058 l 344 1069 z "},"Ȃ":{"ha":746,"x_min":3,"x_max":743,"o":"m 515 243 l 231 243 l 160 0 l 3 0 l 299 972 l 446 972 l 743 0 l 586 0 l 515 243 m 475 386 l 374 738 l 271 386 l 475 386 m 372 1254 q 515 1204 463 1254 q 568 1083 568 1154 l 453 1083 q 431 1142 453 1121 q 372 1163 408 1163 q 314 1142 336 1163 q 292 1083 292 1121 l 176 1083 q 229 1204 176 1154 q 372 1254 282 1254 z "},"Ā":{"ha":746,"x_min":3,"x_max":743,"o":"m 515 243 l 231 243 l 160 0 l 3 0 l 299 972 l 446 972 l 743 0 l 586 0 l 515 243 m 475 386 l 374 738 l 271 386 l 475 386 m 160 1199 l 585 1199 l 585 1101 l 160 1101 l 160 1199 z "},"Ą":{"ha":746,"x_min":3,"x_max":769,"o":"m 515 243 l 231 243 l 160 0 l 3 0 l 299 972 l 446 972 l 743 0 l 586 0 l 515 243 m 475 386 l 374 738 l 271 386 l 475 386 m 708 0 q 638 -79 663 -44 q 614 -149 614 -114 q 632 -197 614 -181 q 681 -212 650 -212 q 747 -197 707 -212 l 769 -269 q 667 -292 725 -292 q 567 -260 606 -292 q 528 -174 528 -229 q 554 -85 528 -125 q 626 0 581 -44 l 708 0 z "},"Å":{"ha":746,"x_min":3,"x_max":743,"o":"m 515 243 l 231 243 l 160 0 l 3 0 l 299 972 l 446 972 l 743 0 l 586 0 l 515 243 m 475 386 l 374 738 l 271 386 l 475 386 m 372 1049 q 277 1088 313 1049 q 242 1183 242 1126 q 277 1280 242 1240 q 372 1319 313 1319 q 467 1280 432 1319 q 503 1183 503 1240 q 467 1088 503 1126 q 372 1049 432 1049 m 372 1117 q 413 1135 397 1117 q 428 1183 428 1153 q 413 1233 428 1214 q 372 1251 397 1251 q 332 1233 347 1251 q 317 1183 317 1214 q 332 1135 317 1153 q 372 1117 347 1117 z "},"Ǻ":{"ha":746,"x_min":3,"x_max":743,"o":"m 515 243 l 231 243 l 160 0 l 3 0 l 299 972 l 446 972 l 743 0 l 586 0 l 515 243 m 475 386 l 374 738 l 271 386 l 475 386 m 372 1049 q 277 1088 313 1049 q 242 1183 242 1126 q 277 1280 242 1240 q 372 1319 313 1319 q 467 1280 432 1319 q 503 1183 503 1240 q 467 1088 503 1126 q 372 1049 432 1049 m 372 1117 q 413 1135 397 1117 q 428 1183 428 1153 q 413 1233 428 1214 q 372 1251 397 1251 q 332 1233 347 1251 q 317 1183 317 1214 q 332 1135 317 1153 q 372 1117 347 1117 m 267 1450 l 479 1561 l 479 1424 l 267 1360 l 267 1450 z "},"Ã":{"ha":746,"x_min":3,"x_max":743,"o":"m 515 243 l 231 243 l 160 0 l 3 0 l 299 972 l 446 972 l 743 0 l 586 0 l 515 243 m 475 386 l 374 738 l 271 386 l 475 386 m 476 1085 q 430 1093 453 1085 q 378 1115 407 1101 q 340 1132 358 1125 q 306 1139 321 1139 q 265 1094 265 1139 l 165 1094 q 191 1201 165 1164 q 268 1238 217 1238 q 315 1229 292 1238 q 367 1207 338 1221 q 405 1190 386 1197 q 439 1183 424 1183 q 479 1229 479 1183 l 579 1229 q 553 1122 579 1158 q 476 1085 528 1085 z "},"Æ":{"ha":1072,"x_min":-10,"x_max":1032,"o":"m 1032 142 l 1032 0 l 483 0 l 483 249 l 254 249 l 153 0 l -10 0 l 399 972 l 1019 972 l 1019 831 l 638 831 l 638 581 l 935 581 l 935 439 l 638 439 l 638 142 l 1032 142 m 483 392 l 483 807 l 314 392 l 483 392 z "},"Ǽ":{"ha":1072,"x_min":-10,"x_max":1032,"o":"m 1032 142 l 1032 0 l 483 0 l 483 249 l 254 249 l 153 0 l -10 0 l 399 972 l 1019 972 l 1019 831 l 638 831 l 638 581 l 935 581 l 935 439 l 638 439 l 638 142 l 1032 142 m 483 392 l 483 807 l 314 392 l 483 392 m 604 1147 l 817 1258 l 817 1121 l 604 1057 l 604 1147 z "},"B":{"ha":767,"x_min":92,"x_max":715,"o":"m 556 525 q 715 276 715 464 q 641 74 715 147 q 438 0 567 0 l 92 0 l 92 972 l 392 972 q 577 913 514 972 q 640 736 640 853 q 619 610 640 664 q 556 525 597 556 m 246 581 l 365 581 q 457 609 429 581 q 485 706 485 638 q 457 802 485 774 q 365 831 429 831 l 246 831 l 246 581 m 414 142 q 553 289 553 142 q 517 406 553 371 q 414 440 481 440 l 246 440 l 246 142 l 414 142 z "},"C":{"ha":728,"x_min":42,"x_max":692,"o":"m 476 -19 q 251 42 350 -19 q 97 219 153 104 q 42 486 42 333 q 98 753 42 639 q 253 930 154 868 q 476 992 351 992 q 692 947 590 992 l 674 796 q 588 829 629 818 q 500 840 547 840 q 288 744 364 840 q 211 486 211 647 q 288 228 211 325 q 499 132 364 132 q 587 143 546 132 q 674 175 628 154 l 692 24 q 476 -19 601 -19 z "},"Ć":{"ha":728,"x_min":42,"x_max":692,"o":"m 476 -19 q 251 42 350 -19 q 97 219 153 104 q 42 486 42 333 q 98 753 42 639 q 253 930 154 868 q 476 992 351 992 q 692 947 590 992 l 674 796 q 588 829 629 818 q 500 840 547 840 q 288 744 364 840 q 211 486 211 647 q 288 228 211 325 q 499 132 364 132 q 587 143 546 132 q 674 175 628 154 l 692 24 q 476 -19 601 -19 m 354 1147 l 567 1258 l 567 1121 l 354 1057 l 354 1147 z "},"Č":{"ha":728,"x_min":42,"x_max":692,"o":"m 476 -19 q 251 42 350 -19 q 97 219 153 104 q 42 486 42 333 q 98 753 42 639 q 253 930 154 868 q 476 992 351 992 q 692 947 590 992 l 674 796 q 588 829 629 818 q 500 840 547 840 q 288 744 364 840 q 211 486 211 647 q 288 228 211 325 q 499 132 364 132 q 587 143 546 132 q 674 175 628 154 l 692 24 q 476 -19 601 -19 m 293 1204 l 293 1300 l 460 1210 l 626 1300 l 626 1204 l 460 1086 l 293 1204 z "},"Ç":{"ha":728,"x_min":42,"x_max":692,"o":"m 692 24 q 518 -18 618 -12 l 500 -78 q 583 -110 553 -79 q 613 -193 613 -140 q 572 -290 613 -256 q 469 -325 532 -325 q 372 -307 417 -325 l 396 -235 q 467 -250 431 -250 q 515 -236 497 -250 q 532 -196 532 -222 q 517 -156 532 -169 q 472 -142 501 -142 q 418 -151 450 -142 l 450 -18 q 238 51 331 -12 q 94 227 146 115 q 42 486 42 339 q 98 753 42 639 q 253 930 154 868 q 476 992 351 992 q 692 947 590 992 l 674 796 q 588 829 629 818 q 500 840 547 840 q 288 744 364 840 q 211 486 211 647 q 288 228 211 325 q 499 132 364 132 q 587 143 546 132 q 674 175 628 154 l 692 24 z "},"Ḉ":{"ha":728,"x_min":42,"x_max":692,"o":"m 567 1121 l 354 1057 l 354 1147 l 567 1258 l 567 1121 m 692 24 q 518 -18 618 -12 l 500 -78 q 583 -110 553 -79 q 613 -193 613 -140 q 572 -290 613 -256 q 469 -325 532 -325 q 372 -307 417 -325 l 396 -235 q 467 -250 431 -250 q 515 -236 497 -250 q 532 -196 532 -222 q 517 -156 532 -169 q 472 -142 501 -142 q 418 -151 450 -142 l 450 -18 q 238 51 331 -12 q 94 227 146 115 q 42 486 42 339 q 98 753 42 639 q 253 930 154 868 q 476 992 351 992 q 692 947 590 992 l 674 796 q 588 829 629 818 q 500 840 547 840 q 288 744 364 840 q 211 486 211 647 q 288 228 211 325 q 499 132 364 132 q 587 143 546 132 q 674 175 628 154 l 692 24 z "},"Ĉ":{"ha":728,"x_min":42,"x_max":692,"o":"m 476 -19 q 251 42 350 -19 q 97 219 153 104 q 42 486 42 333 q 98 753 42 639 q 253 930 154 868 q 476 992 351 992 q 692 947 590 992 l 674 796 q 588 829 629 818 q 500 840 547 840 q 288 744 364 840 q 211 486 211 647 q 288 228 211 325 q 499 132 364 132 q 587 143 546 132 q 674 175 628 154 l 692 24 q 476 -19 601 -19 m 626 1136 l 626 1040 l 460 1131 l 293 1040 l 293 1136 l 460 1254 l 626 1136 z "},"Ċ":{"ha":728,"x_min":42,"x_max":692,"o":"m 476 -19 q 251 42 350 -19 q 97 219 153 104 q 42 486 42 333 q 98 753 42 639 q 253 930 154 868 q 476 992 351 992 q 692 947 590 992 l 674 796 q 588 829 629 818 q 500 840 547 840 q 288 744 364 840 q 211 486 211 647 q 288 228 211 325 q 499 132 364 132 q 587 143 546 132 q 674 175 628 154 l 692 24 q 476 -19 601 -19 m 392 1231 l 528 1231 l 528 1100 l 392 1100 l 392 1231 z "},"D":{"ha":860,"x_min":92,"x_max":817,"o":"m 92 972 l 404 972 q 617 914 524 972 q 764 746 711 856 q 817 486 817 636 q 764 226 817 336 q 617 58 711 117 q 404 0 524 0 l 92 0 l 92 972 m 396 142 q 583 233 519 142 q 647 486 647 324 q 583 740 647 649 q 396 831 519 831 l 246 831 l 246 142 l 396 142 z "},"Ǆ":{"ha":1504,"x_min":92,"x_max":1492,"o":"m 92 972 l 404 972 q 617 914 524 972 q 764 746 711 856 q 817 486 817 636 q 764 226 817 336 q 617 58 711 117 q 404 0 524 0 l 92 0 l 92 972 m 396 142 q 583 233 519 142 q 647 486 647 324 q 583 740 647 649 q 396 831 519 831 l 246 831 l 246 142 l 396 142 m 1492 143 l 1492 0 l 850 0 l 1258 829 l 906 829 l 906 972 l 1486 972 l 1081 143 l 1492 143 m 1043 1193 l 1043 1294 l 1196 1199 l 1349 1294 l 1349 1193 l 1196 1064 l 1043 1193 z "},"Ð":{"ha":867,"x_min":18,"x_max":824,"o":"m 100 422 l 18 422 l 18 557 l 100 557 l 100 972 l 413 972 q 625 914 532 972 q 771 746 718 856 q 824 486 824 636 q 771 226 824 336 q 625 58 718 117 q 413 0 532 0 l 100 0 l 100 422 m 404 142 q 590 233 526 142 q 654 486 654 324 q 590 740 654 649 q 404 831 526 831 l 254 831 l 254 557 l 410 557 l 410 422 l 254 422 l 254 142 l 404 142 z "},"Ď":{"ha":860,"x_min":92,"x_max":817,"o":"m 92 972 l 404 972 q 617 914 524 972 q 764 746 711 856 q 817 486 817 636 q 764 226 817 336 q 617 58 711 117 q 404 0 524 0 l 92 0 l 92 972 m 396 142 q 583 233 519 142 q 647 486 647 324 q 583 740 647 649 q 396 831 519 831 l 246 831 l 246 142 l 396 142 m 264 1204 l 264 1300 l 431 1210 l 597 1300 l 597 1204 l 431 1086 l 264 1204 z "},"Đ":{"ha":867,"x_min":18,"x_max":824,"o":"m 100 422 l 18 422 l 18 557 l 100 557 l 100 972 l 413 972 q 625 914 532 972 q 771 746 718 856 q 824 486 824 636 q 771 226 824 336 q 625 58 718 117 q 413 0 532 0 l 100 0 l 100 422 m 404 142 q 590 233 526 142 q 654 486 654 324 q 590 740 654 649 q 404 831 526 831 l 254 831 l 254 557 l 410 557 l 410 422 l 254 422 l 254 142 l 404 142 z "},"Ḍ":{"ha":860,"x_min":92,"x_max":817,"o":"m 92 972 l 404 972 q 617 914 524 972 q 764 746 711 856 q 817 486 817 636 q 764 226 817 336 q 617 58 711 117 q 404 0 524 0 l 92 0 l 92 972 m 396 142 q 583 233 519 142 q 647 486 647 324 q 583 740 647 649 q 396 831 519 831 l 246 831 l 246 142 l 396 142 m 365 -112 l 496 -112 l 496 -243 l 365 -243 l 365 -112 z "},"Ḏ":{"ha":860,"x_min":92,"x_max":817,"o":"m 92 972 l 404 972 q 617 914 524 972 q 764 746 711 856 q 817 486 817 636 q 764 226 817 336 q 617 58 711 117 q 404 0 524 0 l 92 0 l 92 972 m 396 142 q 583 233 519 142 q 647 486 647 324 q 583 740 647 649 q 396 831 519 831 l 246 831 l 246 142 l 396 142 m 232 -129 l 629 -129 l 629 -231 l 232 -231 l 232 -129 z "},"ǅ":{"ha":1413,"x_min":92,"x_max":1388,"o":"m 92 972 l 404 972 q 617 914 524 972 q 764 746 711 856 q 817 486 817 636 q 764 226 817 336 q 617 58 711 117 q 404 0 524 0 l 92 0 l 92 972 m 396 142 q 583 233 519 142 q 647 486 647 324 q 583 740 647 649 q 396 831 519 831 l 246 831 l 246 142 l 396 142 m 1101 129 l 1381 129 l 1381 0 l 878 0 l 1164 560 l 894 560 l 894 689 l 1388 689 l 1101 129 m 989 910 l 989 1011 l 1142 915 l 1294 1011 l 1294 910 l 1142 781 l 989 910 z "},"E":{"ha":681,"x_min":92,"x_max":640,"o":"m 92 972 l 628 972 l 628 831 l 246 831 l 246 581 l 543 581 l 543 439 l 246 439 l 246 142 l 640 142 l 640 0 l 92 0 l 92 972 z "},"É":{"ha":681,"x_min":92,"x_max":640,"o":"m 92 972 l 628 972 l 628 831 l 246 831 l 246 581 l 543 581 l 543 439 l 246 439 l 246 142 l 640 142 l 640 0 l 92 0 l 92 972 m 256 1190 l 468 1322 l 468 1171 l 256 1089 l 256 1190 z "},"Ĕ":{"ha":681,"x_min":92,"x_max":640,"o":"m 92 972 l 628 972 l 628 831 l 246 831 l 246 581 l 543 581 l 543 439 l 246 439 l 246 142 l 640 142 l 640 0 l 92 0 l 92 972 m 361 1093 q 221 1144 272 1093 q 169 1271 169 1196 l 281 1271 q 301 1212 281 1233 q 361 1190 322 1190 q 421 1212 400 1190 q 442 1271 442 1233 l 553 1271 q 501 1144 553 1196 q 361 1093 450 1093 z "},"Ě":{"ha":681,"x_min":92,"x_max":640,"o":"m 92 972 l 628 972 l 628 831 l 246 831 l 246 581 l 543 581 l 543 439 l 246 439 l 246 142 l 640 142 l 640 0 l 92 0 l 92 972 m 208 1193 l 208 1294 l 361 1199 l 514 1294 l 514 1193 l 361 1064 l 208 1193 z "},"Ḝ":{"ha":681,"x_min":92,"x_max":640,"o":"m 92 972 l 628 972 l 628 831 l 246 831 l 246 581 l 543 581 l 543 439 l 246 439 l 246 142 l 640 142 l 640 0 l 92 0 l 92 972 m 392 -78 q 474 -110 444 -79 q 504 -193 504 -140 q 464 -290 504 -256 q 361 -325 424 -325 q 264 -307 308 -325 l 288 -235 q 358 -250 322 -250 q 406 -236 389 -250 q 424 -196 424 -222 q 408 -156 424 -169 q 364 -142 393 -142 q 310 -151 342 -142 l 346 0 l 415 0 l 392 -78 m 361 1063 q 218 1112 271 1063 q 165 1233 165 1161 l 281 1233 q 303 1174 281 1194 q 361 1154 325 1154 q 419 1174 397 1154 q 442 1233 442 1194 l 557 1233 q 505 1112 557 1161 q 361 1063 453 1063 z "},"Ê":{"ha":681,"x_min":92,"x_max":640,"o":"m 92 972 l 628 972 l 628 831 l 246 831 l 246 581 l 543 581 l 543 439 l 246 439 l 246 142 l 640 142 l 640 0 l 92 0 l 92 972 m 208 1167 l 361 1297 l 514 1167 l 514 1067 l 361 1163 l 208 1067 l 208 1167 z "},"Ế":{"ha":681,"x_min":92,"x_max":682,"o":"m 92 972 l 628 972 l 628 831 l 246 831 l 246 581 l 543 581 l 543 439 l 246 439 l 246 142 l 640 142 l 640 0 l 92 0 l 92 972 m 536 1417 l 682 1417 l 557 1246 l 458 1246 l 536 1417 m 528 1144 l 528 1049 l 361 1139 l 194 1049 l 194 1144 l 361 1263 l 528 1144 z "},"Ệ":{"ha":681,"x_min":92,"x_max":640,"o":"m 92 972 l 628 972 l 628 831 l 246 831 l 246 581 l 543 581 l 543 439 l 246 439 l 246 142 l 640 142 l 640 0 l 92 0 l 92 972 m 208 1167 l 361 1297 l 514 1167 l 514 1067 l 361 1163 l 208 1067 l 208 1167 m 301 -112 l 432 -112 l 432 -243 l 301 -243 l 301 -112 z "},"Ề":{"ha":681,"x_min":92,"x_max":640,"o":"m 92 972 l 628 972 l 628 831 l 246 831 l 246 581 l 543 581 l 543 439 l 246 439 l 246 142 l 640 142 l 640 0 l 92 0 l 92 972 m 493 1246 l 390 1417 l 528 1417 l 586 1246 l 493 1246 m 528 1144 l 528 1049 l 361 1139 l 194 1049 l 194 1144 l 361 1263 l 528 1144 z "},"Ể":{"ha":681,"x_min":92,"x_max":640,"o":"m 92 972 l 628 972 l 628 831 l 246 831 l 246 581 l 543 581 l 543 439 l 246 439 l 246 142 l 640 142 l 640 0 l 92 0 l 92 972 m 528 1135 l 528 1039 l 361 1129 l 194 1039 l 194 1135 l 361 1253 l 528 1135 m 481 1269 q 511 1289 501 1278 q 521 1319 521 1300 q 474 1360 521 1360 q 406 1340 444 1360 l 382 1419 q 483 1440 433 1440 q 572 1412 538 1440 q 607 1333 607 1383 q 580 1260 607 1289 q 499 1211 553 1231 l 481 1269 z "},"Ễ":{"ha":681,"x_min":92,"x_max":640,"o":"m 92 972 l 628 972 l 628 831 l 246 831 l 246 581 l 543 581 l 543 439 l 246 439 l 246 142 l 640 142 l 640 0 l 92 0 l 92 972 m 528 1135 l 528 1039 l 361 1129 l 194 1039 l 194 1135 l 361 1253 l 528 1135 m 465 1306 q 419 1314 442 1306 q 367 1336 396 1322 q 328 1353 347 1346 q 294 1360 310 1360 q 254 1315 254 1360 l 154 1315 q 180 1422 154 1385 q 257 1458 206 1458 q 303 1450 281 1458 q 356 1428 326 1442 q 394 1411 375 1418 q 428 1404 413 1404 q 468 1450 468 1404 l 568 1450 q 542 1342 568 1379 q 465 1306 517 1306 z "},"Ȅ":{"ha":681,"x_min":90,"x_max":640,"o":"m 92 972 l 628 972 l 628 831 l 246 831 l 246 581 l 543 581 l 543 439 l 246 439 l 246 142 l 640 142 l 640 0 l 92 0 l 92 972 m 213 1094 l 90 1308 l 236 1308 l 311 1094 l 213 1094 m 408 1094 l 296 1308 l 440 1308 l 506 1094 l 408 1094 z "},"Ë":{"ha":681,"x_min":92,"x_max":640,"o":"m 92 972 l 628 972 l 628 831 l 246 831 l 246 581 l 543 581 l 543 439 l 246 439 l 246 142 l 640 142 l 640 0 l 92 0 l 92 972 m 188 1224 l 310 1224 l 310 1104 l 188 1104 l 188 1224 m 413 1224 l 535 1224 l 535 1104 l 413 1104 l 413 1224 z "},"Ė":{"ha":681,"x_min":92,"x_max":640,"o":"m 92 972 l 628 972 l 628 831 l 246 831 l 246 581 l 543 581 l 543 439 l 246 439 l 246 142 l 640 142 l 640 0 l 92 0 l 92 972 m 293 1231 l 429 1231 l 429 1100 l 293 1100 l 293 1231 z "},"Ẹ":{"ha":681,"x_min":92,"x_max":640,"o":"m 92 972 l 628 972 l 628 831 l 246 831 l 246 581 l 543 581 l 543 439 l 246 439 l 246 142 l 640 142 l 640 0 l 92 0 l 92 972 m 301 -112 l 432 -112 l 432 -243 l 301 -243 l 301 -112 z "},"È":{"ha":681,"x_min":92,"x_max":640,"o":"m 92 972 l 628 972 l 628 831 l 246 831 l 246 581 l 543 581 l 543 439 l 246 439 l 246 142 l 640 142 l 640 0 l 92 0 l 92 972 m 254 1172 l 254 1328 l 467 1193 l 467 1088 l 254 1172 z "},"Ẻ":{"ha":681,"x_min":92,"x_max":640,"o":"m 92 972 l 628 972 l 628 831 l 246 831 l 246 581 l 543 581 l 543 439 l 246 439 l 246 142 l 640 142 l 640 0 l 92 0 l 92 972 m 333 1069 q 372 1117 361 1099 q 383 1160 383 1136 q 335 1206 383 1206 q 267 1183 303 1206 l 243 1261 q 342 1282 292 1282 q 429 1251 394 1282 q 464 1165 464 1219 q 445 1090 464 1122 q 383 1021 426 1058 l 333 1069 z "},"Ȇ":{"ha":681,"x_min":92,"x_max":640,"o":"m 92 972 l 628 972 l 628 831 l 246 831 l 246 581 l 543 581 l 543 439 l 246 439 l 246 142 l 640 142 l 640 0 l 92 0 l 92 972 m 361 1254 q 504 1204 451 1254 q 557 1083 557 1154 l 442 1083 q 419 1142 442 1121 q 361 1163 397 1163 q 303 1142 325 1163 q 281 1083 281 1121 l 165 1083 q 218 1204 165 1154 q 361 1254 271 1254 z "},"Ē":{"ha":681,"x_min":92,"x_max":640,"o":"m 92 972 l 628 972 l 628 831 l 246 831 l 246 581 l 543 581 l 543 439 l 246 439 l 246 142 l 640 142 l 640 0 l 92 0 l 92 972 m 149 1199 l 574 1199 l 574 1101 l 149 1101 l 149 1199 z "},"Ḗ":{"ha":681,"x_min":92,"x_max":640,"o":"m 92 972 l 628 972 l 628 831 l 246 831 l 246 581 l 543 581 l 543 439 l 246 439 l 246 142 l 640 142 l 640 0 l 92 0 l 92 972 m 149 1199 l 574 1199 l 574 1101 l 149 1101 l 149 1199 m 256 1378 l 468 1489 l 468 1351 l 256 1288 l 256 1378 z "},"Ḕ":{"ha":681,"x_min":92,"x_max":640,"o":"m 92 972 l 628 972 l 628 831 l 246 831 l 246 581 l 543 581 l 543 439 l 246 439 l 246 142 l 640 142 l 640 0 l 92 0 l 92 972 m 149 1199 l 574 1199 l 574 1101 l 149 1101 l 149 1199 m 254 1350 l 254 1489 l 467 1378 l 467 1288 l 254 1350 z "},"Ę":{"ha":681,"x_min":92,"x_max":703,"o":"m 92 972 l 628 972 l 628 831 l 246 831 l 246 581 l 543 581 l 543 439 l 246 439 l 246 142 l 640 142 l 640 0 l 92 0 l 92 972 m 642 0 q 572 -79 596 -44 q 547 -149 547 -114 q 565 -197 547 -181 q 614 -212 583 -212 q 681 -197 640 -212 l 703 -269 q 600 -292 658 -292 q 500 -260 539 -292 q 461 -174 461 -229 q 488 -85 461 -125 q 560 0 514 -44 l 642 0 z "},"Ẽ":{"ha":681,"x_min":92,"x_max":640,"o":"m 92 972 l 628 972 l 628 831 l 246 831 l 246 581 l 543 581 l 543 439 l 246 439 l 246 142 l 640 142 l 640 0 l 92 0 l 92 972 m 457 1088 q 411 1097 431 1088 q 363 1124 392 1106 q 329 1144 343 1138 q 300 1150 315 1150 q 272 1136 282 1150 q 263 1099 263 1122 l 154 1099 q 185 1219 157 1178 q 265 1261 214 1261 q 311 1252 292 1261 q 360 1225 331 1243 q 393 1205 379 1211 q 422 1199 407 1199 q 450 1213 440 1199 q 460 1250 460 1226 l 568 1250 q 537 1129 565 1171 q 457 1088 508 1088 z "},"F":{"ha":628,"x_min":92,"x_max":607,"o":"m 92 972 l 607 972 l 607 831 l 246 831 l 246 581 l 525 581 l 525 439 l 246 439 l 246 0 l 92 0 l 92 972 z "},"G":{"ha":793,"x_min":42,"x_max":738,"o":"m 483 -19 q 250 44 350 -19 q 96 222 150 107 q 42 486 42 336 q 99 753 42 639 q 258 930 157 868 q 486 992 358 992 q 710 947 610 992 l 692 796 q 600 829 643 818 q 504 840 557 840 q 289 744 367 840 q 211 486 211 647 q 284 226 211 321 q 496 132 357 132 q 583 147 542 132 l 583 346 l 468 346 l 468 488 l 738 488 l 738 49 q 624 -1 692 17 q 483 -19 557 -19 z "},"Ğ":{"ha":793,"x_min":42,"x_max":738,"o":"m 483 -19 q 250 44 350 -19 q 96 222 150 107 q 42 486 42 336 q 99 753 42 639 q 258 930 157 868 q 486 992 358 992 q 710 947 610 992 l 692 796 q 600 829 643 818 q 504 840 557 840 q 289 744 367 840 q 211 486 211 647 q 284 226 211 321 q 496 132 357 132 q 583 147 542 132 l 583 346 l 468 346 l 468 488 l 738 488 l 738 49 q 624 -1 692 17 q 483 -19 557 -19 m 482 1063 q 339 1112 392 1063 q 286 1233 286 1161 l 401 1233 q 424 1174 401 1194 q 482 1154 446 1154 q 540 1174 518 1154 q 563 1233 563 1194 l 678 1233 q 626 1112 678 1161 q 482 1063 574 1063 z "},"Ǧ":{"ha":793,"x_min":42,"x_max":738,"o":"m 483 -19 q 250 44 350 -19 q 96 222 150 107 q 42 486 42 336 q 99 753 42 639 q 258 930 157 868 q 486 992 358 992 q 710 947 610 992 l 692 796 q 600 829 643 818 q 504 840 557 840 q 289 744 367 840 q 211 486 211 647 q 284 226 211 321 q 496 132 357 132 q 583 147 542 132 l 583 346 l 468 346 l 468 488 l 738 488 l 738 49 q 624 -1 692 17 q 483 -19 557 -19 m 315 1204 l 315 1300 l 482 1210 l 649 1300 l 649 1204 l 482 1086 l 315 1204 z "},"Ĝ":{"ha":793,"x_min":42,"x_max":738,"o":"m 483 -19 q 250 44 350 -19 q 96 222 150 107 q 42 486 42 336 q 99 753 42 639 q 258 930 157 868 q 486 992 358 992 q 710 947 610 992 l 692 796 q 600 829 643 818 q 504 840 557 840 q 289 744 367 840 q 211 486 211 647 q 284 226 211 321 q 496 132 357 132 q 583 147 542 132 l 583 346 l 468 346 l 468 488 l 738 488 l 738 49 q 624 -1 692 17 q 483 -19 557 -19 m 649 1136 l 649 1040 l 482 1131 l 315 1040 l 315 1136 l 482 1254 l 649 1136 z "},"Ģ":{"ha":793,"x_min":42,"x_max":738,"o":"m 483 -19 q 250 44 350 -19 q 96 222 150 107 q 42 486 42 336 q 99 753 42 639 q 258 930 157 868 q 486 992 358 992 q 710 947 610 992 l 692 796 q 600 829 643 818 q 504 840 557 840 q 289 744 367 840 q 211 486 211 647 q 284 226 211 321 q 496 132 357 132 q 583 147 542 132 l 583 346 l 468 346 l 468 488 l 738 488 l 738 49 q 624 -1 692 17 q 483 -19 557 -19 m 413 -407 l 468 -256 l 422 -256 l 422 -126 l 558 -126 l 558 -240 l 475 -407 l 413 -407 z "},"Ġ":{"ha":793,"x_min":42,"x_max":738,"o":"m 483 -19 q 250 44 350 -19 q 96 222 150 107 q 42 486 42 336 q 99 753 42 639 q 258 930 157 868 q 486 992 358 992 q 710 947 610 992 l 692 796 q 600 829 643 818 q 504 840 557 840 q 289 744 367 840 q 211 486 211 647 q 284 226 211 321 q 496 132 357 132 q 583 147 542 132 l 583 346 l 468 346 l 468 488 l 738 488 l 738 49 q 624 -1 692 17 q 483 -19 557 -19 m 414 1231 l 550 1231 l 550 1100 l 414 1100 l 414 1231 z "},"Ḡ":{"ha":793,"x_min":42,"x_max":738,"o":"m 483 -19 q 250 44 350 -19 q 96 222 150 107 q 42 486 42 336 q 99 753 42 639 q 258 930 157 868 q 486 992 358 992 q 710 947 610 992 l 692 796 q 600 829 643 818 q 504 840 557 840 q 289 744 367 840 q 211 486 211 647 q 284 226 211 321 q 496 132 357 132 q 583 147 542 132 l 583 346 l 468 346 l 468 488 l 738 488 l 738 49 q 624 -1 692 17 q 483 -19 557 -19 m 269 1199 l 694 1199 l 694 1101 l 269 1101 l 269 1199 z "},"H":{"ha":883,"x_min":92,"x_max":792,"o":"m 92 972 l 246 972 l 246 582 l 638 582 l 638 972 l 792 972 l 792 0 l 638 0 l 638 431 l 246 431 l 246 0 l 92 0 l 92 972 z "},"Ħ":{"ha":903,"x_min":22,"x_max":881,"o":"m 881 685 l 801 685 l 801 0 l 647 0 l 647 431 l 256 431 l 256 0 l 101 0 l 101 685 l 22 685 l 22 796 l 101 796 l 101 972 l 256 972 l 256 796 l 647 796 l 647 972 l 801 972 l 801 796 l 881 796 l 881 685 m 647 685 l 256 685 l 256 582 l 647 582 l 647 685 z "},"Ḫ":{"ha":883,"x_min":92,"x_max":792,"o":"m 92 972 l 246 972 l 246 582 l 638 582 l 638 972 l 792 972 l 792 0 l 638 0 l 638 431 l 246 431 l 246 0 l 92 0 l 92 972 m 442 -314 q 301 -262 353 -314 q 250 -136 250 -211 l 361 -136 q 382 -195 361 -174 q 442 -217 403 -217 q 501 -195 481 -217 q 522 -136 522 -174 l 633 -136 q 582 -262 633 -211 q 442 -314 531 -314 z "},"Ĥ":{"ha":883,"x_min":92,"x_max":792,"o":"m 92 972 l 246 972 l 246 582 l 638 582 l 638 972 l 792 972 l 792 0 l 638 0 l 638 431 l 246 431 l 246 0 l 92 0 l 92 972 m 608 1136 l 608 1040 l 442 1131 l 275 1040 l 275 1136 l 442 1254 l 608 1136 z "},"Ḥ":{"ha":883,"x_min":92,"x_max":792,"o":"m 92 972 l 246 972 l 246 582 l 638 582 l 638 972 l 792 972 l 792 0 l 638 0 l 638 431 l 246 431 l 246 0 l 92 0 l 92 972 m 376 -112 l 507 -112 l 507 -243 l 376 -243 l 376 -112 z "},"I":{"ha":335,"x_min":90,"x_max":244,"o":"m 90 972 l 244 972 l 244 0 l 90 0 l 90 972 z "},"Ĳ":{"ha":832,"x_min":83,"x_max":749,"o":"m 83 972 l 238 972 l 238 457 l 83 457 l 83 972 m 240 343 q 288 187 249 242 q 415 132 328 132 q 558 206 521 132 q 594 421 594 281 l 594 972 l 749 972 l 749 379 q 665 86 749 192 q 415 -19 582 -19 q 180 70 263 -19 q 85 322 97 160 l 240 343 z "},"Í":{"ha":335,"x_min":63,"x_max":275,"o":"m 90 972 l 244 972 l 244 0 l 90 0 l 90 972 m 63 1190 l 275 1322 l 275 1171 l 63 1089 l 63 1190 z "},"Ĭ":{"ha":335,"x_min":-24,"x_max":360,"o":"m 90 972 l 244 972 l 244 0 l 90 0 l 90 972 m 168 1093 q 28 1144 79 1093 q -24 1271 -24 1196 l 88 1271 q 108 1212 88 1233 q 168 1190 129 1190 q 228 1212 207 1190 q 249 1271 249 1233 l 360 1271 q 308 1144 360 1196 q 168 1093 257 1093 z "},"Î":{"ha":335,"x_min":15,"x_max":321,"o":"m 90 972 l 244 972 l 244 0 l 90 0 l 90 972 m 15 1167 l 168 1297 l 321 1167 l 321 1067 l 168 1163 l 15 1067 l 15 1167 z "},"Ȉ":{"ha":335,"x_min":-103,"x_max":313,"o":"m 90 972 l 244 972 l 244 0 l 90 0 l 90 972 m 19 1094 l -103 1308 l 43 1308 l 118 1094 l 19 1094 m 215 1094 l 103 1308 l 247 1308 l 313 1094 l 215 1094 z "},"Ï":{"ha":335,"x_min":-6,"x_max":342,"o":"m 90 972 l 244 972 l 244 0 l 90 0 l 90 972 m -6 1224 l 117 1224 l 117 1104 l -6 1104 l -6 1224 m 219 1224 l 342 1224 l 342 1104 l 219 1104 l 219 1224 z "},"Ḯ":{"ha":335,"x_min":-6,"x_max":342,"o":"m 90 972 l 244 972 l 244 0 l 90 0 l 90 972 m -6 1207 l 118 1207 l 118 1093 l -6 1093 l -6 1207 m 218 1207 l 342 1207 l 342 1093 l 218 1093 l 218 1207 m 63 1361 l 275 1472 l 275 1335 l 63 1271 l 63 1361 z "},"İ":{"ha":335,"x_min":90,"x_max":244,"o":"m 90 972 l 244 972 l 244 0 l 90 0 l 90 972 m 100 1231 l 236 1231 l 236 1100 l 100 1100 l 100 1231 z "},"Ị":{"ha":335,"x_min":90,"x_max":244,"o":"m 90 972 l 244 972 l 244 0 l 90 0 l 90 972 m 103 -112 l 233 -112 l 233 -243 l 103 -243 l 103 -112 z "},"Ì":{"ha":335,"x_min":61,"x_max":274,"o":"m 90 972 l 244 972 l 244 0 l 90 0 l 90 972 m 61 1172 l 61 1328 l 274 1193 l 274 1088 l 61 1172 z "},"Ỉ":{"ha":335,"x_min":50,"x_max":271,"o":"m 90 972 l 244 972 l 244 0 l 90 0 l 90 972 m 140 1069 q 179 1117 168 1099 q 190 1160 190 1136 q 142 1206 190 1206 q 74 1183 110 1206 l 50 1261 q 149 1282 99 1282 q 236 1251 201 1282 q 271 1165 271 1219 q 252 1090 271 1122 q 190 1021 233 1058 l 140 1069 z "},"Ȋ":{"ha":335,"x_min":-28,"x_max":364,"o":"m 90 972 l 244 972 l 244 0 l 90 0 l 90 972 m 168 1254 q 311 1204 258 1254 q 364 1083 364 1154 l 249 1083 q 226 1142 249 1121 q 168 1163 204 1163 q 110 1142 132 1163 q 88 1083 88 1121 l -28 1083 q 25 1204 -28 1154 q 168 1254 78 1254 z "},"Ī":{"ha":335,"x_min":-44,"x_max":381,"o":"m 90 972 l 244 972 l 244 0 l 90 0 l 90 972 m -44 1199 l 381 1199 l 381 1101 l -44 1101 l -44 1199 z "},"Į":{"ha":335,"x_min":65,"x_max":307,"o":"m 90 972 l 244 972 l 244 0 l 90 0 l 90 972 m 246 0 q 176 -79 200 -44 q 151 -149 151 -114 q 169 -197 151 -181 q 218 -212 188 -212 q 285 -197 244 -212 l 307 -269 q 204 -292 263 -292 q 104 -260 143 -292 q 65 -174 65 -229 q 92 -85 65 -125 q 164 0 118 -44 l 246 0 z "},"Ĩ":{"ha":335,"x_min":-39,"x_max":375,"o":"m 90 972 l 244 972 l 244 0 l 90 0 l 90 972 m 264 1088 q 218 1097 238 1088 q 169 1124 199 1106 q 136 1144 150 1138 q 107 1150 122 1150 q 79 1136 89 1150 q 69 1099 69 1122 l -39 1099 q -8 1219 -36 1178 q 72 1261 21 1261 q 118 1252 99 1261 q 167 1225 138 1243 q 200 1205 186 1211 q 229 1199 214 1199 q 257 1213 247 1199 q 267 1250 267 1226 l 375 1250 q 344 1129 372 1171 q 264 1088 315 1088 z "},"J":{"ha":336,"x_min":-4,"x_max":244,"o":"m -4 -101 q 69 -80 49 -101 q 90 -3 90 -58 l 90 972 l 244 972 l 244 -37 q 190 -188 244 -137 q 38 -239 135 -239 l 8 -239 l -4 -101 z "},"Ĵ":{"ha":336,"x_min":-4,"x_max":333,"o":"m -4 -101 q 69 -80 49 -101 q 90 -3 90 -58 l 90 972 l 244 972 l 244 -37 q 190 -188 244 -137 q 38 -239 135 -239 l 8 -239 l -4 -101 m 333 1136 l 333 1040 l 167 1131 l 0 1040 l 0 1136 l 167 1254 l 333 1136 z "},"K":{"ha":731,"x_min":90,"x_max":729,"o":"m 90 972 l 244 972 l 244 0 l 90 0 l 90 972 m 251 514 l 551 972 l 729 972 l 424 514 l 729 0 l 551 0 l 251 514 z "},"Ķ":{"ha":731,"x_min":90,"x_max":729,"o":"m 90 972 l 244 972 l 244 0 l 90 0 l 90 972 m 251 514 l 551 972 l 729 972 l 424 514 l 729 0 l 551 0 l 251 514 m 319 -407 l 375 -256 l 329 -256 l 329 -126 l 465 -126 l 465 -240 l 382 -407 l 319 -407 z "},"L":{"ha":597,"x_min":92,"x_max":589,"o":"m 92 972 l 246 972 l 246 142 l 589 142 l 589 0 l 92 0 l 92 972 z "},"Ǉ":{"ha":933,"x_min":92,"x_max":842,"o":"m 92 972 l 246 972 l 246 142 l 589 142 l 589 0 l 92 0 l 92 972 m 593 -101 q 667 -80 646 -101 q 688 -3 688 -58 l 688 972 l 842 972 l 842 -37 q 787 -188 842 -137 q 635 -239 732 -239 l 606 -239 l 593 -101 z "},"Ĺ":{"ha":597,"x_min":64,"x_max":589,"o":"m 92 972 l 246 972 l 246 142 l 589 142 l 589 0 l 92 0 l 92 972 m 64 1147 l 276 1258 l 276 1121 l 64 1057 l 64 1147 z "},"Ľ":{"ha":597,"x_min":92,"x_max":589,"o":"m 92 972 l 246 972 l 246 142 l 589 142 l 589 0 l 92 0 l 92 972 m 458 972 l 589 972 l 549 732 l 458 732 l 458 972 z "},"Ļ":{"ha":597,"x_min":92,"x_max":589,"o":"m 92 972 l 246 972 l 246 142 l 589 142 l 589 0 l 92 0 l 92 972 m 263 -407 l 318 -256 l 272 -256 l 272 -126 l 408 -126 l 408 -240 l 325 -407 l 263 -407 z "},"Ŀ":{"ha":597,"x_min":92,"x_max":589,"o":"m 92 972 l 246 972 l 246 142 l 589 142 l 589 0 l 92 0 l 92 972 m 388 624 l 549 624 l 549 457 l 388 457 l 388 624 z "},"Ḷ":{"ha":597,"x_min":92,"x_max":589,"o":"m 92 972 l 246 972 l 246 142 l 589 142 l 589 0 l 92 0 l 92 972 m 275 -112 l 406 -112 l 406 -243 l 275 -243 l 275 -112 z "},"ǈ":{"ha":885,"x_min":92,"x_max":817,"o":"m 92 972 l 246 972 l 246 142 l 589 142 l 589 0 l 92 0 l 92 972 m 665 972 l 817 972 l 817 813 l 665 813 l 665 972 m 594 -211 q 651 -187 636 -208 q 665 -106 665 -165 l 665 689 l 817 689 l 817 -153 q 775 -287 817 -243 q 651 -333 733 -331 l 608 -336 l 594 -211 z "},"Ḻ":{"ha":597,"x_min":92,"x_max":589,"o":"m 92 972 l 246 972 l 246 142 l 589 142 l 589 0 l 92 0 l 92 972 m 142 -129 l 539 -129 l 539 -231 l 142 -231 l 142 -129 z "},"Ł":{"ha":608,"x_min":24,"x_max":600,"o":"m 600 142 l 600 0 l 103 0 l 103 518 l 24 496 l 24 617 l 103 639 l 103 972 l 257 972 l 257 681 l 482 742 l 482 621 l 257 560 l 257 142 l 600 142 z "},"M":{"ha":1004,"x_min":56,"x_max":949,"o":"m 788 0 l 718 653 l 501 197 l 286 651 l 217 0 l 56 0 l 172 972 l 299 972 l 501 519 l 706 972 l 832 972 l 949 0 l 788 0 z "},"Ṃ":{"ha":1004,"x_min":56,"x_max":949,"o":"m 788 0 l 718 653 l 501 197 l 286 651 l 217 0 l 56 0 l 172 972 l 299 972 l 501 519 l 706 972 l 832 972 l 949 0 l 788 0 m 440 -112 l 571 -112 l 571 -243 l 440 -243 l 440 -112 z "},"N":{"ha":844,"x_min":92,"x_max":753,"o":"m 92 972 l 254 972 l 599 328 l 599 972 l 753 972 l 753 0 l 615 0 l 246 685 l 246 0 l 92 0 l 92 972 z "},"Ǌ":{"ha":1181,"x_min":92,"x_max":1089,"o":"m 92 972 l 254 972 l 599 328 l 599 972 l 753 972 l 753 0 l 615 0 l 246 685 l 246 0 l 92 0 l 92 972 m 840 -101 q 914 -80 893 -101 q 935 -3 935 -58 l 935 972 l 1089 972 l 1089 -37 q 1034 -188 1089 -137 q 882 -239 979 -239 l 853 -239 l 840 -101 z "},"Ń":{"ha":844,"x_min":92,"x_max":753,"o":"m 92 972 l 254 972 l 599 328 l 599 972 l 753 972 l 753 0 l 615 0 l 246 685 l 246 0 l 92 0 l 92 972 m 321 1147 l 533 1258 l 533 1121 l 321 1057 l 321 1147 z "},"Ň":{"ha":844,"x_min":92,"x_max":753,"o":"m 92 972 l 254 972 l 599 328 l 599 972 l 753 972 l 753 0 l 615 0 l 246 685 l 246 0 l 92 0 l 92 972 m 260 1204 l 260 1300 l 426 1210 l 593 1300 l 593 1204 l 426 1086 l 260 1204 z "},"Ņ":{"ha":844,"x_min":92,"x_max":753,"o":"m 92 972 l 254 972 l 599 328 l 599 972 l 753 972 l 753 0 l 615 0 l 246 685 l 246 0 l 92 0 l 92 972 m 353 -407 l 408 -256 l 363 -256 l 363 -126 l 499 -126 l 499 -240 l 415 -407 l 353 -407 z "},"Ṅ":{"ha":844,"x_min":92,"x_max":753,"o":"m 92 972 l 254 972 l 599 328 l 599 972 l 753 972 l 753 0 l 615 0 l 246 685 l 246 0 l 92 0 l 92 972 m 358 1231 l 494 1231 l 494 1100 l 358 1100 l 358 1231 z "},"Ṇ":{"ha":844,"x_min":92,"x_max":753,"o":"m 92 972 l 254 972 l 599 328 l 599 972 l 753 972 l 753 0 l 615 0 l 246 685 l 246 0 l 92 0 l 92 972 m 365 -112 l 496 -112 l 496 -243 l 365 -243 l 365 -112 z "},"Ŋ":{"ha":906,"x_min":90,"x_max":822,"o":"m 822 69 q 731 -187 822 -100 q 489 -275 640 -275 q 372 -258 426 -275 l 390 -122 q 489 -133 433 -133 q 619 -85 571 -133 q 667 57 667 -36 l 667 579 q 613 781 667 711 q 457 850 560 850 q 334 823 388 850 q 244 749 281 796 l 244 0 l 90 0 l 90 972 l 221 972 l 229 879 q 349 963 279 933 q 496 992 418 992 q 739 887 656 992 q 822 601 822 782 l 822 69 z "},"ǋ":{"ha":1121,"x_min":92,"x_max":1053,"o":"m 92 972 l 254 972 l 599 328 l 599 972 l 753 972 l 753 0 l 615 0 l 246 685 l 246 0 l 92 0 l 92 972 m 901 972 l 1053 972 l 1053 813 l 901 813 l 901 972 m 831 -211 q 887 -187 872 -208 q 901 -106 901 -165 l 901 689 l 1053 689 l 1053 -153 q 1011 -287 1053 -243 q 888 -333 969 -331 l 844 -336 l 831 -211 z "},"Ṉ":{"ha":844,"x_min":92,"x_max":753,"o":"m 92 972 l 254 972 l 599 328 l 599 972 l 753 972 l 753 0 l 615 0 l 246 685 l 246 0 l 92 0 l 92 972 m 232 -129 l 629 -129 l 629 -231 l 232 -231 l 232 -129 z "},"Ñ":{"ha":844,"x_min":92,"x_max":753,"o":"m 92 972 l 254 972 l 599 328 l 599 972 l 753 972 l 753 0 l 615 0 l 246 685 l 246 0 l 92 0 l 92 972 m 522 1088 q 476 1097 496 1088 q 428 1124 457 1106 q 394 1144 408 1138 q 365 1150 381 1150 q 338 1136 347 1150 q 328 1099 328 1122 l 219 1099 q 251 1219 222 1178 q 331 1261 279 1261 q 376 1252 357 1261 q 425 1225 396 1243 q 458 1205 444 1211 q 488 1199 472 1199 q 515 1213 506 1199 q 525 1250 525 1226 l 633 1250 q 602 1129 631 1171 q 522 1088 574 1088 z "},"O":{"ha":908,"x_min":42,"x_max":867,"o":"m 454 -19 q 241 43 335 -19 q 94 220 147 106 q 42 486 42 335 q 94 752 42 638 q 241 929 147 867 q 454 992 335 992 q 667 929 574 992 q 814 752 761 867 q 867 486 867 638 q 814 220 867 335 q 667 43 761 106 q 454 -19 574 -19 m 454 136 q 638 233 574 136 q 701 486 701 329 q 638 740 701 643 q 454 836 574 836 q 270 739 335 836 q 206 486 206 642 q 270 233 206 331 q 454 136 335 136 z "},"Ó":{"ha":908,"x_min":42,"x_max":867,"o":"m 454 -19 q 241 43 335 -19 q 94 220 147 106 q 42 486 42 335 q 94 752 42 638 q 241 929 147 867 q 454 992 335 992 q 667 929 574 992 q 814 752 761 867 q 867 486 867 638 q 814 220 867 335 q 667 43 761 106 q 454 -19 574 -19 m 454 136 q 638 233 574 136 q 701 486 701 329 q 638 740 701 643 q 454 836 574 836 q 270 739 335 836 q 206 486 206 642 q 270 233 206 331 q 454 136 335 136 m 349 1190 l 561 1322 l 561 1171 l 349 1089 l 349 1190 z "},"Ŏ":{"ha":908,"x_min":42,"x_max":867,"o":"m 454 -19 q 241 43 335 -19 q 94 220 147 106 q 42 486 42 335 q 94 752 42 638 q 241 929 147 867 q 454 992 335 992 q 667 929 574 992 q 814 752 761 867 q 867 486 867 638 q 814 220 867 335 q 667 43 761 106 q 454 -19 574 -19 m 454 136 q 638 233 574 136 q 701 486 701 329 q 638 740 701 643 q 454 836 574 836 q 270 739 335 836 q 206 486 206 642 q 270 233 206 331 q 454 136 335 136 m 454 1063 q 311 1112 364 1063 q 258 1233 258 1161 l 374 1233 q 396 1174 374 1194 q 454 1154 418 1154 q 513 1174 490 1154 q 535 1233 535 1194 l 650 1233 q 598 1112 650 1161 q 454 1063 546 1063 z "},"Ô":{"ha":908,"x_min":42,"x_max":867,"o":"m 454 -19 q 241 43 335 -19 q 94 220 147 106 q 42 486 42 335 q 94 752 42 638 q 241 929 147 867 q 454 992 335 992 q 667 929 574 992 q 814 752 761 867 q 867 486 867 638 q 814 220 867 335 q 667 43 761 106 q 454 -19 574 -19 m 454 136 q 638 233 574 136 q 701 486 701 329 q 638 740 701 643 q 454 836 574 836 q 270 739 335 836 q 206 486 206 642 q 270 233 206 331 q 454 136 335 136 m 301 1167 l 454 1297 l 607 1167 l 607 1067 l 454 1163 l 301 1067 l 301 1167 z "},"Ố":{"ha":908,"x_min":42,"x_max":867,"o":"m 454 -19 q 241 43 335 -19 q 94 220 147 106 q 42 486 42 335 q 94 752 42 638 q 241 929 147 867 q 454 992 335 992 q 667 929 574 992 q 814 752 761 867 q 867 486 867 638 q 814 220 867 335 q 667 43 761 106 q 454 -19 574 -19 m 454 136 q 638 233 574 136 q 701 486 701 329 q 638 740 701 643 q 454 836 574 836 q 270 739 335 836 q 206 486 206 642 q 270 233 206 331 q 454 136 335 136 m 629 1417 l 775 1417 l 650 1246 l 551 1246 l 629 1417 m 621 1144 l 621 1049 l 454 1139 l 288 1049 l 288 1144 l 454 1263 l 621 1144 z "},"Ộ":{"ha":908,"x_min":42,"x_max":867,"o":"m 454 -19 q 241 43 335 -19 q 94 220 147 106 q 42 486 42 335 q 94 752 42 638 q 241 929 147 867 q 454 992 335 992 q 667 929 574 992 q 814 752 761 867 q 867 486 867 638 q 814 220 867 335 q 667 43 761 106 q 454 -19 574 -19 m 454 136 q 638 233 574 136 q 701 486 701 329 q 638 740 701 643 q 454 836 574 836 q 270 739 335 836 q 206 486 206 642 q 270 233 206 331 q 454 136 335 136 m 301 1167 l 454 1297 l 607 1167 l 607 1067 l 454 1163 l 301 1067 l 301 1167 m 389 -112 l 519 -112 l 519 -243 l 389 -243 l 389 -112 z "},"Ồ":{"ha":908,"x_min":42,"x_max":867,"o":"m 454 -19 q 241 43 335 -19 q 94 220 147 106 q 42 486 42 335 q 94 752 42 638 q 241 929 147 867 q 454 992 335 992 q 667 929 574 992 q 814 752 761 867 q 867 486 867 638 q 814 220 867 335 q 667 43 761 106 q 454 -19 574 -19 m 454 136 q 638 233 574 136 q 701 486 701 329 q 638 740 701 643 q 454 836 574 836 q 270 739 335 836 q 206 486 206 642 q 270 233 206 331 q 454 136 335 136 m 586 1246 l 483 1417 l 621 1417 l 679 1246 l 586 1246 m 621 1144 l 621 1049 l 454 1139 l 288 1049 l 288 1144 l 454 1263 l 621 1144 z "},"Ổ":{"ha":908,"x_min":42,"x_max":867,"o":"m 454 -19 q 241 43 335 -19 q 94 220 147 106 q 42 486 42 335 q 94 752 42 638 q 241 929 147 867 q 454 992 335 992 q 667 929 574 992 q 814 752 761 867 q 867 486 867 638 q 814 220 867 335 q 667 43 761 106 q 454 -19 574 -19 m 454 136 q 638 233 574 136 q 701 486 701 329 q 638 740 701 643 q 454 836 574 836 q 270 739 335 836 q 206 486 206 642 q 270 233 206 331 q 454 136 335 136 m 621 1135 l 621 1039 l 454 1129 l 288 1039 l 288 1135 l 454 1253 l 621 1135 m 574 1269 q 604 1289 594 1278 q 614 1319 614 1300 q 567 1360 614 1360 q 499 1340 538 1360 l 475 1419 q 576 1440 526 1440 q 665 1412 631 1440 q 700 1333 700 1383 q 673 1260 700 1289 q 592 1211 646 1231 l 574 1269 z "},"Ỗ":{"ha":908,"x_min":42,"x_max":867,"o":"m 454 -19 q 241 43 335 -19 q 94 220 147 106 q 42 486 42 335 q 94 752 42 638 q 241 929 147 867 q 454 992 335 992 q 667 929 574 992 q 814 752 761 867 q 867 486 867 638 q 814 220 867 335 q 667 43 761 106 q 454 -19 574 -19 m 454 136 q 638 233 574 136 q 701 486 701 329 q 638 740 701 643 q 454 836 574 836 q 270 739 335 836 q 206 486 206 642 q 270 233 206 331 q 454 136 335 136 m 621 1135 l 621 1039 l 454 1129 l 288 1039 l 288 1135 l 454 1253 l 621 1135 m 558 1306 q 512 1314 535 1306 q 460 1336 489 1322 q 422 1353 440 1346 q 388 1360 403 1360 q 347 1315 347 1360 l 247 1315 q 273 1422 247 1385 q 350 1458 299 1458 q 397 1450 374 1458 q 449 1428 419 1442 q 487 1411 468 1418 q 521 1404 506 1404 q 561 1450 561 1404 l 661 1450 q 635 1342 661 1379 q 558 1306 610 1306 z "},"Ȍ":{"ha":908,"x_min":42,"x_max":867,"o":"m 454 -19 q 241 43 335 -19 q 94 220 147 106 q 42 486 42 335 q 94 752 42 638 q 241 929 147 867 q 454 992 335 992 q 667 929 574 992 q 814 752 761 867 q 867 486 867 638 q 814 220 867 335 q 667 43 761 106 q 454 -19 574 -19 m 454 136 q 638 233 574 136 q 701 486 701 329 q 638 740 701 643 q 454 836 574 836 q 270 739 335 836 q 206 486 206 642 q 270 233 206 331 q 454 136 335 136 m 306 1094 l 183 1308 l 329 1308 l 404 1094 l 306 1094 m 501 1094 l 389 1308 l 533 1308 l 599 1094 l 501 1094 z "},"Ö":{"ha":908,"x_min":42,"x_max":867,"o":"m 454 -19 q 241 43 335 -19 q 94 220 147 106 q 42 486 42 335 q 94 752 42 638 q 241 929 147 867 q 454 992 335 992 q 667 929 574 992 q 814 752 761 867 q 867 486 867 638 q 814 220 867 335 q 667 43 761 106 q 454 -19 574 -19 m 454 136 q 638 233 574 136 q 701 486 701 329 q 638 740 701 643 q 454 836 574 836 q 270 739 335 836 q 206 486 206 642 q 270 233 206 331 q 454 136 335 136 m 281 1224 l 403 1224 l 403 1104 l 281 1104 l 281 1224 m 506 1224 l 628 1224 l 628 1104 l 506 1104 l 506 1224 z "},"Ȫ":{"ha":908,"x_min":42,"x_max":867,"o":"m 454 -19 q 241 43 335 -19 q 94 220 147 106 q 42 486 42 335 q 94 752 42 638 q 241 929 147 867 q 454 992 335 992 q 667 929 574 992 q 814 752 761 867 q 867 486 867 638 q 814 220 867 335 q 667 43 761 106 q 454 -19 574 -19 m 454 136 q 638 233 574 136 q 701 486 701 329 q 638 740 701 643 q 454 836 574 836 q 270 739 335 836 q 206 486 206 642 q 270 233 206 331 q 454 136 335 136 m 281 1207 l 404 1207 l 404 1093 l 281 1093 l 281 1207 m 504 1207 l 628 1207 l 628 1093 l 504 1093 l 504 1207 m 242 1413 l 667 1413 l 667 1315 l 242 1315 l 242 1413 z "},"Ȱ":{"ha":908,"x_min":42,"x_max":867,"o":"m 454 -19 q 241 43 335 -19 q 94 220 147 106 q 42 486 42 335 q 94 752 42 638 q 241 929 147 867 q 454 992 335 992 q 667 929 574 992 q 814 752 761 867 q 867 486 867 638 q 814 220 867 335 q 667 43 761 106 q 454 -19 574 -19 m 454 136 q 638 233 574 136 q 701 486 701 329 q 638 740 701 643 q 454 836 574 836 q 270 739 335 836 q 206 486 206 642 q 270 233 206 331 q 454 136 335 136 m 386 1231 l 522 1231 l 522 1100 l 386 1100 l 386 1231 m 242 1442 l 667 1442 l 667 1344 l 242 1344 l 242 1442 z "},"Ọ":{"ha":908,"x_min":42,"x_max":867,"o":"m 454 -19 q 241 43 335 -19 q 94 220 147 106 q 42 486 42 335 q 94 752 42 638 q 241 929 147 867 q 454 992 335 992 q 667 929 574 992 q 814 752 761 867 q 867 486 867 638 q 814 220 867 335 q 667 43 761 106 q 454 -19 574 -19 m 454 136 q 638 233 574 136 q 701 486 701 329 q 638 740 701 643 q 454 836 574 836 q 270 739 335 836 q 206 486 206 642 q 270 233 206 331 q 454 136 335 136 m 389 -112 l 519 -112 l 519 -243 l 389 -243 l 389 -112 z "},"Ò":{"ha":908,"x_min":42,"x_max":867,"o":"m 454 -19 q 241 43 335 -19 q 94 220 147 106 q 42 486 42 335 q 94 752 42 638 q 241 929 147 867 q 454 992 335 992 q 667 929 574 992 q 814 752 761 867 q 867 486 867 638 q 814 220 867 335 q 667 43 761 106 q 454 -19 574 -19 m 454 136 q 638 233 574 136 q 701 486 701 329 q 638 740 701 643 q 454 836 574 836 q 270 739 335 836 q 206 486 206 642 q 270 233 206 331 q 454 136 335 136 m 347 1172 l 347 1328 l 560 1193 l 560 1088 l 347 1172 z "},"Ỏ":{"ha":908,"x_min":42,"x_max":867,"o":"m 454 -19 q 241 43 335 -19 q 94 220 147 106 q 42 486 42 335 q 94 752 42 638 q 241 929 147 867 q 454 992 335 992 q 667 929 574 992 q 814 752 761 867 q 867 486 867 638 q 814 220 867 335 q 667 43 761 106 q 454 -19 574 -19 m 454 136 q 638 233 574 136 q 701 486 701 329 q 638 740 701 643 q 454 836 574 836 q 270 739 335 836 q 206 486 206 642 q 270 233 206 331 q 454 136 335 136 m 426 1069 q 465 1117 454 1099 q 476 1160 476 1136 q 428 1206 476 1206 q 360 1183 396 1206 l 336 1261 q 435 1282 385 1282 q 522 1251 488 1282 q 557 1165 557 1219 q 538 1090 557 1122 q 476 1021 519 1058 l 426 1069 z "},"Ơ":{"ha":908,"x_min":42,"x_max":867,"o":"m 706 900 q 824 728 782 835 q 867 486 867 621 q 814 220 867 335 q 667 43 761 106 q 454 -19 574 -19 q 241 43 335 -19 q 94 220 147 106 q 42 486 42 335 q 94 752 42 638 q 241 929 147 867 q 454 992 335 992 q 578 972 519 992 q 647 999 624 975 q 669 1075 669 1024 l 800 1075 q 775 972 800 1015 q 706 900 750 928 m 454 136 q 638 233 574 136 q 701 486 701 329 q 638 740 701 643 q 454 836 574 836 q 270 739 335 836 q 206 486 206 642 q 270 233 206 331 q 454 136 335 136 z "},"Ớ":{"ha":908,"x_min":42,"x_max":867,"o":"m 706 900 q 824 728 782 835 q 867 486 867 621 q 814 220 867 335 q 667 43 761 106 q 454 -19 574 -19 q 241 43 335 -19 q 94 220 147 106 q 42 486 42 335 q 94 752 42 638 q 241 929 147 867 q 454 992 335 992 q 578 972 519 992 q 647 999 624 975 q 669 1075 669 1024 l 800 1075 q 775 972 800 1015 q 706 900 750 928 m 454 136 q 638 233 574 136 q 701 486 701 329 q 638 740 701 643 q 454 836 574 836 q 270 739 335 836 q 206 486 206 642 q 270 233 206 331 q 454 136 335 136 m 349 1190 l 561 1322 l 561 1171 l 349 1089 l 349 1190 z "},"Ợ":{"ha":908,"x_min":42,"x_max":867,"o":"m 706 900 q 824 728 782 835 q 867 486 867 621 q 814 220 867 335 q 667 43 761 106 q 454 -19 574 -19 q 241 43 335 -19 q 94 220 147 106 q 42 486 42 335 q 94 752 42 638 q 241 929 147 867 q 454 992 335 992 q 578 972 519 992 q 647 999 624 975 q 669 1075 669 1024 l 800 1075 q 775 972 800 1015 q 706 900 750 928 m 454 136 q 638 233 574 136 q 701 486 701 329 q 638 740 701 643 q 454 836 574 836 q 270 739 335 836 q 206 486 206 642 q 270 233 206 331 q 454 136 335 136 m 389 -112 l 519 -112 l 519 -243 l 389 -243 l 389 -112 z "},"Ờ":{"ha":908,"x_min":42,"x_max":867,"o":"m 706 900 q 824 728 782 835 q 867 486 867 621 q 814 220 867 335 q 667 43 761 106 q 454 -19 574 -19 q 241 43 335 -19 q 94 220 147 106 q 42 486 42 335 q 94 752 42 638 q 241 929 147 867 q 454 992 335 992 q 578 972 519 992 q 647 999 624 975 q 669 1075 669 1024 l 800 1075 q 775 972 800 1015 q 706 900 750 928 m 454 136 q 638 233 574 136 q 701 486 701 329 q 638 740 701 643 q 454 836 574 836 q 270 739 335 836 q 206 486 206 642 q 270 233 206 331 q 454 136 335 136 m 347 1172 l 347 1328 l 560 1193 l 560 1088 l 347 1172 z "},"Ở":{"ha":908,"x_min":42,"x_max":867,"o":"m 706 900 q 824 728 782 835 q 867 486 867 621 q 814 220 867 335 q 667 43 761 106 q 454 -19 574 -19 q 241 43 335 -19 q 94 220 147 106 q 42 486 42 335 q 94 752 42 638 q 241 929 147 867 q 454 992 335 992 q 578 972 519 992 q 647 999 624 975 q 669 1075 669 1024 l 800 1075 q 775 972 800 1015 q 706 900 750 928 m 454 136 q 638 233 574 136 q 701 486 701 329 q 638 740 701 643 q 454 836 574 836 q 270 739 335 836 q 206 486 206 642 q 270 233 206 331 q 454 136 335 136 m 426 1069 q 465 1117 454 1099 q 476 1160 476 1136 q 428 1206 476 1206 q 360 1183 396 1206 l 336 1261 q 435 1282 385 1282 q 522 1251 488 1282 q 557 1165 557 1219 q 538 1090 557 1122 q 476 1021 519 1058 l 426 1069 z "},"Ỡ":{"ha":908,"x_min":42,"x_max":867,"o":"m 706 900 q 824 728 782 835 q 867 486 867 621 q 814 220 867 335 q 667 43 761 106 q 454 -19 574 -19 q 241 43 335 -19 q 94 220 147 106 q 42 486 42 335 q 94 752 42 638 q 241 929 147 867 q 454 992 335 992 q 578 972 519 992 q 647 999 624 975 q 669 1075 669 1024 l 800 1075 q 775 972 800 1015 q 706 900 750 928 m 454 136 q 638 233 574 136 q 701 486 701 329 q 638 740 701 643 q 454 836 574 836 q 270 739 335 836 q 206 486 206 642 q 270 233 206 331 q 454 136 335 136 m 550 1088 q 504 1097 524 1088 q 456 1124 485 1106 q 422 1144 436 1138 q 393 1150 408 1150 q 365 1136 375 1150 q 356 1099 356 1122 l 247 1099 q 278 1219 250 1178 q 358 1261 307 1261 q 404 1252 385 1261 q 453 1225 424 1243 q 486 1205 472 1211 q 515 1199 500 1199 q 543 1213 533 1199 q 553 1250 553 1226 l 661 1250 q 630 1129 658 1171 q 550 1088 601 1088 z "},"Ő":{"ha":908,"x_min":42,"x_max":867,"o":"m 454 -19 q 241 43 335 -19 q 94 220 147 106 q 42 486 42 335 q 94 752 42 638 q 241 929 147 867 q 454 992 335 992 q 667 929 574 992 q 814 752 761 867 q 867 486 867 638 q 814 220 867 335 q 667 43 761 106 q 454 -19 574 -19 m 454 136 q 638 233 574 136 q 701 486 701 329 q 638 740 701 643 q 454 836 574 836 q 270 739 335 836 q 206 486 206 642 q 270 233 206 331 q 454 136 335 136 m 381 1308 l 526 1308 l 401 1094 l 303 1094 l 381 1308 m 586 1308 l 732 1308 l 596 1094 l 499 1094 l 586 1308 z "},"Ȏ":{"ha":908,"x_min":42,"x_max":867,"o":"m 454 -19 q 241 43 335 -19 q 94 220 147 106 q 42 486 42 335 q 94 752 42 638 q 241 929 147 867 q 454 992 335 992 q 667 929 574 992 q 814 752 761 867 q 867 486 867 638 q 814 220 867 335 q 667 43 761 106 q 454 -19 574 -19 m 454 136 q 638 233 574 136 q 701 486 701 329 q 638 740 701 643 q 454 836 574 836 q 270 739 335 836 q 206 486 206 642 q 270 233 206 331 q 454 136 335 136 m 454 1254 q 597 1204 544 1254 q 650 1083 650 1154 l 535 1083 q 513 1142 535 1121 q 454 1163 490 1163 q 396 1142 418 1163 q 374 1083 374 1121 l 258 1083 q 311 1204 258 1154 q 454 1254 364 1254 z "},"Ō":{"ha":908,"x_min":42,"x_max":867,"o":"m 454 -19 q 241 43 335 -19 q 94 220 147 106 q 42 486 42 335 q 94 752 42 638 q 241 929 147 867 q 454 992 335 992 q 667 929 574 992 q 814 752 761 867 q 867 486 867 638 q 814 220 867 335 q 667 43 761 106 q 454 -19 574 -19 m 454 136 q 638 233 574 136 q 701 486 701 329 q 638 740 701 643 q 454 836 574 836 q 270 739 335 836 q 206 486 206 642 q 270 233 206 331 q 454 136 335 136 m 242 1199 l 667 1199 l 667 1101 l 242 1101 l 242 1199 z "},"Ṓ":{"ha":908,"x_min":42,"x_max":867,"o":"m 454 -19 q 241 43 335 -19 q 94 220 147 106 q 42 486 42 335 q 94 752 42 638 q 241 929 147 867 q 454 992 335 992 q 667 929 574 992 q 814 752 761 867 q 867 486 867 638 q 814 220 867 335 q 667 43 761 106 q 454 -19 574 -19 m 454 136 q 638 233 574 136 q 701 486 701 329 q 638 740 701 643 q 454 836 574 836 q 270 739 335 836 q 206 486 206 642 q 270 233 206 331 q 454 136 335 136 m 242 1199 l 667 1199 l 667 1101 l 242 1101 l 242 1199 m 349 1378 l 561 1489 l 561 1351 l 349 1288 l 349 1378 z "},"Ṑ":{"ha":908,"x_min":42,"x_max":867,"o":"m 454 -19 q 241 43 335 -19 q 94 220 147 106 q 42 486 42 335 q 94 752 42 638 q 241 929 147 867 q 454 992 335 992 q 667 929 574 992 q 814 752 761 867 q 867 486 867 638 q 814 220 867 335 q 667 43 761 106 q 454 -19 574 -19 m 454 136 q 638 233 574 136 q 701 486 701 329 q 638 740 701 643 q 454 836 574 836 q 270 739 335 836 q 206 486 206 642 q 270 233 206 331 q 454 136 335 136 m 242 1199 l 667 1199 l 667 1101 l 242 1101 l 242 1199 m 347 1350 l 347 1489 l 560 1378 l 560 1288 l 347 1350 z "},"Ǫ":{"ha":908,"x_min":42,"x_max":867,"o":"m 510 -15 q 452 -85 472 -53 q 432 -149 432 -117 q 450 -197 432 -181 q 499 -212 468 -212 q 565 -197 525 -212 l 588 -269 q 485 -292 543 -292 q 385 -260 424 -292 q 346 -174 346 -229 q 367 -94 346 -131 q 425 -18 388 -57 q 226 53 314 -11 q 90 230 139 118 q 42 486 42 342 q 94 752 42 638 q 241 929 147 867 q 454 992 335 992 q 667 929 574 992 q 814 752 761 867 q 867 486 867 638 q 822 239 867 347 q 696 65 776 131 q 510 -15 615 -1 m 206 486 q 270 233 206 331 q 454 136 335 136 q 638 233 574 136 q 701 486 701 329 q 638 740 701 643 q 454 836 574 836 q 270 739 335 836 q 206 486 206 642 z "},"Ø":{"ha":908,"x_min":42,"x_max":867,"o":"m 743 863 q 835 699 803 796 q 867 486 867 603 q 814 220 867 335 q 667 43 761 106 q 454 -19 574 -19 q 250 38 339 -19 l 190 -61 l 64 -61 l 165 110 q 74 273 106 176 q 42 486 42 369 q 94 752 42 638 q 241 929 147 867 q 454 992 335 992 q 658 935 569 992 l 718 1033 l 844 1033 l 743 863 m 206 486 q 254 258 206 349 l 578 800 q 454 836 526 836 q 270 739 335 836 q 206 486 206 642 m 454 136 q 638 233 574 136 q 701 486 701 329 q 653 714 701 621 l 329 172 q 454 136 382 136 z "},"Ǿ":{"ha":908,"x_min":42,"x_max":867,"o":"m 743 863 q 835 699 803 796 q 867 486 867 603 q 814 220 867 335 q 667 43 761 106 q 454 -19 574 -19 q 250 38 339 -19 l 190 -61 l 64 -61 l 165 110 q 74 273 106 176 q 42 486 42 369 q 94 752 42 638 q 241 929 147 867 q 454 992 335 992 q 658 935 569 992 l 718 1033 l 844 1033 l 743 863 m 206 486 q 254 258 206 349 l 578 800 q 454 836 526 836 q 270 739 335 836 q 206 486 206 642 m 454 136 q 638 233 574 136 q 701 486 701 329 q 653 714 701 621 l 329 172 q 454 136 382 136 m 350 1190 l 563 1322 l 563 1171 l 350 1089 l 350 1190 z "},"Õ":{"ha":908,"x_min":42,"x_max":867,"o":"m 454 -19 q 241 43 335 -19 q 94 220 147 106 q 42 486 42 335 q 94 752 42 638 q 241 929 147 867 q 454 992 335 992 q 667 929 574 992 q 814 752 761 867 q 867 486 867 638 q 814 220 867 335 q 667 43 761 106 q 454 -19 574 -19 m 454 136 q 638 233 574 136 q 701 486 701 329 q 638 740 701 643 q 454 836 574 836 q 270 739 335 836 q 206 486 206 642 q 270 233 206 331 q 454 136 335 136 m 550 1088 q 504 1097 524 1088 q 456 1124 485 1106 q 422 1144 436 1138 q 393 1150 408 1150 q 365 1136 375 1150 q 356 1099 356 1122 l 247 1099 q 278 1219 250 1178 q 358 1261 307 1261 q 404 1252 385 1261 q 453 1225 424 1243 q 486 1205 472 1211 q 515 1199 500 1199 q 543 1213 533 1199 q 553 1250 553 1226 l 661 1250 q 630 1129 658 1171 q 550 1088 601 1088 z "},"Ṍ":{"ha":908,"x_min":42,"x_max":867,"o":"m 454 -19 q 241 43 335 -19 q 94 220 147 106 q 42 486 42 335 q 94 752 42 638 q 241 929 147 867 q 454 992 335 992 q 667 929 574 992 q 814 752 761 867 q 867 486 867 638 q 814 220 867 335 q 667 43 761 106 q 454 -19 574 -19 m 454 136 q 638 233 574 136 q 701 486 701 329 q 638 740 701 643 q 454 836 574 836 q 270 739 335 836 q 206 486 206 642 q 270 233 206 331 q 454 136 335 136 m 558 1085 q 512 1093 535 1085 q 460 1115 489 1101 q 422 1132 440 1125 q 388 1139 403 1139 q 347 1094 347 1139 l 247 1094 q 273 1201 247 1164 q 350 1238 299 1238 q 397 1229 374 1238 q 449 1207 419 1221 q 487 1190 468 1197 q 521 1183 506 1183 q 561 1229 561 1183 l 661 1229 q 635 1122 661 1158 q 558 1085 610 1085 m 349 1382 l 561 1493 l 561 1356 l 349 1292 l 349 1382 z "},"Ṏ":{"ha":908,"x_min":42,"x_max":867,"o":"m 454 -19 q 241 43 335 -19 q 94 220 147 106 q 42 486 42 335 q 94 752 42 638 q 241 929 147 867 q 454 992 335 992 q 667 929 574 992 q 814 752 761 867 q 867 486 867 638 q 814 220 867 335 q 667 43 761 106 q 454 -19 574 -19 m 454 136 q 638 233 574 136 q 701 486 701 329 q 638 740 701 643 q 454 836 574 836 q 270 739 335 836 q 206 486 206 642 q 270 233 206 331 q 454 136 335 136 m 558 1085 q 512 1093 535 1085 q 460 1115 489 1101 q 422 1132 440 1125 q 388 1139 403 1139 q 347 1094 347 1139 l 247 1094 q 273 1201 247 1164 q 350 1238 299 1238 q 397 1229 374 1238 q 449 1207 419 1221 q 487 1190 468 1197 q 521 1183 506 1183 q 561 1229 561 1183 l 661 1229 q 635 1122 661 1158 q 558 1085 610 1085 m 281 1442 l 404 1442 l 404 1328 l 281 1328 l 281 1442 m 504 1442 l 628 1442 l 628 1328 l 504 1328 l 504 1442 z "},"Ȭ":{"ha":908,"x_min":42,"x_max":867,"o":"m 454 -19 q 241 43 335 -19 q 94 220 147 106 q 42 486 42 335 q 94 752 42 638 q 241 929 147 867 q 454 992 335 992 q 667 929 574 992 q 814 752 761 867 q 867 486 867 638 q 814 220 867 335 q 667 43 761 106 q 454 -19 574 -19 m 454 136 q 638 233 574 136 q 701 486 701 329 q 638 740 701 643 q 454 836 574 836 q 270 739 335 836 q 206 486 206 642 q 270 233 206 331 q 454 136 335 136 m 558 1085 q 512 1093 535 1085 q 460 1115 489 1101 q 422 1132 440 1125 q 388 1139 403 1139 q 347 1094 347 1139 l 247 1094 q 273 1201 247 1164 q 350 1238 299 1238 q 397 1229 374 1238 q 449 1207 419 1221 q 487 1190 468 1197 q 521 1183 506 1183 q 561 1229 561 1183 l 661 1229 q 635 1122 661 1158 q 558 1085 610 1085 m 242 1433 l 667 1433 l 667 1336 l 242 1336 l 242 1433 z "},"Œ":{"ha":1294,"x_min":42,"x_max":1254,"o":"m 1254 153 l 1254 0 l 706 0 l 706 100 q 586 12 653 43 q 440 -19 519 -19 q 235 43 325 -19 q 93 220 144 106 q 42 486 42 335 q 93 752 42 638 q 235 929 144 867 q 440 992 325 992 q 586 960 519 992 q 706 872 653 929 l 706 972 l 1243 972 l 1243 819 l 865 819 l 865 583 l 1158 583 l 1158 431 l 865 431 l 865 153 l 1254 153 m 454 133 q 633 231 571 133 q 696 486 696 329 q 633 741 696 643 q 454 839 571 839 q 274 741 338 839 q 211 486 211 643 q 274 231 211 329 q 454 133 338 133 z "},"P":{"ha":714,"x_min":90,"x_max":688,"o":"m 90 972 l 361 972 q 601 891 514 972 q 688 653 688 810 q 600 414 688 496 q 361 332 513 332 l 244 332 l 244 0 l 90 0 l 90 972 m 347 468 q 482 513 436 468 q 528 653 528 558 q 482 790 528 744 q 347 836 436 836 l 244 836 l 244 468 l 347 468 z "},"Þ":{"ha":726,"x_min":90,"x_max":700,"o":"m 90 972 l 244 972 l 244 765 l 399 765 q 624 697 549 765 q 700 504 700 629 q 624 310 700 379 q 399 242 549 242 l 244 242 l 244 0 l 90 0 l 90 972 m 382 371 q 507 405 468 371 q 546 504 546 439 q 508 606 546 574 q 382 638 469 638 l 244 638 l 244 371 l 382 371 z "},"Q":{"ha":908,"x_min":42,"x_max":867,"o":"m 867 486 q 782 161 867 293 l 867 78 l 768 -19 l 689 58 q 454 -19 588 -19 q 241 43 335 -19 q 94 220 147 106 q 42 486 42 335 q 94 752 42 638 q 241 929 147 867 q 454 992 335 992 q 667 929 574 992 q 814 752 761 867 q 867 486 867 638 m 454 136 q 575 169 519 136 l 465 276 l 564 374 l 663 278 q 701 486 701 361 q 638 740 701 643 q 454 836 574 836 q 270 739 335 836 q 206 486 206 642 q 270 233 206 331 q 454 136 335 136 z "},"R":{"ha":747,"x_min":90,"x_max":733,"o":"m 90 972 l 363 972 q 601 898 515 972 q 686 674 686 824 q 649 517 686 585 q 544 411 613 450 l 733 0 l 558 0 l 394 368 l 368 367 l 244 367 l 244 0 l 90 0 l 90 972 m 349 503 q 482 543 438 503 q 526 669 526 583 q 482 796 526 756 q 349 836 438 836 l 244 836 l 244 503 l 349 503 z "},"Ŕ":{"ha":747,"x_min":90,"x_max":733,"o":"m 90 972 l 363 972 q 601 898 515 972 q 686 674 686 824 q 649 517 686 585 q 544 411 613 450 l 733 0 l 558 0 l 394 368 l 368 367 l 244 367 l 244 0 l 90 0 l 90 972 m 349 503 q 482 543 438 503 q 526 669 526 583 q 482 796 526 756 q 349 836 438 836 l 244 836 l 244 503 l 349 503 m 269 1147 l 482 1258 l 482 1121 l 269 1057 l 269 1147 z "},"Ř":{"ha":747,"x_min":90,"x_max":733,"o":"m 90 972 l 363 972 q 601 898 515 972 q 686 674 686 824 q 649 517 686 585 q 544 411 613 450 l 733 0 l 558 0 l 394 368 l 368 367 l 244 367 l 244 0 l 90 0 l 90 972 m 349 503 q 482 543 438 503 q 526 669 526 583 q 482 796 526 756 q 349 836 438 836 l 244 836 l 244 503 l 349 503 m 208 1204 l 208 1300 l 375 1210 l 542 1300 l 542 1204 l 375 1086 l 208 1204 z "},"Ŗ":{"ha":747,"x_min":90,"x_max":733,"o":"m 90 972 l 363 972 q 601 898 515 972 q 686 674 686 824 q 649 517 686 585 q 544 411 613 450 l 733 0 l 558 0 l 394 368 l 368 367 l 244 367 l 244 0 l 90 0 l 90 972 m 349 503 q 482 543 438 503 q 526 669 526 583 q 482 796 526 756 q 349 836 438 836 l 244 836 l 244 503 l 349 503 m 324 -407 l 379 -256 l 333 -256 l 333 -126 l 469 -126 l 469 -240 l 386 -407 l 324 -407 z "},"Ȑ":{"ha":747,"x_min":90,"x_max":733,"o":"m 90 972 l 363 972 q 601 898 515 972 q 686 674 686 824 q 649 517 686 585 q 544 411 613 450 l 733 0 l 558 0 l 394 368 l 368 367 l 244 367 l 244 0 l 90 0 l 90 972 m 349 503 q 482 543 438 503 q 526 669 526 583 q 482 796 526 756 q 349 836 438 836 l 244 836 l 244 503 l 349 503 m 226 1094 l 104 1308 l 250 1308 l 325 1094 l 226 1094 m 422 1094 l 310 1308 l 454 1308 l 519 1094 l 422 1094 z "},"Ṛ":{"ha":747,"x_min":90,"x_max":733,"o":"m 90 972 l 363 972 q 601 898 515 972 q 686 674 686 824 q 649 517 686 585 q 544 411 613 450 l 733 0 l 558 0 l 394 368 l 368 367 l 244 367 l 244 0 l 90 0 l 90 972 m 349 503 q 482 543 438 503 q 526 669 526 583 q 482 796 526 756 q 349 836 438 836 l 244 836 l 244 503 l 349 503 m 336 -112 l 467 -112 l 467 -243 l 336 -243 l 336 -112 z "},"Ȓ":{"ha":747,"x_min":90,"x_max":733,"o":"m 90 972 l 363 972 q 601 898 515 972 q 686 674 686 824 q 649 517 686 585 q 544 411 613 450 l 733 0 l 558 0 l 394 368 l 368 367 l 244 367 l 244 0 l 90 0 l 90 972 m 349 503 q 482 543 438 503 q 526 669 526 583 q 482 796 526 756 q 349 836 438 836 l 244 836 l 244 503 l 349 503 m 375 1254 q 518 1204 465 1254 q 571 1083 571 1154 l 456 1083 q 433 1142 456 1121 q 375 1163 411 1163 q 317 1142 339 1163 q 294 1083 294 1121 l 179 1083 q 232 1204 179 1154 q 375 1254 285 1254 z "},"Ṟ":{"ha":747,"x_min":90,"x_max":733,"o":"m 90 972 l 363 972 q 601 898 515 972 q 686 674 686 824 q 649 517 686 585 q 544 411 613 450 l 733 0 l 558 0 l 394 368 l 368 367 l 244 367 l 244 0 l 90 0 l 90 972 m 349 503 q 482 543 438 503 q 526 669 526 583 q 482 796 526 756 q 349 836 438 836 l 244 836 l 244 503 l 349 503 m 203 -129 l 600 -129 l 600 -231 l 203 -231 l 203 -129 z "},"S":{"ha":700,"x_min":53,"x_max":665,"o":"m 331 -19 q 184 -3 258 -19 q 57 39 110 13 l 78 210 q 343 132 213 132 q 458 162 417 132 q 499 249 499 192 q 455 347 499 308 q 299 436 411 386 q 162 511 214 474 q 81 599 110 549 q 53 721 53 649 q 92 862 53 800 q 205 958 132 924 q 376 992 278 992 q 626 936 506 992 l 610 772 q 484 824 543 807 q 365 840 425 840 q 258 813 296 840 q 219 729 219 785 q 242 660 219 688 q 303 611 265 632 q 425 550 340 590 q 608 424 550 490 q 665 257 665 358 q 576 55 665 129 q 331 -19 488 -19 z "},"Ś":{"ha":700,"x_min":53,"x_max":665,"o":"m 331 -19 q 184 -3 258 -19 q 57 39 110 13 l 78 210 q 343 132 213 132 q 458 162 417 132 q 499 249 499 192 q 455 347 499 308 q 299 436 411 386 q 162 511 214 474 q 81 599 110 549 q 53 721 53 649 q 92 862 53 800 q 205 958 132 924 q 376 992 278 992 q 626 936 506 992 l 610 772 q 484 824 543 807 q 365 840 425 840 q 258 813 296 840 q 219 729 219 785 q 242 660 219 688 q 303 611 265 632 q 425 550 340 590 q 608 424 550 490 q 665 257 665 358 q 576 55 665 129 q 331 -19 488 -19 m 265 1147 l 478 1258 l 478 1121 l 265 1057 l 265 1147 z "},"Ṥ":{"ha":700,"x_min":53,"x_max":665,"o":"m 331 -19 q 184 -3 258 -19 q 57 39 110 13 l 78 210 q 343 132 213 132 q 458 162 417 132 q 499 249 499 192 q 455 347 499 308 q 299 436 411 386 q 162 511 214 474 q 81 599 110 549 q 53 721 53 649 q 92 862 53 800 q 205 958 132 924 q 376 992 278 992 q 626 936 506 992 l 610 772 q 484 824 543 807 q 365 840 425 840 q 258 813 296 840 q 219 729 219 785 q 242 660 219 688 q 303 611 265 632 q 425 550 340 590 q 608 424 550 490 q 665 257 665 358 q 576 55 665 129 q 331 -19 488 -19 m 265 1147 l 478 1258 l 478 1121 l 265 1057 l 265 1147 m 303 1456 l 439 1456 l 439 1325 l 303 1325 l 303 1456 z "},"Š":{"ha":700,"x_min":53,"x_max":665,"o":"m 331 -19 q 184 -3 258 -19 q 57 39 110 13 l 78 210 q 343 132 213 132 q 458 162 417 132 q 499 249 499 192 q 455 347 499 308 q 299 436 411 386 q 162 511 214 474 q 81 599 110 549 q 53 721 53 649 q 92 862 53 800 q 205 958 132 924 q 376 992 278 992 q 626 936 506 992 l 610 772 q 484 824 543 807 q 365 840 425 840 q 258 813 296 840 q 219 729 219 785 q 242 660 219 688 q 303 611 265 632 q 425 550 340 590 q 608 424 550 490 q 665 257 665 358 q 576 55 665 129 q 331 -19 488 -19 m 218 1193 l 218 1294 l 371 1199 l 524 1294 l 524 1193 l 371 1064 l 218 1193 z "},"Ṧ":{"ha":700,"x_min":53,"x_max":665,"o":"m 331 -19 q 184 -3 258 -19 q 57 39 110 13 l 78 210 q 343 132 213 132 q 458 162 417 132 q 499 249 499 192 q 455 347 499 308 q 299 436 411 386 q 162 511 214 474 q 81 599 110 549 q 53 721 53 649 q 92 862 53 800 q 205 958 132 924 q 376 992 278 992 q 626 936 506 992 l 610 772 q 484 824 543 807 q 365 840 425 840 q 258 813 296 840 q 219 729 219 785 q 242 660 219 688 q 303 611 265 632 q 425 550 340 590 q 608 424 550 490 q 665 257 665 358 q 576 55 665 129 q 331 -19 488 -19 m 204 1204 l 204 1300 l 371 1210 l 538 1300 l 538 1204 l 371 1086 l 204 1204 m 303 1489 l 439 1489 l 439 1358 l 303 1358 l 303 1489 z "},"Ş":{"ha":700,"x_min":53,"x_max":665,"o":"m 665 257 q 597 74 665 146 q 404 -15 528 3 l 385 -78 q 467 -110 438 -79 q 497 -193 497 -140 q 457 -290 497 -256 q 354 -325 417 -325 q 257 -307 301 -325 l 281 -235 q 351 -250 315 -250 q 399 -236 382 -250 q 417 -196 417 -222 q 401 -156 417 -169 q 357 -142 386 -142 q 303 -151 335 -142 l 335 -19 l 331 -19 q 184 -3 258 -19 q 57 39 110 13 l 78 210 q 343 132 213 132 q 458 162 417 132 q 499 249 499 192 q 455 347 499 308 q 299 436 411 386 q 162 511 214 474 q 81 599 110 549 q 53 721 53 649 q 92 862 53 800 q 205 958 132 924 q 376 992 278 992 q 626 936 506 992 l 610 772 q 484 824 543 807 q 365 840 425 840 q 258 813 296 840 q 219 729 219 785 q 242 660 219 688 q 303 611 265 632 q 425 550 340 590 q 608 424 550 490 q 665 257 665 358 z "},"Ŝ":{"ha":700,"x_min":53,"x_max":665,"o":"m 331 -19 q 184 -3 258 -19 q 57 39 110 13 l 78 210 q 343 132 213 132 q 458 162 417 132 q 499 249 499 192 q 455 347 499 308 q 299 436 411 386 q 162 511 214 474 q 81 599 110 549 q 53 721 53 649 q 92 862 53 800 q 205 958 132 924 q 376 992 278 992 q 626 936 506 992 l 610 772 q 484 824 543 807 q 365 840 425 840 q 258 813 296 840 q 219 729 219 785 q 242 660 219 688 q 303 611 265 632 q 425 550 340 590 q 608 424 550 490 q 665 257 665 358 q 576 55 665 129 q 331 -19 488 -19 m 538 1136 l 538 1040 l 371 1131 l 204 1040 l 204 1136 l 371 1254 l 538 1136 z "},"Ș":{"ha":700,"x_min":53,"x_max":665,"o":"m 331 -19 q 184 -3 258 -19 q 57 39 110 13 l 78 210 q 343 132 213 132 q 458 162 417 132 q 499 249 499 192 q 455 347 499 308 q 299 436 411 386 q 162 511 214 474 q 81 599 110 549 q 53 721 53 649 q 92 862 53 800 q 205 958 132 924 q 376 992 278 992 q 626 936 506 992 l 610 772 q 484 824 543 807 q 365 840 425 840 q 258 813 296 840 q 219 729 219 785 q 242 660 219 688 q 303 611 265 632 q 425 550 340 590 q 608 424 550 490 q 665 257 665 358 q 576 55 665 129 q 331 -19 488 -19 m 282 -407 l 338 -256 l 292 -256 l 292 -126 l 428 -126 l 428 -240 l 344 -407 l 282 -407 z "},"Ṡ":{"ha":700,"x_min":53,"x_max":665,"o":"m 331 -19 q 184 -3 258 -19 q 57 39 110 13 l 78 210 q 343 132 213 132 q 458 162 417 132 q 499 249 499 192 q 455 347 499 308 q 299 436 411 386 q 162 511 214 474 q 81 599 110 549 q 53 721 53 649 q 92 862 53 800 q 205 958 132 924 q 376 992 278 992 q 626 936 506 992 l 610 772 q 484 824 543 807 q 365 840 425 840 q 258 813 296 840 q 219 729 219 785 q 242 660 219 688 q 303 611 265 632 q 425 550 340 590 q 608 424 550 490 q 665 257 665 358 q 576 55 665 129 q 331 -19 488 -19 m 303 1231 l 439 1231 l 439 1100 l 303 1100 l 303 1231 z "},"Ṣ":{"ha":700,"x_min":53,"x_max":665,"o":"m 331 -19 q 184 -3 258 -19 q 57 39 110 13 l 78 210 q 343 132 213 132 q 458 162 417 132 q 499 249 499 192 q 455 347 499 308 q 299 436 411 386 q 162 511 214 474 q 81 599 110 549 q 53 721 53 649 q 92 862 53 800 q 205 958 132 924 q 376 992 278 992 q 626 936 506 992 l 610 772 q 484 824 543 807 q 365 840 425 840 q 258 813 296 840 q 219 729 219 785 q 242 660 219 688 q 303 611 265 632 q 425 550 340 590 q 608 424 550 490 q 665 257 665 358 q 576 55 665 129 q 331 -19 488 -19 m 294 -112 l 425 -112 l 425 -243 l 294 -243 l 294 -112 z "},"Ṩ":{"ha":700,"x_min":53,"x_max":665,"o":"m 331 -19 q 184 -3 258 -19 q 57 39 110 13 l 78 210 q 343 132 213 132 q 458 162 417 132 q 499 249 499 192 q 455 347 499 308 q 299 436 411 386 q 162 511 214 474 q 81 599 110 549 q 53 721 53 649 q 92 862 53 800 q 205 958 132 924 q 376 992 278 992 q 626 936 506 992 l 610 772 q 484 824 543 807 q 365 840 425 840 q 258 813 296 840 q 219 729 219 785 q 242 660 219 688 q 303 611 265 632 q 425 550 340 590 q 608 424 550 490 q 665 257 665 358 q 576 55 665 129 q 331 -19 488 -19 m 303 1231 l 439 1231 l 439 1100 l 303 1100 l 303 1231 m 294 -112 l 425 -112 l 425 -243 l 294 -243 l 294 -112 z "},"ẞ":{"ha":783,"x_min":92,"x_max":735,"o":"m 519 564 q 678 469 622 540 q 735 278 735 399 q 698 114 735 181 q 599 14 661 47 q 461 -19 538 -19 q 333 0 394 -19 l 333 147 q 428 132 378 132 q 528 174 490 132 q 565 288 565 215 q 524 408 565 367 q 404 450 483 450 l 364 450 l 364 576 l 531 833 q 435 850 489 850 q 300 797 349 850 q 251 651 251 744 l 251 0 l 92 0 l 92 649 q 181 904 92 817 q 421 992 269 992 q 664 921 563 992 l 664 794 l 519 564 z "},"Ə":{"ha":822,"x_min":40,"x_max":781,"o":"m 388 992 q 598 927 510 992 q 733 745 686 863 q 781 472 781 628 q 735 215 781 326 q 604 42 689 104 q 404 -19 519 -19 q 210 30 293 -19 q 84 172 128 79 q 40 389 40 264 q 50 510 40 450 l 615 510 q 353 839 601 839 q 231 822 290 839 q 108 772 172 804 l 92 918 q 388 992 229 992 m 404 133 q 542 194 492 133 q 608 367 593 256 l 203 367 q 404 133 203 133 z "},"T":{"ha":661,"x_min":17,"x_max":644,"o":"m 253 831 l 17 831 l 17 972 l 644 972 l 644 831 l 408 831 l 408 0 l 253 0 l 253 831 z "},"Ŧ":{"ha":661,"x_min":17,"x_max":644,"o":"m 408 831 l 408 540 l 583 540 l 583 436 l 408 436 l 408 0 l 253 0 l 253 436 l 78 436 l 78 540 l 253 540 l 253 831 l 17 831 l 17 972 l 644 972 l 644 831 l 408 831 z "},"Ť":{"ha":661,"x_min":17,"x_max":644,"o":"m 253 831 l 17 831 l 17 972 l 644 972 l 644 831 l 408 831 l 408 0 l 253 0 l 253 831 m 178 1193 l 178 1294 l 331 1199 l 483 1294 l 483 1193 l 331 1064 l 178 1193 z "},"Ţ":{"ha":661,"x_min":17,"x_max":644,"o":"m 253 831 l 17 831 l 17 972 l 644 972 l 644 831 l 408 831 l 408 0 l 253 0 l 253 831 m 356 -78 q 438 -110 408 -79 q 468 -193 468 -140 q 428 -290 468 -256 q 325 -325 388 -325 q 228 -307 272 -325 l 251 -235 q 322 -250 286 -250 q 370 -236 353 -250 q 388 -196 388 -222 q 372 -156 388 -169 q 328 -142 357 -142 q 274 -151 306 -142 l 310 0 l 379 0 l 356 -78 z "},"Ț":{"ha":661,"x_min":17,"x_max":644,"o":"m 253 831 l 17 831 l 17 972 l 644 972 l 644 831 l 408 831 l 408 0 l 253 0 l 253 831 m 253 -407 l 308 -256 l 263 -256 l 263 -126 l 399 -126 l 399 -240 l 315 -407 l 253 -407 z "},"Ṭ":{"ha":661,"x_min":17,"x_max":644,"o":"m 253 831 l 17 831 l 17 972 l 644 972 l 644 831 l 408 831 l 408 0 l 253 0 l 253 831 m 265 -112 l 396 -112 l 396 -243 l 265 -243 l 265 -112 z "},"Ṯ":{"ha":661,"x_min":17,"x_max":644,"o":"m 253 831 l 17 831 l 17 972 l 644 972 l 644 831 l 408 831 l 408 0 l 253 0 l 253 831 m 132 -129 l 529 -129 l 529 -231 l 132 -231 l 132 -129 z "},"U":{"ha":860,"x_min":83,"x_max":776,"o":"m 429 -19 q 169 86 256 -19 q 83 379 83 192 l 83 972 l 238 972 l 238 421 q 278 206 238 281 q 429 132 318 132 q 583 206 543 132 q 622 421 622 281 l 622 972 l 776 972 l 776 379 q 690 85 776 190 q 429 -19 603 -19 z "},"Ú":{"ha":860,"x_min":83,"x_max":776,"o":"m 429 -19 q 169 86 256 -19 q 83 379 83 192 l 83 972 l 238 972 l 238 421 q 278 206 238 281 q 429 132 318 132 q 583 206 543 132 q 622 421 622 281 l 622 972 l 776 972 l 776 379 q 690 85 776 190 q 429 -19 603 -19 m 325 1190 l 538 1322 l 538 1171 l 325 1089 l 325 1190 z "},"Ŭ":{"ha":860,"x_min":83,"x_max":776,"o":"m 429 -19 q 169 86 256 -19 q 83 379 83 192 l 83 972 l 238 972 l 238 421 q 278 206 238 281 q 429 132 318 132 q 583 206 543 132 q 622 421 622 281 l 622 972 l 776 972 l 776 379 q 690 85 776 190 q 429 -19 603 -19 m 431 1063 q 288 1112 340 1063 q 235 1233 235 1161 l 350 1233 q 372 1174 350 1194 q 431 1154 394 1154 q 489 1174 467 1154 q 511 1233 511 1194 l 626 1233 q 574 1112 626 1161 q 431 1063 522 1063 z "},"Û":{"ha":860,"x_min":83,"x_max":776,"o":"m 429 -19 q 169 86 256 -19 q 83 379 83 192 l 83 972 l 238 972 l 238 421 q 278 206 238 281 q 429 132 318 132 q 583 206 543 132 q 622 421 622 281 l 622 972 l 776 972 l 776 379 q 690 85 776 190 q 429 -19 603 -19 m 278 1167 l 431 1297 l 583 1167 l 583 1067 l 431 1163 l 278 1067 l 278 1167 z "},"Ȕ":{"ha":860,"x_min":83,"x_max":776,"o":"m 429 -19 q 169 86 256 -19 q 83 379 83 192 l 83 972 l 238 972 l 238 421 q 278 206 238 281 q 429 132 318 132 q 583 206 543 132 q 622 421 622 281 l 622 972 l 776 972 l 776 379 q 690 85 776 190 q 429 -19 603 -19 m 297 1094 l 168 1336 l 314 1336 l 396 1094 l 297 1094 m 494 1094 l 375 1336 l 517 1336 l 588 1094 l 494 1094 z "},"Ü":{"ha":860,"x_min":83,"x_max":776,"o":"m 429 -19 q 169 86 256 -19 q 83 379 83 192 l 83 972 l 238 972 l 238 421 q 278 206 238 281 q 429 132 318 132 q 583 206 543 132 q 622 421 622 281 l 622 972 l 776 972 l 776 379 q 690 85 776 190 q 429 -19 603 -19 m 257 1224 l 379 1224 l 379 1104 l 257 1104 l 257 1224 m 482 1224 l 604 1224 l 604 1104 l 482 1104 l 482 1224 z "},"Ụ":{"ha":860,"x_min":83,"x_max":776,"o":"m 429 -19 q 169 86 256 -19 q 83 379 83 192 l 83 972 l 238 972 l 238 421 q 278 206 238 281 q 429 132 318 132 q 583 206 543 132 q 622 421 622 281 l 622 972 l 776 972 l 776 379 q 690 85 776 190 q 429 -19 603 -19 m 365 -112 l 496 -112 l 496 -243 l 365 -243 l 365 -112 z "},"Ù":{"ha":860,"x_min":83,"x_max":776,"o":"m 429 -19 q 169 86 256 -19 q 83 379 83 192 l 83 972 l 238 972 l 238 421 q 278 206 238 281 q 429 132 318 132 q 583 206 543 132 q 622 421 622 281 l 622 972 l 776 972 l 776 379 q 690 85 776 190 q 429 -19 603 -19 m 324 1172 l 324 1328 l 536 1193 l 536 1088 l 324 1172 z "},"Ủ":{"ha":860,"x_min":83,"x_max":776,"o":"m 429 -19 q 169 86 256 -19 q 83 379 83 192 l 83 972 l 238 972 l 238 421 q 278 206 238 281 q 429 132 318 132 q 583 206 543 132 q 622 421 622 281 l 622 972 l 776 972 l 776 379 q 690 85 776 190 q 429 -19 603 -19 m 403 1069 q 442 1117 431 1099 q 453 1160 453 1136 q 404 1206 453 1206 q 336 1183 372 1206 l 313 1261 q 411 1282 361 1282 q 499 1251 464 1282 q 533 1165 533 1219 q 515 1090 533 1122 q 453 1021 496 1058 l 403 1069 z "},"Ư":{"ha":860,"x_min":83,"x_max":903,"o":"m 903 1075 q 869 956 903 1004 q 776 885 835 908 l 776 379 q 690 85 776 190 q 429 -19 603 -19 q 169 86 256 -19 q 83 379 83 192 l 83 972 l 238 972 l 238 421 q 278 206 238 281 q 429 132 318 132 q 583 206 543 132 q 622 421 622 281 l 622 972 l 674 972 q 772 1075 772 972 l 903 1075 z "},"Ứ":{"ha":860,"x_min":83,"x_max":903,"o":"m 903 1075 q 869 956 903 1004 q 776 885 835 908 l 776 379 q 690 85 776 190 q 429 -19 603 -19 q 169 86 256 -19 q 83 379 83 192 l 83 972 l 238 972 l 238 421 q 278 206 238 281 q 429 132 318 132 q 583 206 543 132 q 622 421 622 281 l 622 972 l 674 972 q 772 1075 772 972 l 903 1075 m 325 1190 l 538 1322 l 538 1171 l 325 1089 l 325 1190 z "},"Ự":{"ha":860,"x_min":83,"x_max":903,"o":"m 903 1075 q 869 956 903 1004 q 776 885 835 908 l 776 379 q 690 85 776 190 q 429 -19 603 -19 q 169 86 256 -19 q 83 379 83 192 l 83 972 l 238 972 l 238 421 q 278 206 238 281 q 429 132 318 132 q 583 206 543 132 q 622 421 622 281 l 622 972 l 674 972 q 772 1075 772 972 l 903 1075 m 365 -112 l 496 -112 l 496 -243 l 365 -243 l 365 -112 z "},"Ừ":{"ha":860,"x_min":83,"x_max":903,"o":"m 903 1075 q 869 956 903 1004 q 776 885 835 908 l 776 379 q 690 85 776 190 q 429 -19 603 -19 q 169 86 256 -19 q 83 379 83 192 l 83 972 l 238 972 l 238 421 q 278 206 238 281 q 429 132 318 132 q 583 206 543 132 q 622 421 622 281 l 622 972 l 674 972 q 772 1075 772 972 l 903 1075 m 324 1172 l 324 1328 l 536 1193 l 536 1088 l 324 1172 z "},"Ử":{"ha":860,"x_min":83,"x_max":903,"o":"m 903 1075 q 869 956 903 1004 q 776 885 835 908 l 776 379 q 690 85 776 190 q 429 -19 603 -19 q 169 86 256 -19 q 83 379 83 192 l 83 972 l 238 972 l 238 421 q 278 206 238 281 q 429 132 318 132 q 583 206 543 132 q 622 421 622 281 l 622 972 l 674 972 q 772 1075 772 972 l 903 1075 m 403 1069 q 442 1117 431 1099 q 453 1160 453 1136 q 404 1206 453 1206 q 336 1183 372 1206 l 313 1261 q 411 1282 361 1282 q 499 1251 464 1282 q 533 1165 533 1219 q 515 1090 533 1122 q 453 1021 496 1058 l 403 1069 z "},"Ữ":{"ha":860,"x_min":83,"x_max":903,"o":"m 903 1075 q 869 956 903 1004 q 776 885 835 908 l 776 379 q 690 85 776 190 q 429 -19 603 -19 q 169 86 256 -19 q 83 379 83 192 l 83 972 l 238 972 l 238 421 q 278 206 238 281 q 429 132 318 132 q 583 206 543 132 q 622 421 622 281 l 622 972 l 674 972 q 772 1075 772 972 l 903 1075 m 526 1088 q 481 1097 500 1088 q 432 1124 461 1106 q 399 1144 413 1138 q 369 1150 385 1150 q 342 1136 351 1150 q 332 1099 332 1122 l 224 1099 q 255 1219 226 1178 q 335 1261 283 1261 q 381 1252 361 1261 q 429 1225 400 1243 q 463 1205 449 1211 q 492 1199 476 1199 q 519 1213 510 1199 q 529 1250 529 1226 l 638 1250 q 606 1129 635 1171 q 526 1088 578 1088 z "},"Ű":{"ha":860,"x_min":83,"x_max":776,"o":"m 429 -19 q 169 86 256 -19 q 83 379 83 192 l 83 972 l 238 972 l 238 421 q 278 206 238 281 q 429 132 318 132 q 583 206 543 132 q 622 421 622 281 l 622 972 l 776 972 l 776 379 q 690 85 776 190 q 429 -19 603 -19 m 357 1308 l 503 1308 l 378 1094 l 279 1094 l 357 1308 m 563 1308 l 708 1308 l 572 1094 l 475 1094 l 563 1308 z "},"Ȗ":{"ha":860,"x_min":83,"x_max":776,"o":"m 429 -19 q 169 86 256 -19 q 83 379 83 192 l 83 972 l 238 972 l 238 421 q 278 206 238 281 q 429 132 318 132 q 583 206 543 132 q 622 421 622 281 l 622 972 l 776 972 l 776 379 q 690 85 776 190 q 429 -19 603 -19 m 431 1254 q 574 1204 521 1254 q 626 1083 626 1154 l 511 1083 q 489 1142 511 1121 q 431 1163 467 1163 q 372 1142 394 1163 q 350 1083 350 1121 l 235 1083 q 288 1204 235 1154 q 431 1254 340 1254 z "},"Ū":{"ha":860,"x_min":83,"x_max":776,"o":"m 429 -19 q 169 86 256 -19 q 83 379 83 192 l 83 972 l 238 972 l 238 421 q 278 206 238 281 q 429 132 318 132 q 583 206 543 132 q 622 421 622 281 l 622 972 l 776 972 l 776 379 q 690 85 776 190 q 429 -19 603 -19 m 218 1199 l 643 1199 l 643 1101 l 218 1101 l 218 1199 z "},"Ṻ":{"ha":860,"x_min":83,"x_max":776,"o":"m 429 -19 q 169 86 256 -19 q 83 379 83 192 l 83 972 l 238 972 l 238 421 q 278 206 238 281 q 429 132 318 132 q 583 206 543 132 q 622 421 622 281 l 622 972 l 776 972 l 776 379 q 690 85 776 190 q 429 -19 603 -19 m 218 1199 l 643 1199 l 643 1101 l 218 1101 l 218 1199 m 257 1438 l 381 1438 l 381 1324 l 257 1324 l 257 1438 m 481 1438 l 604 1438 l 604 1324 l 481 1324 l 481 1438 z "},"Ų":{"ha":860,"x_min":83,"x_max":776,"o":"m 776 972 l 776 379 q 717 124 776 224 q 538 -7 658 24 q 472 -81 494 -47 q 450 -149 450 -115 q 468 -197 450 -181 q 517 -212 486 -212 q 583 -197 543 -212 l 606 -269 q 503 -292 561 -292 q 403 -260 442 -292 q 364 -174 364 -229 q 443 -19 364 -99 l 429 -19 q 169 86 256 -19 q 83 379 83 192 l 83 972 l 238 972 l 238 421 q 278 206 238 281 q 429 132 318 132 q 583 206 543 132 q 622 421 622 281 l 622 972 l 776 972 z "},"Ů":{"ha":860,"x_min":83,"x_max":776,"o":"m 429 -19 q 169 86 256 -19 q 83 379 83 192 l 83 972 l 238 972 l 238 421 q 278 206 238 281 q 429 132 318 132 q 583 206 543 132 q 622 421 622 281 l 622 972 l 776 972 l 776 379 q 690 85 776 190 q 429 -19 603 -19 m 431 1049 q 335 1088 371 1049 q 300 1183 300 1126 q 335 1280 300 1240 q 431 1319 371 1319 q 526 1280 490 1319 q 561 1183 561 1240 q 526 1088 561 1126 q 431 1049 490 1049 m 431 1117 q 471 1135 456 1117 q 486 1183 486 1153 q 471 1233 486 1214 q 431 1251 456 1251 q 390 1233 406 1251 q 375 1183 375 1214 q 390 1135 375 1153 q 431 1117 406 1117 z "},"Ũ":{"ha":860,"x_min":83,"x_max":776,"o":"m 429 -19 q 169 86 256 -19 q 83 379 83 192 l 83 972 l 238 972 l 238 421 q 278 206 238 281 q 429 132 318 132 q 583 206 543 132 q 622 421 622 281 l 622 972 l 776 972 l 776 379 q 690 85 776 190 q 429 -19 603 -19 m 526 1088 q 481 1097 500 1088 q 432 1124 461 1106 q 399 1144 413 1138 q 369 1150 385 1150 q 342 1136 351 1150 q 332 1099 332 1122 l 224 1099 q 255 1219 226 1178 q 335 1261 283 1261 q 381 1252 361 1261 q 429 1225 400 1243 q 463 1205 449 1211 q 492 1199 476 1199 q 519 1213 510 1199 q 529 1250 529 1226 l 638 1250 q 606 1129 635 1171 q 526 1088 578 1088 z "},"Ṹ":{"ha":860,"x_min":83,"x_max":776,"o":"m 429 -19 q 169 86 256 -19 q 83 379 83 192 l 83 972 l 238 972 l 238 421 q 278 206 238 281 q 429 132 318 132 q 583 206 543 132 q 622 421 622 281 l 622 972 l 776 972 l 776 379 q 690 85 776 190 q 429 -19 603 -19 m 535 1085 q 488 1093 511 1085 q 436 1115 465 1101 q 398 1132 417 1125 q 364 1139 379 1139 q 324 1094 324 1139 l 224 1094 q 249 1201 224 1164 q 326 1238 275 1238 q 373 1229 350 1238 q 425 1207 396 1221 q 463 1190 444 1197 q 497 1183 482 1183 q 538 1229 538 1183 l 638 1229 q 612 1122 638 1158 q 535 1085 586 1085 m 325 1382 l 538 1493 l 538 1356 l 325 1292 l 325 1382 z "},"V":{"ha":794,"x_min":3,"x_max":793,"o":"m 3 972 l 160 972 l 397 196 l 635 972 l 793 972 l 488 0 l 307 0 l 3 972 z "},"W":{"ha":1135,"x_min":3,"x_max":1133,"o":"m 3 972 l 160 972 l 314 226 l 483 954 l 651 954 l 822 226 l 975 972 l 1133 972 l 908 0 l 740 0 l 567 725 l 394 0 l 226 0 l 3 972 z "},"Ẃ":{"ha":1135,"x_min":3,"x_max":1133,"o":"m 3 972 l 160 972 l 314 226 l 483 954 l 651 954 l 822 226 l 975 972 l 1133 972 l 908 0 l 740 0 l 567 725 l 394 0 l 226 0 l 3 972 m 463 1147 l 675 1258 l 675 1121 l 463 1057 l 463 1147 z "},"Ŵ":{"ha":1135,"x_min":3,"x_max":1133,"o":"m 3 972 l 160 972 l 314 226 l 483 954 l 651 954 l 822 226 l 975 972 l 1133 972 l 908 0 l 740 0 l 567 725 l 394 0 l 226 0 l 3 972 m 735 1136 l 735 1040 l 568 1131 l 401 1040 l 401 1136 l 568 1254 l 735 1136 z "},"Ẅ":{"ha":1135,"x_min":3,"x_max":1133,"o":"m 3 972 l 160 972 l 314 226 l 483 954 l 651 954 l 822 226 l 975 972 l 1133 972 l 908 0 l 740 0 l 567 725 l 394 0 l 226 0 l 3 972 m 394 1207 l 518 1207 l 518 1093 l 394 1093 l 394 1207 m 618 1207 l 742 1207 l 742 1093 l 618 1093 l 618 1207 z "},"Ẁ":{"ha":1135,"x_min":3,"x_max":1133,"o":"m 3 972 l 160 972 l 314 226 l 483 954 l 651 954 l 822 226 l 975 972 l 1133 972 l 908 0 l 740 0 l 567 725 l 394 0 l 226 0 l 3 972 m 461 1119 l 461 1258 l 674 1147 l 674 1057 l 461 1119 z "},"X":{"ha":761,"x_min":3,"x_max":758,"o":"m 299 494 l 13 972 l 179 972 l 381 633 l 581 972 l 747 972 l 463 494 l 758 0 l 592 0 l 381 357 l 168 0 l 3 0 l 299 494 z "},"Y":{"ha":725,"x_min":-7,"x_max":726,"o":"m 726 972 l 436 426 l 436 0 l 283 0 l 283 426 l -7 972 l 158 972 l 361 575 l 560 972 l 726 972 z "},"Ý":{"ha":725,"x_min":-7,"x_max":726,"o":"m 726 972 l 436 426 l 436 0 l 283 0 l 283 426 l -7 972 l 158 972 l 361 575 l 560 972 l 726 972 m 254 1190 l 467 1322 l 467 1171 l 254 1089 l 254 1190 z "},"Ŷ":{"ha":725,"x_min":-7,"x_max":726,"o":"m 726 972 l 436 426 l 436 0 l 283 0 l 283 426 l -7 972 l 158 972 l 361 575 l 560 972 l 726 972 m 526 1136 l 526 1040 l 360 1131 l 193 1040 l 193 1136 l 360 1254 l 526 1136 z "},"Ÿ":{"ha":725,"x_min":-7,"x_max":726,"o":"m 726 972 l 436 426 l 436 0 l 283 0 l 283 426 l -7 972 l 158 972 l 361 575 l 560 972 l 726 972 m 186 1224 l 308 1224 l 308 1104 l 186 1104 l 186 1224 m 411 1224 l 533 1224 l 533 1104 l 411 1104 l 411 1224 z "},"Ẏ":{"ha":725,"x_min":-7,"x_max":726,"o":"m 726 972 l 436 426 l 436 0 l 283 0 l 283 426 l -7 972 l 158 972 l 361 575 l 560 972 l 726 972 m 292 1231 l 428 1231 l 428 1100 l 292 1100 l 292 1231 z "},"Ỵ":{"ha":725,"x_min":-7,"x_max":726,"o":"m 726 972 l 436 426 l 436 0 l 283 0 l 283 426 l -7 972 l 158 972 l 361 575 l 560 972 l 726 972 m 294 -112 l 425 -112 l 425 -243 l 294 -243 l 294 -112 z "},"Ỳ":{"ha":725,"x_min":-7,"x_max":726,"o":"m 726 972 l 436 426 l 436 0 l 283 0 l 283 426 l -7 972 l 158 972 l 361 575 l 560 972 l 726 972 m 253 1172 l 253 1328 l 465 1193 l 465 1088 l 253 1172 z "},"Ỷ":{"ha":725,"x_min":-7,"x_max":726,"o":"m 726 972 l 436 426 l 436 0 l 283 0 l 283 426 l -7 972 l 158 972 l 361 575 l 560 972 l 726 972 m 332 1069 q 371 1117 360 1099 q 382 1160 382 1136 q 333 1206 382 1206 q 265 1183 301 1206 l 242 1261 q 340 1282 290 1282 q 428 1251 393 1282 q 463 1165 463 1219 q 444 1090 463 1122 q 382 1021 425 1058 l 332 1069 z "},"Ȳ":{"ha":725,"x_min":-7,"x_max":726,"o":"m 726 972 l 436 426 l 436 0 l 283 0 l 283 426 l -7 972 l 158 972 l 361 575 l 560 972 l 726 972 m 147 1199 l 572 1199 l 572 1101 l 147 1101 l 147 1199 z "},"Ỹ":{"ha":725,"x_min":-7,"x_max":726,"o":"m 726 972 l 436 426 l 436 0 l 283 0 l 283 426 l -7 972 l 158 972 l 361 575 l 560 972 l 726 972 m 456 1088 q 410 1097 429 1088 q 361 1124 390 1106 q 328 1144 342 1138 q 299 1150 314 1150 q 271 1136 281 1150 q 261 1099 261 1122 l 153 1099 q 184 1219 156 1178 q 264 1261 213 1261 q 310 1252 290 1261 q 358 1225 329 1243 q 392 1205 378 1211 q 421 1199 406 1199 q 449 1213 439 1199 q 458 1250 458 1226 l 567 1250 q 535 1129 564 1171 q 456 1088 507 1088 z "},"Z":{"ha":664,"x_min":10,"x_max":651,"o":"m 651 143 l 651 0 l 10 0 l 418 829 l 65 829 l 65 972 l 646 972 l 240 143 l 651 143 z "},"Ź":{"ha":664,"x_min":10,"x_max":651,"o":"m 651 143 l 651 0 l 10 0 l 418 829 l 65 829 l 65 972 l 646 972 l 240 143 l 651 143 m 250 1147 l 463 1258 l 463 1121 l 250 1057 l 250 1147 z "},"Ž":{"ha":664,"x_min":10,"x_max":651,"o":"m 651 143 l 651 0 l 10 0 l 418 829 l 65 829 l 65 972 l 646 972 l 240 143 l 651 143 m 203 1193 l 203 1294 l 356 1199 l 508 1294 l 508 1193 l 356 1064 l 203 1193 z "},"Ż":{"ha":664,"x_min":10,"x_max":651,"o":"m 651 143 l 651 0 l 10 0 l 418 829 l 65 829 l 65 972 l 646 972 l 240 143 l 651 143 m 288 1231 l 424 1231 l 424 1100 l 288 1100 l 288 1231 z "},"Ẓ":{"ha":664,"x_min":10,"x_max":651,"o":"m 651 143 l 651 0 l 10 0 l 418 829 l 65 829 l 65 972 l 646 972 l 240 143 l 651 143 m 265 -112 l 396 -112 l 396 -243 l 265 -243 l 265 -112 z "},"a":{"ha":593,"x_min":22,"x_max":581,"o":"m 206 -14 q 75 39 128 -14 q 22 181 22 92 q 78 331 22 274 q 211 411 135 388 q 357 438 288 435 q 333 537 357 507 q 253 567 310 567 q 172 553 211 567 q 86 511 133 539 l 74 638 q 290 701 178 701 q 510 442 510 701 l 510 235 q 514 157 510 182 q 528 122 518 132 q 561 113 539 113 l 581 113 l 568 -14 l 511 -14 q 430 9 464 -14 q 378 74 396 32 q 300 8 342 31 q 206 -14 258 -14 m 254 107 q 358 172 313 107 l 358 332 q 181 194 181 314 q 254 107 181 107 z "},"á":{"ha":593,"x_min":22,"x_max":581,"o":"m 206 -14 q 75 39 128 -14 q 22 181 22 92 q 78 331 22 274 q 211 411 135 388 q 357 438 288 435 q 333 537 357 507 q 253 567 310 567 q 172 553 211 567 q 86 511 133 539 l 74 638 q 290 701 178 701 q 510 442 510 701 l 510 235 q 514 157 510 182 q 528 122 518 132 q 561 113 539 113 l 581 113 l 568 -14 l 511 -14 q 430 9 464 -14 q 378 74 396 32 q 300 8 342 31 q 206 -14 258 -14 m 254 107 q 358 172 313 107 l 358 332 q 181 194 181 314 q 254 107 181 107 m 192 907 l 404 1039 l 404 888 l 192 806 l 192 907 z "},"ă":{"ha":593,"x_min":22,"x_max":581,"o":"m 206 -14 q 75 39 128 -14 q 22 181 22 92 q 78 331 22 274 q 211 411 135 388 q 357 438 288 435 q 333 537 357 507 q 253 567 310 567 q 172 553 211 567 q 86 511 133 539 l 74 638 q 290 701 178 701 q 510 442 510 701 l 510 235 q 514 157 510 182 q 528 122 518 132 q 561 113 539 113 l 581 113 l 568 -14 l 511 -14 q 430 9 464 -14 q 378 74 396 32 q 300 8 342 31 q 206 -14 258 -14 m 254 107 q 358 172 313 107 l 358 332 q 181 194 181 314 q 254 107 181 107 m 297 810 q 157 861 208 810 q 106 988 106 913 l 217 988 q 238 928 217 950 q 297 907 258 907 q 357 928 336 907 q 378 988 378 950 l 489 988 q 438 861 489 913 q 297 810 386 810 z "},"ắ":{"ha":593,"x_min":22,"x_max":581,"o":"m 206 -14 q 75 39 128 -14 q 22 181 22 92 q 78 331 22 274 q 211 411 135 388 q 357 438 288 435 q 333 537 357 507 q 253 567 310 567 q 172 553 211 567 q 86 511 133 539 l 74 638 q 290 701 178 701 q 510 442 510 701 l 510 235 q 514 157 510 182 q 528 122 518 132 q 561 113 539 113 l 581 113 l 568 -14 l 511 -14 q 430 9 464 -14 q 378 74 396 32 q 300 8 342 31 q 206 -14 258 -14 m 254 107 q 358 172 313 107 l 358 332 q 181 194 181 314 q 254 107 181 107 m 297 779 q 154 828 207 779 q 101 950 101 878 l 217 950 q 239 891 217 911 q 297 871 261 871 q 356 891 333 871 q 378 950 378 911 l 493 950 q 441 828 493 878 q 297 779 389 779 m 192 1103 l 404 1214 l 404 1076 l 192 1013 l 192 1103 z "},"ặ":{"ha":593,"x_min":22,"x_max":581,"o":"m 206 -14 q 75 39 128 -14 q 22 181 22 92 q 78 331 22 274 q 211 411 135 388 q 357 438 288 435 q 333 537 357 507 q 253 567 310 567 q 172 553 211 567 q 86 511 133 539 l 74 638 q 290 701 178 701 q 510 442 510 701 l 510 235 q 514 157 510 182 q 528 122 518 132 q 561 113 539 113 l 581 113 l 568 -14 l 511 -14 q 430 9 464 -14 q 378 74 396 32 q 300 8 342 31 q 206 -14 258 -14 m 254 107 q 358 172 313 107 l 358 332 q 181 194 181 314 q 254 107 181 107 m 297 810 q 157 861 208 810 q 106 988 106 913 l 217 988 q 238 928 217 950 q 297 907 258 907 q 357 928 336 907 q 378 988 378 950 l 489 988 q 438 861 489 913 q 297 810 386 810 m 232 -112 l 363 -112 l 363 -243 l 232 -243 l 232 -112 z "},"ằ":{"ha":593,"x_min":22,"x_max":581,"o":"m 206 -14 q 75 39 128 -14 q 22 181 22 92 q 78 331 22 274 q 211 411 135 388 q 357 438 288 435 q 333 537 357 507 q 253 567 310 567 q 172 553 211 567 q 86 511 133 539 l 74 638 q 290 701 178 701 q 510 442 510 701 l 510 235 q 514 157 510 182 q 528 122 518 132 q 561 113 539 113 l 581 113 l 568 -14 l 511 -14 q 430 9 464 -14 q 378 74 396 32 q 300 8 342 31 q 206 -14 258 -14 m 254 107 q 358 172 313 107 l 358 332 q 181 194 181 314 q 254 107 181 107 m 297 778 q 154 827 207 778 q 101 949 101 876 l 217 949 q 239 890 217 910 q 297 869 261 869 q 356 890 333 869 q 378 949 378 910 l 493 949 q 441 827 493 876 q 297 778 389 778 m 190 1074 l 190 1213 l 403 1101 l 403 1011 l 190 1074 z "},"ẳ":{"ha":593,"x_min":22,"x_max":581,"o":"m 206 -14 q 75 39 128 -14 q 22 181 22 92 q 78 331 22 274 q 211 411 135 388 q 357 438 288 435 q 333 537 357 507 q 253 567 310 567 q 172 553 211 567 q 86 511 133 539 l 74 638 q 290 701 178 701 q 510 442 510 701 l 510 235 q 514 157 510 182 q 528 122 518 132 q 561 113 539 113 l 581 113 l 568 -14 l 511 -14 q 430 9 464 -14 q 378 74 396 32 q 300 8 342 31 q 206 -14 258 -14 m 254 107 q 358 172 313 107 l 358 332 q 181 194 181 314 q 254 107 181 107 m 297 779 q 154 828 207 779 q 101 950 101 878 l 217 950 q 239 891 217 911 q 297 871 261 871 q 356 891 333 871 q 378 950 378 911 l 493 950 q 441 828 493 878 q 297 779 389 779 m 292 1029 q 322 1049 313 1038 q 332 1079 332 1060 q 285 1119 332 1119 q 217 1100 256 1119 l 193 1179 q 294 1200 244 1200 q 383 1172 349 1200 q 418 1093 418 1143 q 391 1019 418 1049 q 310 971 364 990 l 292 1029 z "},"ẵ":{"ha":593,"x_min":22,"x_max":581,"o":"m 206 -14 q 75 39 128 -14 q 22 181 22 92 q 78 331 22 274 q 211 411 135 388 q 357 438 288 435 q 333 537 357 507 q 253 567 310 567 q 172 553 211 567 q 86 511 133 539 l 74 638 q 290 701 178 701 q 510 442 510 701 l 510 235 q 514 157 510 182 q 528 122 518 132 q 561 113 539 113 l 581 113 l 568 -14 l 511 -14 q 430 9 464 -14 q 378 74 396 32 q 300 8 342 31 q 206 -14 258 -14 m 254 107 q 358 172 313 107 l 358 332 q 181 194 181 314 q 254 107 181 107 m 297 779 q 154 828 207 779 q 101 950 101 878 l 217 950 q 239 891 217 911 q 297 871 261 871 q 356 891 333 871 q 378 950 378 911 l 493 950 q 441 828 493 878 q 297 779 389 779 m 401 1017 q 355 1025 378 1017 q 303 1047 332 1033 q 265 1064 283 1057 q 231 1071 246 1071 q 190 1026 190 1071 l 90 1026 q 116 1133 90 1096 q 193 1169 142 1169 q 240 1161 217 1169 q 292 1139 263 1153 q 330 1122 311 1129 q 364 1115 349 1115 q 404 1161 404 1115 l 504 1161 q 478 1053 504 1090 q 401 1017 453 1017 z "},"â":{"ha":593,"x_min":22,"x_max":581,"o":"m 206 -14 q 75 39 128 -14 q 22 181 22 92 q 78 331 22 274 q 211 411 135 388 q 357 438 288 435 q 333 537 357 507 q 253 567 310 567 q 172 553 211 567 q 86 511 133 539 l 74 638 q 290 701 178 701 q 510 442 510 701 l 510 235 q 514 157 510 182 q 528 122 518 132 q 561 113 539 113 l 581 113 l 568 -14 l 511 -14 q 430 9 464 -14 q 378 74 396 32 q 300 8 342 31 q 206 -14 258 -14 m 254 107 q 358 172 313 107 l 358 332 q 181 194 181 314 q 254 107 181 107 m 144 883 l 297 1014 l 450 883 l 450 783 l 297 879 l 144 783 l 144 883 z "},"ấ":{"ha":593,"x_min":22,"x_max":618,"o":"m 206 -14 q 75 39 128 -14 q 22 181 22 92 q 78 331 22 274 q 211 411 135 388 q 357 438 288 435 q 333 537 357 507 q 253 567 310 567 q 172 553 211 567 q 86 511 133 539 l 74 638 q 290 701 178 701 q 510 442 510 701 l 510 235 q 514 157 510 182 q 528 122 518 132 q 561 113 539 113 l 581 113 l 568 -14 l 511 -14 q 430 9 464 -14 q 378 74 396 32 q 300 8 342 31 q 206 -14 258 -14 m 254 107 q 358 172 313 107 l 358 332 q 181 194 181 314 q 254 107 181 107 m 472 1133 l 618 1133 l 493 963 l 394 963 l 472 1133 m 464 861 l 464 765 l 297 856 l 131 765 l 131 861 l 297 979 l 464 861 z "},"ậ":{"ha":593,"x_min":22,"x_max":581,"o":"m 206 -14 q 75 39 128 -14 q 22 181 22 92 q 78 331 22 274 q 211 411 135 388 q 357 438 288 435 q 333 537 357 507 q 253 567 310 567 q 172 553 211 567 q 86 511 133 539 l 74 638 q 290 701 178 701 q 510 442 510 701 l 510 235 q 514 157 510 182 q 528 122 518 132 q 561 113 539 113 l 581 113 l 568 -14 l 511 -14 q 430 9 464 -14 q 378 74 396 32 q 300 8 342 31 q 206 -14 258 -14 m 254 107 q 358 172 313 107 l 358 332 q 181 194 181 314 q 254 107 181 107 m 144 883 l 297 1014 l 450 883 l 450 783 l 297 879 l 144 783 l 144 883 m 232 -112 l 363 -112 l 363 -243 l 232 -243 l 232 -112 z "},"ầ":{"ha":593,"x_min":22,"x_max":581,"o":"m 206 -14 q 75 39 128 -14 q 22 181 22 92 q 78 331 22 274 q 211 411 135 388 q 357 438 288 435 q 333 537 357 507 q 253 567 310 567 q 172 553 211 567 q 86 511 133 539 l 74 638 q 290 701 178 701 q 510 442 510 701 l 510 235 q 514 157 510 182 q 528 122 518 132 q 561 113 539 113 l 581 113 l 568 -14 l 511 -14 q 430 9 464 -14 q 378 74 396 32 q 300 8 342 31 q 206 -14 258 -14 m 254 107 q 358 172 313 107 l 358 332 q 181 194 181 314 q 254 107 181 107 m 429 963 l 326 1133 l 464 1133 l 522 963 l 429 963 m 464 861 l 464 765 l 297 856 l 131 765 l 131 861 l 297 979 l 464 861 z "},"ẩ":{"ha":593,"x_min":22,"x_max":581,"o":"m 206 -14 q 75 39 128 -14 q 22 181 22 92 q 78 331 22 274 q 211 411 135 388 q 357 438 288 435 q 333 537 357 507 q 253 567 310 567 q 172 553 211 567 q 86 511 133 539 l 74 638 q 290 701 178 701 q 510 442 510 701 l 510 235 q 514 157 510 182 q 528 122 518 132 q 561 113 539 113 l 581 113 l 568 -14 l 511 -14 q 430 9 464 -14 q 378 74 396 32 q 300 8 342 31 q 206 -14 258 -14 m 254 107 q 358 172 313 107 l 358 332 q 181 194 181 314 q 254 107 181 107 m 464 851 l 464 756 l 297 846 l 131 756 l 131 851 l 297 969 l 464 851 m 417 986 q 447 1006 438 994 q 457 1036 457 1017 q 410 1076 457 1076 q 342 1057 381 1076 l 318 1136 q 419 1157 369 1157 q 508 1128 474 1157 q 543 1050 543 1100 q 516 976 543 1006 q 435 928 489 947 l 417 986 z "},"ẫ":{"ha":593,"x_min":22,"x_max":581,"o":"m 206 -14 q 75 39 128 -14 q 22 181 22 92 q 78 331 22 274 q 211 411 135 388 q 357 438 288 435 q 333 537 357 507 q 253 567 310 567 q 172 553 211 567 q 86 511 133 539 l 74 638 q 290 701 178 701 q 510 442 510 701 l 510 235 q 514 157 510 182 q 528 122 518 132 q 561 113 539 113 l 581 113 l 568 -14 l 511 -14 q 430 9 464 -14 q 378 74 396 32 q 300 8 342 31 q 206 -14 258 -14 m 254 107 q 358 172 313 107 l 358 332 q 181 194 181 314 q 254 107 181 107 m 464 851 l 464 756 l 297 846 l 131 756 l 131 851 l 297 969 l 464 851 m 401 1022 q 355 1031 378 1022 q 303 1053 332 1039 q 265 1069 283 1063 q 231 1076 246 1076 q 190 1032 190 1076 l 90 1032 q 116 1138 90 1101 q 193 1175 142 1175 q 240 1167 217 1175 q 292 1144 263 1158 q 330 1128 311 1135 q 364 1121 349 1121 q 404 1167 404 1121 l 504 1167 q 478 1059 504 1096 q 401 1022 453 1022 z "},"ȁ":{"ha":593,"x_min":22,"x_max":581,"o":"m 206 -14 q 75 39 128 -14 q 22 181 22 92 q 78 331 22 274 q 211 411 135 388 q 357 438 288 435 q 333 537 357 507 q 253 567 310 567 q 172 553 211 567 q 86 511 133 539 l 74 638 q 290 701 178 701 q 510 442 510 701 l 510 235 q 514 157 510 182 q 528 122 518 132 q 561 113 539 113 l 581 113 l 568 -14 l 511 -14 q 430 9 464 -14 q 378 74 396 32 q 300 8 342 31 q 206 -14 258 -14 m 254 107 q 358 172 313 107 l 358 332 q 181 194 181 314 q 254 107 181 107 m 164 811 l 35 1053 l 181 1053 l 263 811 l 164 811 m 361 811 l 242 1053 l 383 1053 l 454 811 l 361 811 z "},"ä":{"ha":593,"x_min":22,"x_max":581,"o":"m 206 -14 q 75 39 128 -14 q 22 181 22 92 q 78 331 22 274 q 211 411 135 388 q 357 438 288 435 q 333 537 357 507 q 253 567 310 567 q 172 553 211 567 q 86 511 133 539 l 74 638 q 290 701 178 701 q 510 442 510 701 l 510 235 q 514 157 510 182 q 528 122 518 132 q 561 113 539 113 l 581 113 l 568 -14 l 511 -14 q 430 9 464 -14 q 378 74 396 32 q 300 8 342 31 q 206 -14 258 -14 m 254 107 q 358 172 313 107 l 358 332 q 181 194 181 314 q 254 107 181 107 m 124 940 l 246 940 l 246 821 l 124 821 l 124 940 m 349 940 l 471 940 l 471 821 l 349 821 l 349 940 z "},"ạ":{"ha":593,"x_min":22,"x_max":581,"o":"m 206 -14 q 75 39 128 -14 q 22 181 22 92 q 78 331 22 274 q 211 411 135 388 q 357 438 288 435 q 333 537 357 507 q 253 567 310 567 q 172 553 211 567 q 86 511 133 539 l 74 638 q 290 701 178 701 q 510 442 510 701 l 510 235 q 514 157 510 182 q 528 122 518 132 q 561 113 539 113 l 581 113 l 568 -14 l 511 -14 q 430 9 464 -14 q 378 74 396 32 q 300 8 342 31 q 206 -14 258 -14 m 254 107 q 358 172 313 107 l 358 332 q 181 194 181 314 q 254 107 181 107 m 232 -112 l 363 -112 l 363 -243 l 232 -243 l 232 -112 z "},"à":{"ha":593,"x_min":22,"x_max":581,"o":"m 206 -14 q 75 39 128 -14 q 22 181 22 92 q 78 331 22 274 q 211 411 135 388 q 357 438 288 435 q 333 537 357 507 q 253 567 310 567 q 172 553 211 567 q 86 511 133 539 l 74 638 q 290 701 178 701 q 510 442 510 701 l 510 235 q 514 157 510 182 q 528 122 518 132 q 561 113 539 113 l 581 113 l 568 -14 l 511 -14 q 430 9 464 -14 q 378 74 396 32 q 300 8 342 31 q 206 -14 258 -14 m 254 107 q 358 172 313 107 l 358 332 q 181 194 181 314 q 254 107 181 107 m 190 889 l 190 1044 l 403 910 l 403 804 l 190 889 z "},"ả":{"ha":593,"x_min":22,"x_max":581,"o":"m 206 -14 q 75 39 128 -14 q 22 181 22 92 q 78 331 22 274 q 211 411 135 388 q 357 438 288 435 q 333 537 357 507 q 253 567 310 567 q 172 553 211 567 q 86 511 133 539 l 74 638 q 290 701 178 701 q 510 442 510 701 l 510 235 q 514 157 510 182 q 528 122 518 132 q 561 113 539 113 l 581 113 l 568 -14 l 511 -14 q 430 9 464 -14 q 378 74 396 32 q 300 8 342 31 q 206 -14 258 -14 m 254 107 q 358 172 313 107 l 358 332 q 181 194 181 314 q 254 107 181 107 m 269 786 q 308 834 297 815 q 319 876 319 853 q 271 922 319 922 q 203 900 239 922 l 179 978 q 278 999 228 999 q 365 967 331 999 q 400 882 400 936 q 381 807 400 839 q 319 738 363 775 l 269 786 z "},"ȃ":{"ha":593,"x_min":22,"x_max":581,"o":"m 206 -14 q 75 39 128 -14 q 22 181 22 92 q 78 331 22 274 q 211 411 135 388 q 357 438 288 435 q 333 537 357 507 q 253 567 310 567 q 172 553 211 567 q 86 511 133 539 l 74 638 q 290 701 178 701 q 510 442 510 701 l 510 235 q 514 157 510 182 q 528 122 518 132 q 561 113 539 113 l 581 113 l 568 -14 l 511 -14 q 430 9 464 -14 q 378 74 396 32 q 300 8 342 31 q 206 -14 258 -14 m 254 107 q 358 172 313 107 l 358 332 q 181 194 181 314 q 254 107 181 107 m 297 983 q 444 933 390 983 q 497 810 497 883 l 383 810 q 360 864 383 844 q 297 883 338 883 q 234 864 257 883 q 211 810 211 844 l 97 810 q 151 933 97 883 q 297 983 206 983 z "},"ā":{"ha":593,"x_min":22,"x_max":581,"o":"m 206 -14 q 75 39 128 -14 q 22 181 22 92 q 78 331 22 274 q 211 411 135 388 q 357 438 288 435 q 333 537 357 507 q 253 567 310 567 q 172 553 211 567 q 86 511 133 539 l 74 638 q 290 701 178 701 q 510 442 510 701 l 510 235 q 514 157 510 182 q 528 122 518 132 q 561 113 539 113 l 581 113 l 568 -14 l 511 -14 q 430 9 464 -14 q 378 74 396 32 q 300 8 342 31 q 206 -14 258 -14 m 254 107 q 358 172 313 107 l 358 332 q 181 194 181 314 q 254 107 181 107 m 99 933 l 496 933 l 496 832 l 99 832 l 99 933 z "},"ą":{"ha":593,"x_min":22,"x_max":619,"o":"m 619 -269 q 517 -292 575 -292 q 417 -260 456 -292 q 378 -174 378 -229 q 402 -88 378 -128 q 468 -8 426 -49 q 378 74 406 11 q 300 8 342 31 q 206 -14 258 -14 q 75 39 128 -14 q 22 181 22 92 q 78 331 22 274 q 211 411 135 388 q 357 438 288 435 q 333 537 357 507 q 253 567 310 567 q 172 553 211 567 q 86 511 133 539 l 74 638 q 290 701 178 701 q 510 442 510 701 l 510 235 q 514 157 510 182 q 528 122 518 132 q 561 113 539 113 l 581 113 l 568 -14 l 544 -14 q 485 -84 506 -51 q 464 -149 464 -117 q 482 -197 464 -181 q 531 -212 500 -212 q 597 -197 557 -212 l 619 -269 m 358 332 q 181 194 181 314 q 254 107 181 107 q 358 172 313 107 l 358 332 z "},"å":{"ha":593,"x_min":22,"x_max":581,"o":"m 206 -14 q 75 39 128 -14 q 22 181 22 92 q 78 331 22 274 q 211 411 135 388 q 357 438 288 435 q 333 537 357 507 q 253 567 310 567 q 172 553 211 567 q 86 511 133 539 l 74 638 q 290 701 178 701 q 510 442 510 701 l 510 235 q 514 157 510 182 q 528 122 518 132 q 561 113 539 113 l 581 113 l 568 -14 l 511 -14 q 430 9 464 -14 q 378 74 396 32 q 300 8 342 31 q 206 -14 258 -14 m 254 107 q 358 172 313 107 l 358 332 q 181 194 181 314 q 254 107 181 107 m 297 790 q 201 829 235 790 q 167 926 167 868 q 201 1024 167 985 q 297 1064 235 1064 q 394 1024 361 1064 q 428 926 428 985 q 394 829 428 868 q 297 790 361 790 m 297 857 q 338 876 324 857 q 353 926 353 894 q 338 978 353 958 q 297 997 322 997 q 257 978 272 997 q 242 926 242 958 q 256 876 242 894 q 297 857 271 857 z "},"ǻ":{"ha":593,"x_min":22,"x_max":581,"o":"m 206 -14 q 75 39 128 -14 q 22 181 22 92 q 78 331 22 274 q 211 411 135 388 q 357 438 288 435 q 333 537 357 507 q 253 567 310 567 q 172 553 211 567 q 86 511 133 539 l 74 638 q 290 701 178 701 q 510 442 510 701 l 510 235 q 514 157 510 182 q 528 122 518 132 q 561 113 539 113 l 581 113 l 568 -14 l 511 -14 q 430 9 464 -14 q 378 74 396 32 q 300 8 342 31 q 206 -14 258 -14 m 254 107 q 358 172 313 107 l 358 332 q 181 194 181 314 q 254 107 181 107 m 297 790 q 201 829 235 790 q 167 926 167 868 q 201 1024 167 985 q 297 1064 235 1064 q 394 1024 361 1064 q 428 926 428 985 q 394 829 428 868 q 297 790 361 790 m 297 857 q 338 876 324 857 q 353 926 353 894 q 338 978 353 958 q 297 997 322 997 q 257 978 272 997 q 242 926 242 958 q 256 876 242 894 q 297 857 271 857 m 192 1208 l 404 1319 l 404 1182 l 192 1118 l 192 1208 z "},"ã":{"ha":593,"x_min":22,"x_max":581,"o":"m 206 -14 q 75 39 128 -14 q 22 181 22 92 q 78 331 22 274 q 211 411 135 388 q 357 438 288 435 q 333 537 357 507 q 253 567 310 567 q 172 553 211 567 q 86 511 133 539 l 74 638 q 290 701 178 701 q 510 442 510 701 l 510 235 q 514 157 510 182 q 528 122 518 132 q 561 113 539 113 l 581 113 l 568 -14 l 511 -14 q 430 9 464 -14 q 378 74 396 32 q 300 8 342 31 q 206 -14 258 -14 m 254 107 q 358 172 313 107 l 358 332 q 181 194 181 314 q 254 107 181 107 m 393 804 q 347 813 367 804 q 299 840 328 822 q 265 860 279 854 q 236 867 251 867 q 208 853 218 867 q 199 815 199 839 l 90 815 q 122 936 93 894 q 201 978 150 978 q 247 969 228 978 q 296 942 267 960 q 329 922 315 928 q 358 915 343 915 q 386 929 376 915 q 396 967 396 943 l 504 967 q 473 846 501 888 q 393 804 444 804 z "},"æ":{"ha":947,"x_min":22,"x_max":914,"o":"m 914 406 q 907 321 914 372 l 519 321 q 577 165 526 217 q 704 113 628 113 q 797 126 750 113 q 882 163 843 139 l 888 31 q 689 -14 806 -14 q 544 16 607 -14 q 439 101 481 46 q 336 15 388 44 q 215 -14 285 -14 q 78 38 133 -14 q 22 181 22 90 q 121 363 22 306 q 364 426 219 421 l 364 443 q 337 538 363 510 q 253 567 311 567 q 172 553 211 567 q 86 511 133 539 l 74 638 q 290 701 178 701 q 464 606 413 701 q 675 701 544 701 q 851 620 789 701 q 914 406 914 539 m 763 426 q 736 535 763 494 q 653 575 710 575 q 522 426 546 575 l 763 426 m 258 107 q 393 185 331 107 q 365 321 367 249 q 230 283 279 315 q 181 192 181 250 q 202 128 181 150 q 258 107 224 107 z "},"ǽ":{"ha":947,"x_min":22,"x_max":914,"o":"m 914 406 q 907 321 914 372 l 519 321 q 577 165 526 217 q 704 113 628 113 q 797 126 750 113 q 882 163 843 139 l 888 31 q 689 -14 806 -14 q 544 16 607 -14 q 439 101 481 46 q 336 15 388 44 q 215 -14 285 -14 q 78 38 133 -14 q 22 181 22 90 q 121 363 22 306 q 364 426 219 421 l 364 443 q 337 538 363 510 q 253 567 311 567 q 172 553 211 567 q 86 511 133 539 l 74 638 q 290 701 178 701 q 464 606 413 701 q 675 701 544 701 q 851 620 789 701 q 914 406 914 539 m 763 426 q 736 535 763 494 q 653 575 710 575 q 522 426 546 575 l 763 426 m 258 107 q 393 185 331 107 q 365 321 367 249 q 230 283 279 315 q 181 192 181 250 q 202 128 181 150 q 258 107 224 107 m 372 907 l 585 1039 l 585 888 l 372 806 l 372 907 z "},"b":{"ha":685,"x_min":69,"x_max":654,"o":"m 386 701 q 531 653 469 701 q 623 523 592 604 q 654 344 654 442 q 622 163 654 244 q 529 34 590 82 q 386 -14 468 -14 q 213 56 282 -14 l 208 0 l 69 0 l 69 1042 l 219 1042 l 219 635 q 386 701 289 701 m 358 113 q 462 177 424 113 q 500 344 500 242 q 462 511 500 447 q 358 575 424 575 q 249 514 288 575 q 211 344 211 453 q 249 173 211 233 q 358 113 288 113 z "},"c":{"ha":535,"x_min":33,"x_max":503,"o":"m 357 -14 q 180 33 253 -14 q 70 161 107 81 q 33 342 33 242 q 69 526 33 444 q 180 654 106 607 q 361 701 254 701 q 501 674 443 701 l 486 549 q 375 575 436 575 q 236 513 286 575 q 186 344 186 450 q 236 176 186 240 q 375 113 286 113 q 490 140 439 113 l 503 15 q 437 -6 476 3 q 357 -14 397 -14 z "},"ć":{"ha":535,"x_min":33,"x_max":503,"o":"m 357 -14 q 180 33 253 -14 q 70 161 107 81 q 33 342 33 242 q 69 526 33 444 q 180 654 106 607 q 361 701 254 701 q 501 674 443 701 l 486 549 q 375 575 436 575 q 236 513 286 575 q 186 344 186 450 q 236 176 186 240 q 375 113 286 113 q 490 140 439 113 l 503 15 q 437 -6 476 3 q 357 -14 397 -14 m 219 907 l 432 1039 l 432 888 l 219 806 l 219 907 z "},"č":{"ha":535,"x_min":33,"x_max":503,"o":"m 357 -14 q 180 33 253 -14 q 70 161 107 81 q 33 342 33 242 q 69 526 33 444 q 180 654 106 607 q 361 701 254 701 q 501 674 443 701 l 486 549 q 375 575 436 575 q 236 513 286 575 q 186 344 186 450 q 236 176 186 240 q 375 113 286 113 q 490 140 439 113 l 503 15 q 437 -6 476 3 q 357 -14 397 -14 m 172 910 l 172 1011 l 325 915 l 478 1011 l 478 910 l 325 781 l 172 910 z "},"ç":{"ha":535,"x_min":33,"x_max":503,"o":"m 357 -78 q 440 -110 410 -79 q 469 -193 469 -140 q 429 -290 469 -256 q 326 -325 389 -325 q 229 -307 274 -325 l 253 -235 q 324 -250 288 -250 q 372 -236 354 -250 q 389 -196 389 -222 q 374 -156 389 -169 q 329 -142 358 -142 q 275 -151 307 -142 l 308 -11 q 105 103 176 6 q 33 342 33 200 q 69 526 33 444 q 180 654 106 607 q 361 701 254 701 q 501 674 443 701 l 486 549 q 375 575 436 575 q 236 513 286 575 q 186 344 186 450 q 236 176 186 240 q 375 113 286 113 q 490 140 439 113 l 503 15 q 376 -14 453 -10 l 357 -78 z "},"ḉ":{"ha":535,"x_min":33,"x_max":503,"o":"m 432 888 l 219 806 l 219 907 l 432 1039 l 432 888 m 357 -78 q 440 -110 410 -79 q 469 -193 469 -140 q 429 -290 469 -256 q 326 -325 389 -325 q 229 -307 274 -325 l 253 -235 q 324 -250 288 -250 q 372 -236 354 -250 q 389 -196 389 -222 q 374 -156 389 -169 q 329 -142 358 -142 q 275 -151 307 -142 l 308 -11 q 105 103 176 6 q 33 342 33 200 q 69 526 33 444 q 180 654 106 607 q 361 701 254 701 q 501 674 443 701 l 486 549 q 375 575 436 575 q 236 513 286 575 q 186 344 186 450 q 236 176 186 240 q 375 113 286 113 q 490 140 439 113 l 503 15 q 376 -14 453 -10 l 357 -78 z "},"ĉ":{"ha":535,"x_min":33,"x_max":503,"o":"m 357 -14 q 180 33 253 -14 q 70 161 107 81 q 33 342 33 242 q 69 526 33 444 q 180 654 106 607 q 361 701 254 701 q 501 674 443 701 l 486 549 q 375 575 436 575 q 236 513 286 575 q 186 344 186 450 q 236 176 186 240 q 375 113 286 113 q 490 140 439 113 l 503 15 q 437 -6 476 3 q 357 -14 397 -14 m 172 883 l 325 1014 l 478 883 l 478 783 l 325 879 l 172 783 l 172 883 z "},"ċ":{"ha":535,"x_min":33,"x_max":503,"o":"m 357 -14 q 180 33 253 -14 q 70 161 107 81 q 33 342 33 242 q 69 526 33 444 q 180 654 106 607 q 361 701 254 701 q 501 674 443 701 l 486 549 q 375 575 436 575 q 236 513 286 575 q 186 344 186 450 q 236 176 186 240 q 375 113 286 113 q 490 140 439 113 l 503 15 q 437 -6 476 3 q 357 -14 397 -14 m 260 961 l 390 961 l 390 831 l 260 831 l 260 961 z "},"d":{"ha":685,"x_min":28,"x_max":613,"o":"m 613 1042 l 613 0 l 474 0 l 468 51 q 303 -14 400 -14 q 157 34 219 -14 q 61 163 94 82 q 28 343 28 244 q 60 523 28 442 q 156 653 93 604 q 303 701 218 701 q 461 642 394 701 l 461 1042 l 613 1042 m 324 113 q 433 173 394 113 q 471 343 471 233 q 433 514 471 453 q 324 575 394 575 q 219 510 258 575 q 181 343 181 446 q 219 177 181 242 q 324 113 258 113 z "},"ð":{"ha":613,"x_min":25,"x_max":569,"o":"m 394 826 q 524 619 478 740 q 569 358 569 499 q 496 76 569 171 q 292 -18 422 -18 q 97 67 169 -18 q 25 286 25 151 q 92 506 25 419 q 282 592 160 592 q 404 556 357 592 q 300 768 383 676 l 169 688 l 117 768 l 224 833 q 117 888 176 867 l 146 974 q 319 892 242 947 l 450 972 l 501 892 l 394 826 m 296 114 q 381 163 350 114 q 413 290 413 211 q 381 416 413 368 q 294 464 350 464 q 208 416 239 464 q 178 292 178 368 q 208 163 178 213 q 296 114 239 114 z "},"ď":{"ha":779,"x_min":28,"x_max":799,"o":"m 613 1042 l 613 0 l 474 0 l 468 51 q 303 -14 400 -14 q 157 34 219 -14 q 61 163 94 82 q 28 343 28 244 q 60 523 28 442 q 156 653 93 604 q 303 701 218 701 q 461 642 394 701 l 461 1042 l 613 1042 m 324 113 q 433 173 394 113 q 471 343 471 233 q 433 514 471 453 q 324 575 394 575 q 219 510 258 575 q 181 343 181 446 q 219 177 181 242 q 324 113 258 113 m 668 1042 l 799 1042 l 758 801 l 668 801 l 668 1042 z "},"đ":{"ha":699,"x_min":28,"x_max":697,"o":"m 697 815 l 613 815 l 613 0 l 474 0 l 468 51 q 303 -14 400 -14 q 157 34 219 -14 q 61 163 94 82 q 28 343 28 244 q 60 523 28 442 q 156 653 93 604 q 303 701 218 701 q 461 642 394 701 l 461 815 l 267 815 l 267 924 l 461 924 l 461 1042 l 613 1042 l 613 924 l 697 924 l 697 815 m 324 113 q 433 173 394 113 q 471 343 471 233 q 433 514 471 453 q 324 575 394 575 q 219 510 258 575 q 181 343 181 446 q 219 177 181 242 q 324 113 258 113 z "},"ḍ":{"ha":685,"x_min":28,"x_max":613,"o":"m 613 1042 l 613 0 l 474 0 l 468 51 q 303 -14 400 -14 q 157 34 219 -14 q 61 163 94 82 q 28 343 28 244 q 60 523 28 442 q 156 653 93 604 q 303 701 218 701 q 461 642 394 701 l 461 1042 l 613 1042 m 324 113 q 433 173 394 113 q 471 343 471 233 q 433 514 471 453 q 324 575 394 575 q 219 510 258 575 q 181 343 181 446 q 219 177 181 242 q 324 113 258 113 m 282 -112 l 413 -112 l 413 -243 l 282 -243 l 282 -112 z "},"ḏ":{"ha":685,"x_min":28,"x_max":613,"o":"m 613 1042 l 613 0 l 474 0 l 468 51 q 303 -14 400 -14 q 157 34 219 -14 q 61 163 94 82 q 28 343 28 244 q 60 523 28 442 q 156 653 93 604 q 303 701 218 701 q 461 642 394 701 l 461 1042 l 613 1042 m 324 113 q 433 173 394 113 q 471 343 471 233 q 433 514 471 453 q 324 575 394 575 q 219 510 258 575 q 181 343 181 446 q 219 177 181 242 q 324 113 258 113 m 149 -129 l 546 -129 l 546 -231 l 149 -231 l 149 -129 z "},"ǆ":{"ha":1244,"x_min":28,"x_max":1219,"o":"m 613 1042 l 613 0 l 474 0 l 468 51 q 303 -14 400 -14 q 157 34 219 -14 q 61 163 94 82 q 28 343 28 244 q 60 523 28 442 q 156 653 93 604 q 303 701 218 701 q 461 642 394 701 l 461 1042 l 613 1042 m 324 113 q 433 173 394 113 q 471 343 471 233 q 433 514 471 453 q 324 575 394 575 q 219 510 258 575 q 181 343 181 446 q 219 177 181 242 q 324 113 258 113 m 933 129 l 1213 129 l 1213 0 l 710 0 l 996 560 l 726 560 l 726 689 l 1219 689 l 933 129 m 821 910 l 821 1011 l 974 915 l 1126 1011 l 1126 910 l 974 781 l 821 910 z "},"e":{"ha":615,"x_min":33,"x_max":583,"o":"m 583 401 q 576 321 583 367 l 188 321 q 245 165 194 217 q 372 113 296 113 q 550 163 464 113 l 557 31 q 358 -14 475 -14 q 181 35 254 -14 q 70 165 107 83 q 33 347 33 247 q 68 528 33 447 q 169 655 103 608 q 328 701 235 701 q 514 620 444 701 q 583 401 583 539 m 431 426 q 404 535 431 494 q 321 575 378 575 q 235 538 268 575 q 190 426 201 500 l 431 426 z "},"é":{"ha":615,"x_min":33,"x_max":583,"o":"m 583 401 q 576 321 583 367 l 188 321 q 245 165 194 217 q 372 113 296 113 q 550 163 464 113 l 557 31 q 358 -14 475 -14 q 181 35 254 -14 q 70 165 107 83 q 33 347 33 247 q 68 528 33 447 q 169 655 103 608 q 328 701 235 701 q 514 620 444 701 q 583 401 583 539 m 431 426 q 404 535 431 494 q 321 575 378 575 q 235 538 268 575 q 190 426 201 500 l 431 426 m 224 907 l 436 1039 l 436 888 l 224 806 l 224 907 z "},"ĕ":{"ha":615,"x_min":33,"x_max":583,"o":"m 583 401 q 576 321 583 367 l 188 321 q 245 165 194 217 q 372 113 296 113 q 550 163 464 113 l 557 31 q 358 -14 475 -14 q 181 35 254 -14 q 70 165 107 83 q 33 347 33 247 q 68 528 33 447 q 169 655 103 608 q 328 701 235 701 q 514 620 444 701 q 583 401 583 539 m 431 426 q 404 535 431 494 q 321 575 378 575 q 235 538 268 575 q 190 426 201 500 l 431 426 m 329 810 q 189 861 240 810 q 138 988 138 913 l 249 988 q 269 928 249 950 q 329 907 290 907 q 389 928 368 907 q 410 988 410 950 l 521 988 q 469 861 521 913 q 329 810 418 810 z "},"ě":{"ha":615,"x_min":33,"x_max":583,"o":"m 583 401 q 576 321 583 367 l 188 321 q 245 165 194 217 q 372 113 296 113 q 550 163 464 113 l 557 31 q 358 -14 475 -14 q 181 35 254 -14 q 70 165 107 83 q 33 347 33 247 q 68 528 33 447 q 169 655 103 608 q 328 701 235 701 q 514 620 444 701 q 583 401 583 539 m 431 426 q 404 535 431 494 q 321 575 378 575 q 235 538 268 575 q 190 426 201 500 l 431 426 m 176 910 l 176 1011 l 329 915 l 482 1011 l 482 910 l 329 781 l 176 910 z "},"ḝ":{"ha":615,"x_min":33,"x_max":583,"o":"m 329 810 q 189 861 240 810 q 138 988 138 913 l 249 988 q 269 928 249 950 q 329 907 290 907 q 389 928 368 907 q 410 988 410 950 l 521 988 q 469 861 521 913 q 329 810 418 810 m 583 401 q 576 321 583 367 l 188 321 q 245 165 194 217 q 372 113 296 113 q 550 163 464 113 l 557 31 q 396 -12 490 -7 l 376 -78 q 459 -110 429 -79 q 489 -193 489 -140 q 449 -290 489 -256 q 346 -325 408 -325 q 249 -307 293 -325 l 272 -235 q 343 -250 307 -250 q 391 -236 374 -250 q 408 -196 408 -222 q 393 -156 408 -169 q 349 -142 378 -142 q 294 -151 326 -142 l 328 -12 q 167 44 233 -6 q 67 174 100 94 q 33 347 33 253 q 68 528 33 447 q 169 655 103 608 q 328 701 235 701 q 514 620 444 701 q 583 401 583 539 m 431 426 q 404 535 431 494 q 321 575 378 575 q 235 538 268 575 q 190 426 201 500 l 431 426 z "},"ê":{"ha":615,"x_min":33,"x_max":583,"o":"m 583 401 q 576 321 583 367 l 188 321 q 245 165 194 217 q 372 113 296 113 q 550 163 464 113 l 557 31 q 358 -14 475 -14 q 181 35 254 -14 q 70 165 107 83 q 33 347 33 247 q 68 528 33 447 q 169 655 103 608 q 328 701 235 701 q 514 620 444 701 q 583 401 583 539 m 431 426 q 404 535 431 494 q 321 575 378 575 q 235 538 268 575 q 190 426 201 500 l 431 426 m 176 883 l 329 1014 l 482 883 l 482 783 l 329 879 l 176 783 l 176 883 z "},"ế":{"ha":615,"x_min":33,"x_max":650,"o":"m 583 401 q 576 321 583 367 l 188 321 q 245 165 194 217 q 372 113 296 113 q 550 163 464 113 l 557 31 q 358 -14 475 -14 q 181 35 254 -14 q 70 165 107 83 q 33 347 33 247 q 68 528 33 447 q 169 655 103 608 q 328 701 235 701 q 514 620 444 701 q 583 401 583 539 m 431 426 q 404 535 431 494 q 321 575 378 575 q 235 538 268 575 q 190 426 201 500 l 431 426 m 504 1133 l 650 1133 l 525 963 l 426 963 l 504 1133 m 496 861 l 496 765 l 329 856 l 163 765 l 163 861 l 329 979 l 496 861 z "},"ệ":{"ha":615,"x_min":33,"x_max":583,"o":"m 583 401 q 576 321 583 367 l 188 321 q 245 165 194 217 q 372 113 296 113 q 550 163 464 113 l 557 31 q 358 -14 475 -14 q 181 35 254 -14 q 70 165 107 83 q 33 347 33 247 q 68 528 33 447 q 169 655 103 608 q 328 701 235 701 q 514 620 444 701 q 583 401 583 539 m 431 426 q 404 535 431 494 q 321 575 378 575 q 235 538 268 575 q 190 426 201 500 l 431 426 m 176 883 l 329 1014 l 482 883 l 482 783 l 329 879 l 176 783 l 176 883 m 286 -112 l 417 -112 l 417 -243 l 286 -243 l 286 -112 z "},"ề":{"ha":615,"x_min":33,"x_max":583,"o":"m 583 401 q 576 321 583 367 l 188 321 q 245 165 194 217 q 372 113 296 113 q 550 163 464 113 l 557 31 q 358 -14 475 -14 q 181 35 254 -14 q 70 165 107 83 q 33 347 33 247 q 68 528 33 447 q 169 655 103 608 q 328 701 235 701 q 514 620 444 701 q 583 401 583 539 m 431 426 q 404 535 431 494 q 321 575 378 575 q 235 538 268 575 q 190 426 201 500 l 431 426 m 461 963 l 358 1133 l 496 1133 l 554 963 l 461 963 m 496 861 l 496 765 l 329 856 l 163 765 l 163 861 l 329 979 l 496 861 z "},"ể":{"ha":615,"x_min":33,"x_max":583,"o":"m 583 401 q 576 321 583 367 l 188 321 q 245 165 194 217 q 372 113 296 113 q 550 163 464 113 l 557 31 q 358 -14 475 -14 q 181 35 254 -14 q 70 165 107 83 q 33 347 33 247 q 68 528 33 447 q 169 655 103 608 q 328 701 235 701 q 514 620 444 701 q 583 401 583 539 m 431 426 q 404 535 431 494 q 321 575 378 575 q 235 538 268 575 q 190 426 201 500 l 431 426 m 496 851 l 496 756 l 329 846 l 163 756 l 163 851 l 329 969 l 496 851 m 449 986 q 479 1006 469 994 q 489 1036 489 1017 q 442 1076 489 1076 q 374 1057 413 1076 l 350 1136 q 451 1157 401 1157 q 540 1128 506 1157 q 575 1050 575 1100 q 548 976 575 1006 q 467 928 521 947 l 449 986 z "},"ễ":{"ha":615,"x_min":33,"x_max":583,"o":"m 583 401 q 576 321 583 367 l 188 321 q 245 165 194 217 q 372 113 296 113 q 550 163 464 113 l 557 31 q 358 -14 475 -14 q 181 35 254 -14 q 70 165 107 83 q 33 347 33 247 q 68 528 33 447 q 169 655 103 608 q 328 701 235 701 q 514 620 444 701 q 583 401 583 539 m 431 426 q 404 535 431 494 q 321 575 378 575 q 235 538 268 575 q 190 426 201 500 l 431 426 m 496 851 l 496 756 l 329 846 l 163 756 l 163 851 l 329 969 l 496 851 m 433 1022 q 387 1031 410 1022 q 335 1053 364 1039 q 297 1069 315 1063 q 263 1076 278 1076 q 222 1032 222 1076 l 122 1032 q 148 1138 122 1101 q 225 1175 174 1175 q 272 1167 249 1175 q 324 1144 294 1158 q 362 1128 343 1135 q 396 1121 381 1121 q 436 1167 436 1121 l 536 1167 q 510 1059 536 1096 q 433 1022 485 1022 z "},"ȅ":{"ha":615,"x_min":33,"x_max":583,"o":"m 583 401 q 576 321 583 367 l 188 321 q 245 165 194 217 q 372 113 296 113 q 550 163 464 113 l 557 31 q 358 -14 475 -14 q 181 35 254 -14 q 70 165 107 83 q 33 347 33 247 q 68 528 33 447 q 169 655 103 608 q 328 701 235 701 q 514 620 444 701 q 583 401 583 539 m 431 426 q 404 535 431 494 q 321 575 378 575 q 235 538 268 575 q 190 426 201 500 l 431 426 m 196 811 l 67 1053 l 213 1053 l 294 811 l 196 811 m 393 811 l 274 1053 l 415 1053 l 486 811 l 393 811 z "},"ë":{"ha":615,"x_min":33,"x_max":583,"o":"m 583 401 q 576 321 583 367 l 188 321 q 245 165 194 217 q 372 113 296 113 q 550 163 464 113 l 557 31 q 358 -14 475 -14 q 181 35 254 -14 q 70 165 107 83 q 33 347 33 247 q 68 528 33 447 q 169 655 103 608 q 328 701 235 701 q 514 620 444 701 q 583 401 583 539 m 431 426 q 404 535 431 494 q 321 575 378 575 q 235 538 268 575 q 190 426 201 500 l 431 426 m 156 940 l 278 940 l 278 821 l 156 821 l 156 940 m 381 940 l 503 940 l 503 821 l 381 821 l 381 940 z "},"ė":{"ha":615,"x_min":33,"x_max":583,"o":"m 583 401 q 576 321 583 367 l 188 321 q 245 165 194 217 q 372 113 296 113 q 550 163 464 113 l 557 31 q 358 -14 475 -14 q 181 35 254 -14 q 70 165 107 83 q 33 347 33 247 q 68 528 33 447 q 169 655 103 608 q 328 701 235 701 q 514 620 444 701 q 583 401 583 539 m 431 426 q 404 535 431 494 q 321 575 378 575 q 235 538 268 575 q 190 426 201 500 l 431 426 m 264 961 l 394 961 l 394 831 l 264 831 l 264 961 z "},"ẹ":{"ha":615,"x_min":33,"x_max":583,"o":"m 583 401 q 576 321 583 367 l 188 321 q 245 165 194 217 q 372 113 296 113 q 550 163 464 113 l 557 31 q 358 -14 475 -14 q 181 35 254 -14 q 70 165 107 83 q 33 347 33 247 q 68 528 33 447 q 169 655 103 608 q 328 701 235 701 q 514 620 444 701 q 583 401 583 539 m 431 426 q 404 535 431 494 q 321 575 378 575 q 235 538 268 575 q 190 426 201 500 l 431 426 m 286 -112 l 417 -112 l 417 -243 l 286 -243 l 286 -112 z "},"è":{"ha":615,"x_min":33,"x_max":583,"o":"m 583 401 q 576 321 583 367 l 188 321 q 245 165 194 217 q 372 113 296 113 q 550 163 464 113 l 557 31 q 358 -14 475 -14 q 181 35 254 -14 q 70 165 107 83 q 33 347 33 247 q 68 528 33 447 q 169 655 103 608 q 328 701 235 701 q 514 620 444 701 q 583 401 583 539 m 431 426 q 404 535 431 494 q 321 575 378 575 q 235 538 268 575 q 190 426 201 500 l 431 426 m 222 889 l 222 1044 l 435 910 l 435 804 l 222 889 z "},"ẻ":{"ha":615,"x_min":33,"x_max":583,"o":"m 583 401 q 576 321 583 367 l 188 321 q 245 165 194 217 q 372 113 296 113 q 550 163 464 113 l 557 31 q 358 -14 475 -14 q 181 35 254 -14 q 70 165 107 83 q 33 347 33 247 q 68 528 33 447 q 169 655 103 608 q 328 701 235 701 q 514 620 444 701 q 583 401 583 539 m 431 426 q 404 535 431 494 q 321 575 378 575 q 235 538 268 575 q 190 426 201 500 l 431 426 m 301 786 q 340 834 329 815 q 351 876 351 853 q 303 922 351 922 q 235 900 271 922 l 211 978 q 310 999 260 999 q 397 967 363 999 q 432 882 432 936 q 413 807 432 839 q 351 738 394 775 l 301 786 z "},"ȇ":{"ha":615,"x_min":33,"x_max":583,"o":"m 583 401 q 576 321 583 367 l 188 321 q 245 165 194 217 q 372 113 296 113 q 550 163 464 113 l 557 31 q 358 -14 475 -14 q 181 35 254 -14 q 70 165 107 83 q 33 347 33 247 q 68 528 33 447 q 169 655 103 608 q 328 701 235 701 q 514 620 444 701 q 583 401 583 539 m 431 426 q 404 535 431 494 q 321 575 378 575 q 235 538 268 575 q 190 426 201 500 l 431 426 m 329 983 q 476 933 422 983 q 529 810 529 883 l 415 810 q 392 864 415 844 q 329 883 369 883 q 266 864 289 883 q 243 810 243 844 l 129 810 q 183 933 129 883 q 329 983 238 983 z "},"ē":{"ha":615,"x_min":33,"x_max":583,"o":"m 583 401 q 576 321 583 367 l 188 321 q 245 165 194 217 q 372 113 296 113 q 550 163 464 113 l 557 31 q 358 -14 475 -14 q 181 35 254 -14 q 70 165 107 83 q 33 347 33 247 q 68 528 33 447 q 169 655 103 608 q 328 701 235 701 q 514 620 444 701 q 583 401 583 539 m 431 426 q 404 535 431 494 q 321 575 378 575 q 235 538 268 575 q 190 426 201 500 l 431 426 m 131 933 l 528 933 l 528 832 l 131 832 l 131 933 z "},"ḗ":{"ha":615,"x_min":33,"x_max":583,"o":"m 583 401 q 576 321 583 367 l 188 321 q 245 165 194 217 q 372 113 296 113 q 550 163 464 113 l 557 31 q 358 -14 475 -14 q 181 35 254 -14 q 70 165 107 83 q 33 347 33 247 q 68 528 33 447 q 169 655 103 608 q 328 701 235 701 q 514 620 444 701 q 583 401 583 539 m 431 426 q 404 535 431 494 q 321 575 378 575 q 235 538 268 575 q 190 426 201 500 l 431 426 m 117 915 l 542 915 l 542 818 l 117 818 l 117 915 m 224 1094 l 436 1206 l 436 1068 l 224 1004 l 224 1094 z "},"ḕ":{"ha":615,"x_min":33,"x_max":583,"o":"m 583 401 q 576 321 583 367 l 188 321 q 245 165 194 217 q 372 113 296 113 q 550 163 464 113 l 557 31 q 358 -14 475 -14 q 181 35 254 -14 q 70 165 107 83 q 33 347 33 247 q 68 528 33 447 q 169 655 103 608 q 328 701 235 701 q 514 620 444 701 q 583 401 583 539 m 431 426 q 404 535 431 494 q 321 575 378 575 q 235 538 268 575 q 190 426 201 500 l 431 426 m 117 915 l 542 915 l 542 818 l 117 818 l 117 915 m 222 1067 l 222 1206 l 435 1094 l 435 1004 l 222 1067 z "},"ę":{"ha":615,"x_min":33,"x_max":618,"o":"m 618 -239 q 515 -261 574 -261 q 415 -230 454 -261 q 376 -143 376 -199 q 438 -8 376 -76 q 358 -14 388 -14 q 181 35 254 -14 q 70 165 107 83 q 33 347 33 247 q 68 528 33 447 q 169 655 103 608 q 328 701 235 701 q 514 620 444 701 q 583 401 583 539 q 576 321 583 367 l 188 321 q 245 165 194 217 q 372 113 296 113 q 550 163 464 113 l 557 31 q 487 -49 511 -14 q 463 -118 463 -83 q 481 -166 463 -150 q 529 -182 499 -182 q 596 -167 556 -182 l 618 -239 m 321 575 q 235 538 268 575 q 190 426 201 500 l 431 426 q 404 535 431 494 q 321 575 378 575 z "},"ẽ":{"ha":615,"x_min":33,"x_max":583,"o":"m 583 401 q 576 321 583 367 l 188 321 q 245 165 194 217 q 372 113 296 113 q 550 163 464 113 l 557 31 q 358 -14 475 -14 q 181 35 254 -14 q 70 165 107 83 q 33 347 33 247 q 68 528 33 447 q 169 655 103 608 q 328 701 235 701 q 514 620 444 701 q 583 401 583 539 m 431 426 q 404 535 431 494 q 321 575 378 575 q 235 538 268 575 q 190 426 201 500 l 431 426 m 425 804 q 379 813 399 804 q 331 840 360 822 q 297 860 311 854 q 268 867 283 867 q 240 853 250 867 q 231 815 231 839 l 122 815 q 153 936 125 894 q 233 978 182 978 q 279 969 260 978 q 328 942 299 960 q 361 922 347 928 q 390 915 375 915 q 418 929 408 915 q 428 967 428 943 l 536 967 q 505 846 533 888 q 425 804 476 804 z "},"ə":{"ha":615,"x_min":32,"x_max":582,"o":"m 257 703 q 435 654 361 703 q 545 524 508 606 q 582 342 582 442 q 547 161 582 242 q 447 34 513 81 q 288 -12 381 -12 q 101 69 171 -12 q 32 288 32 150 q 39 368 32 322 l 428 368 q 370 524 421 472 q 243 576 319 576 q 65 526 151 576 l 58 658 q 257 703 140 703 m 294 114 q 381 151 347 114 q 425 263 414 189 l 185 263 q 211 154 185 194 q 294 114 238 114 z "},"f":{"ha":407,"x_min":21,"x_max":386,"o":"m 106 564 l 21 564 l 35 689 l 106 689 l 106 849 q 153 989 106 936 q 294 1042 201 1042 q 385 1028 346 1042 l 371 901 q 326 910 346 910 q 274 888 293 910 q 256 826 256 865 l 256 689 l 386 689 l 386 564 l 256 564 l 256 0 l 106 0 l 106 564 z "},"g":{"ha":596,"x_min":29,"x_max":597,"o":"m 390 64 q 549 -9 500 36 q 597 -136 597 -54 q 516 -290 597 -233 q 304 -347 435 -347 q 105 -297 181 -347 q 29 -157 29 -246 q 135 8 29 -60 q 74 103 74 40 q 142 200 74 165 q 64 298 92 238 q 36 431 36 358 q 66 569 36 507 q 151 666 96 631 q 283 701 207 701 q 436 651 374 701 q 551 701 490 701 q 586 699 569 701 l 574 596 q 546 599 560 599 q 490 588 521 599 q 531 431 531 519 q 501 293 531 356 q 415 194 471 231 q 283 157 358 157 q 224 164 256 157 q 207 138 207 151 q 220 113 207 122 q 264 96 233 104 l 390 64 m 283 586 q 204 543 232 586 q 176 431 176 500 q 204 315 176 358 q 283 272 232 272 q 363 315 335 272 q 390 431 390 358 q 363 543 390 500 q 283 586 335 586 m 310 -232 q 419 -209 378 -232 q 461 -144 461 -186 q 437 -90 461 -110 q 353 -54 413 -71 l 236 -24 q 154 -135 154 -74 q 197 -207 154 -182 q 310 -232 239 -232 z "},"ğ":{"ha":596,"x_min":29,"x_max":597,"o":"m 390 64 q 549 -9 500 36 q 597 -136 597 -54 q 516 -290 597 -233 q 304 -347 435 -347 q 105 -297 181 -347 q 29 -157 29 -246 q 135 8 29 -60 q 74 103 74 40 q 142 200 74 165 q 64 298 92 238 q 36 431 36 358 q 66 569 36 507 q 151 666 96 631 q 283 701 207 701 q 436 651 374 701 q 551 701 490 701 q 586 699 569 701 l 574 596 q 546 599 560 599 q 490 588 521 599 q 531 431 531 519 q 501 293 531 356 q 415 194 471 231 q 283 157 358 157 q 224 164 256 157 q 207 138 207 151 q 220 113 207 122 q 264 96 233 104 l 390 64 m 283 586 q 204 543 232 586 q 176 431 176 500 q 204 315 176 358 q 283 272 232 272 q 363 315 335 272 q 390 431 390 358 q 363 543 390 500 q 283 586 335 586 m 310 -232 q 419 -209 378 -232 q 461 -144 461 -186 q 437 -90 461 -110 q 353 -54 413 -71 l 236 -24 q 154 -135 154 -74 q 197 -207 154 -182 q 310 -232 239 -232 m 315 810 q 175 861 226 810 q 124 988 124 913 l 235 988 q 256 928 235 950 q 315 907 276 907 q 375 928 354 907 q 396 988 396 950 l 507 988 q 456 861 507 913 q 315 810 404 810 z "},"ǧ":{"ha":596,"x_min":29,"x_max":597,"o":"m 390 64 q 549 -9 500 36 q 597 -136 597 -54 q 516 -290 597 -233 q 304 -347 435 -347 q 105 -297 181 -347 q 29 -157 29 -246 q 135 8 29 -60 q 74 103 74 40 q 142 200 74 165 q 64 298 92 238 q 36 431 36 358 q 66 569 36 507 q 151 666 96 631 q 283 701 207 701 q 436 651 374 701 q 551 701 490 701 q 586 699 569 701 l 574 596 q 546 599 560 599 q 490 588 521 599 q 531 431 531 519 q 501 293 531 356 q 415 194 471 231 q 283 157 358 157 q 224 164 256 157 q 207 138 207 151 q 220 113 207 122 q 264 96 233 104 l 390 64 m 283 586 q 204 543 232 586 q 176 431 176 500 q 204 315 176 358 q 283 272 232 272 q 363 315 335 272 q 390 431 390 358 q 363 543 390 500 q 283 586 335 586 m 310 -232 q 419 -209 378 -232 q 461 -144 461 -186 q 437 -90 461 -110 q 353 -54 413 -71 l 236 -24 q 154 -135 154 -74 q 197 -207 154 -182 q 310 -232 239 -232 m 163 910 l 163 1011 l 315 915 l 468 1011 l 468 910 l 315 781 l 163 910 z "},"ĝ":{"ha":596,"x_min":29,"x_max":597,"o":"m 390 64 q 549 -9 500 36 q 597 -136 597 -54 q 516 -290 597 -233 q 304 -347 435 -347 q 105 -297 181 -347 q 29 -157 29 -246 q 135 8 29 -60 q 74 103 74 40 q 142 200 74 165 q 64 298 92 238 q 36 431 36 358 q 66 569 36 507 q 151 666 96 631 q 283 701 207 701 q 436 651 374 701 q 551 701 490 701 q 586 699 569 701 l 574 596 q 546 599 560 599 q 490 588 521 599 q 531 431 531 519 q 501 293 531 356 q 415 194 471 231 q 283 157 358 157 q 224 164 256 157 q 207 138 207 151 q 220 113 207 122 q 264 96 233 104 l 390 64 m 283 586 q 204 543 232 586 q 176 431 176 500 q 204 315 176 358 q 283 272 232 272 q 363 315 335 272 q 390 431 390 358 q 363 543 390 500 q 283 586 335 586 m 310 -232 q 419 -209 378 -232 q 461 -144 461 -186 q 437 -90 461 -110 q 353 -54 413 -71 l 236 -24 q 154 -135 154 -74 q 197 -207 154 -182 q 310 -232 239 -232 m 163 883 l 315 1014 l 468 883 l 468 783 l 315 879 l 163 783 l 163 883 z "},"ģ":{"ha":596,"x_min":29,"x_max":597,"o":"m 390 64 q 549 -9 500 36 q 597 -136 597 -54 q 516 -290 597 -233 q 304 -347 435 -347 q 105 -297 181 -347 q 29 -157 29 -246 q 135 8 29 -60 q 74 103 74 40 q 142 200 74 165 q 64 298 92 238 q 36 431 36 358 q 66 569 36 507 q 151 666 96 631 q 283 701 207 701 q 436 651 374 701 q 551 701 490 701 q 586 699 569 701 l 574 596 q 546 599 560 599 q 490 588 521 599 q 531 431 531 519 q 501 293 531 356 q 415 194 471 231 q 283 157 358 157 q 224 164 256 157 q 207 138 207 151 q 220 113 207 122 q 264 96 233 104 l 390 64 m 283 586 q 204 543 232 586 q 176 431 176 500 q 204 315 176 358 q 283 272 232 272 q 363 315 335 272 q 390 431 390 358 q 363 543 390 500 q 283 586 335 586 m 310 -232 q 419 -209 378 -232 q 461 -144 461 -186 q 437 -90 461 -110 q 353 -54 413 -71 l 236 -24 q 154 -135 154 -74 q 197 -207 154 -182 q 310 -232 239 -232 m 394 1090 l 339 939 l 385 939 l 385 810 l 249 810 l 249 924 l 332 1090 l 394 1090 z "},"ġ":{"ha":596,"x_min":29,"x_max":597,"o":"m 390 64 q 549 -9 500 36 q 597 -136 597 -54 q 516 -290 597 -233 q 304 -347 435 -347 q 105 -297 181 -347 q 29 -157 29 -246 q 135 8 29 -60 q 74 103 74 40 q 142 200 74 165 q 64 298 92 238 q 36 431 36 358 q 66 569 36 507 q 151 666 96 631 q 283 701 207 701 q 436 651 374 701 q 551 701 490 701 q 586 699 569 701 l 574 596 q 546 599 560 599 q 490 588 521 599 q 531 431 531 519 q 501 293 531 356 q 415 194 471 231 q 283 157 358 157 q 224 164 256 157 q 207 138 207 151 q 220 113 207 122 q 264 96 233 104 l 390 64 m 283 586 q 204 543 232 586 q 176 431 176 500 q 204 315 176 358 q 283 272 232 272 q 363 315 335 272 q 390 431 390 358 q 363 543 390 500 q 283 586 335 586 m 310 -232 q 419 -209 378 -232 q 461 -144 461 -186 q 437 -90 461 -110 q 353 -54 413 -71 l 236 -24 q 154 -135 154 -74 q 197 -207 154 -182 q 310 -232 239 -232 m 250 961 l 381 961 l 381 831 l 250 831 l 250 961 z "},"ḡ":{"ha":596,"x_min":29,"x_max":597,"o":"m 390 64 q 549 -9 500 36 q 597 -136 597 -54 q 516 -290 597 -233 q 304 -347 435 -347 q 105 -297 181 -347 q 29 -157 29 -246 q 135 8 29 -60 q 74 103 74 40 q 142 200 74 165 q 64 298 92 238 q 36 431 36 358 q 66 569 36 507 q 151 666 96 631 q 283 701 207 701 q 436 651 374 701 q 551 701 490 701 q 586 699 569 701 l 574 596 q 546 599 560 599 q 490 588 521 599 q 531 431 531 519 q 501 293 531 356 q 415 194 471 231 q 283 157 358 157 q 224 164 256 157 q 207 138 207 151 q 220 113 207 122 q 264 96 233 104 l 390 64 m 283 586 q 204 543 232 586 q 176 431 176 500 q 204 315 176 358 q 283 272 232 272 q 363 315 335 272 q 390 431 390 358 q 363 543 390 500 q 283 586 335 586 m 310 -232 q 419 -209 378 -232 q 461 -144 461 -186 q 437 -90 461 -110 q 353 -54 413 -71 l 236 -24 q 154 -135 154 -74 q 197 -207 154 -182 q 310 -232 239 -232 m 117 933 l 514 933 l 514 832 l 117 832 l 117 933 z "},"h":{"ha":660,"x_min":68,"x_max":596,"o":"m 381 701 q 540 628 485 701 q 596 429 596 554 l 596 0 l 446 0 l 446 410 q 340 575 446 575 q 218 501 265 575 l 218 0 l 68 0 l 68 1042 l 218 1042 l 218 640 q 381 701 282 701 z "},"ħ":{"ha":678,"x_min":1,"x_max":614,"o":"m 399 701 q 558 628 503 701 q 614 429 614 554 l 614 0 l 464 0 l 464 410 q 358 575 464 575 q 236 501 283 575 l 236 0 l 86 0 l 86 815 l 1 815 l 1 924 l 86 924 l 86 1042 l 236 1042 l 236 924 l 432 924 l 432 815 l 236 815 l 236 640 q 399 701 300 701 z "},"ḫ":{"ha":660,"x_min":68,"x_max":596,"o":"m 381 701 q 540 628 485 701 q 596 429 596 554 l 596 0 l 446 0 l 446 410 q 340 575 446 575 q 218 501 265 575 l 218 0 l 68 0 l 68 1042 l 218 1042 l 218 640 q 381 701 282 701 m 332 -314 q 192 -262 243 -314 q 140 -136 140 -211 l 251 -136 q 272 -195 251 -174 q 332 -217 293 -217 q 392 -195 371 -217 q 413 -136 413 -174 l 524 -136 q 472 -262 524 -211 q 332 -314 421 -314 z "},"ĥ":{"ha":660,"x_min":-24,"x_max":596,"o":"m 381 701 q 540 628 485 701 q 596 429 596 554 l 596 0 l 446 0 l 446 410 q 340 575 446 575 q 218 501 265 575 l 218 0 l 68 0 l 68 1042 l 218 1042 l 218 640 q 381 701 282 701 m 310 1206 l 310 1110 l 143 1200 l -24 1110 l -24 1206 l 143 1324 l 310 1206 z "},"ḥ":{"ha":660,"x_min":68,"x_max":596,"o":"m 381 701 q 540 628 485 701 q 596 429 596 554 l 596 0 l 446 0 l 446 410 q 340 575 446 575 q 218 501 265 575 l 218 0 l 68 0 l 68 1042 l 218 1042 l 218 640 q 381 701 282 701 m 267 -112 l 397 -112 l 397 -243 l 267 -243 l 267 -112 z "},"i":{"ha":288,"x_min":68,"x_max":218,"o":"m 68 972 l 218 972 l 218 813 l 68 813 l 68 972 m 68 689 l 218 689 l 218 0 l 68 0 l 68 689 z "},"ı":{"ha":288,"x_min":68,"x_max":219,"o":"m 68 689 l 219 689 l 219 0 l 68 0 l 68 689 z "},"í":{"ha":288,"x_min":39,"x_max":251,"o":"m 68 689 l 219 689 l 219 0 l 68 0 l 68 689 m 39 907 l 251 1039 l 251 888 l 39 806 l 39 907 z "},"ĭ":{"ha":288,"x_min":-47,"x_max":336,"o":"m 68 689 l 219 689 l 219 0 l 68 0 l 68 689 m 144 810 q 4 861 56 810 q -47 988 -47 913 l 64 988 q 85 928 64 950 q 144 907 106 907 q 204 928 183 907 q 225 988 225 950 l 336 988 q 285 861 336 913 q 144 810 233 810 z "},"î":{"ha":288,"x_min":-8,"x_max":297,"o":"m 68 689 l 219 689 l 219 0 l 68 0 l 68 689 m -8 883 l 144 1014 l 297 883 l 297 783 l 144 879 l -8 783 l -8 883 z "},"ȉ":{"ha":288,"x_min":-118,"x_max":301,"o":"m 68 689 l 219 689 l 219 0 l 68 0 l 68 689 m 11 811 l -118 1053 l 28 1053 l 110 811 l 11 811 m 208 811 l 89 1053 l 231 1053 l 301 811 l 208 811 z "},"ï":{"ha":288,"x_min":-29,"x_max":318,"o":"m 68 689 l 219 689 l 219 0 l 68 0 l 68 689 m -29 940 l 93 940 l 93 821 l -29 821 l -29 940 m 196 940 l 318 940 l 318 821 l 196 821 l 196 940 z "},"ḯ":{"ha":288,"x_min":-29,"x_max":318,"o":"m 68 689 l 219 689 l 219 0 l 68 0 l 68 689 m -29 924 l 94 924 l 94 810 l -29 810 l -29 924 m 194 924 l 318 924 l 318 810 l 194 810 l 194 924 m 39 1078 l 251 1189 l 251 1051 l 39 988 l 39 1078 z "},"ị":{"ha":288,"x_min":68,"x_max":218,"o":"m 68 972 l 218 972 l 218 813 l 68 813 l 68 972 m 68 689 l 218 689 l 218 0 l 68 0 l 68 689 m 78 -112 l 208 -112 l 208 -243 l 78 -243 l 78 -112 z "},"ì":{"ha":288,"x_min":38,"x_max":250,"o":"m 68 689 l 219 689 l 219 0 l 68 0 l 68 689 m 38 889 l 38 1044 l 250 910 l 250 804 l 38 889 z "},"ỉ":{"ha":288,"x_min":26,"x_max":247,"o":"m 68 689 l 219 689 l 219 0 l 68 0 l 68 689 m 117 786 q 156 834 144 815 q 167 876 167 853 q 118 922 167 922 q 50 900 86 922 l 26 978 q 125 999 75 999 q 213 967 178 999 q 247 882 247 936 q 228 807 247 839 q 167 738 210 775 l 117 786 z "},"ȋ":{"ha":288,"x_min":-56,"x_max":344,"o":"m 68 689 l 219 689 l 219 0 l 68 0 l 68 689 m 144 983 q 291 933 238 983 q 344 810 344 883 l 231 810 q 208 864 231 844 q 144 883 185 883 q 81 864 104 883 q 58 810 58 844 l -56 810 q -1 933 -56 883 q 144 983 53 983 z "},"ĳ":{"ha":575,"x_min":68,"x_max":507,"o":"m 68 972 l 218 972 l 218 813 l 68 813 l 68 972 m 68 689 l 218 689 l 218 0 l 68 0 l 68 689 m 356 972 l 507 972 l 507 813 l 356 813 l 356 972 m 285 -211 q 341 -187 326 -208 q 356 -106 356 -165 l 356 689 l 507 689 l 507 -153 q 465 -287 507 -243 q 342 -333 424 -331 l 299 -336 l 285 -211 z "},"ī":{"ha":288,"x_min":-54,"x_max":343,"o":"m 68 689 l 219 689 l 219 0 l 68 0 l 68 689 m -54 933 l 343 933 l 343 832 l -54 832 l -54 933 z "},"į":{"ha":288,"x_min":39,"x_max":281,"o":"m 68 972 l 218 972 l 218 813 l 68 813 l 68 972 m 68 689 l 218 689 l 218 0 l 68 0 l 68 689 m 219 0 q 149 -79 174 -44 q 125 -149 125 -114 q 143 -197 125 -181 q 192 -212 161 -212 q 258 -197 218 -212 l 281 -269 q 178 -292 236 -292 q 78 -260 117 -292 q 39 -174 39 -229 q 65 -85 39 -125 q 138 0 92 -44 l 219 0 z "},"ĩ":{"ha":288,"x_min":-62,"x_max":351,"o":"m 68 689 l 219 689 l 219 0 l 68 0 l 68 689 m 240 804 q 194 813 214 804 q 146 840 175 822 q 113 860 126 854 q 83 867 99 867 q 56 853 65 867 q 46 815 46 839 l -62 815 q -31 936 -60 894 q 49 978 -3 978 q 94 969 75 978 q 143 942 114 960 q 176 922 163 928 q 206 915 190 915 q 233 929 224 915 q 243 967 243 943 l 351 967 q 320 846 349 888 q 240 804 292 804 z "},"j":{"ha":288,"x_min":-3,"x_max":219,"o":"m 68 972 l 219 972 l 219 813 l 68 813 l 68 972 m -3 -211 q 53 -187 39 -208 q 68 -106 68 -165 l 68 689 l 219 689 l 219 -153 q 178 -287 219 -243 q 54 -333 136 -331 l 11 -336 l -3 -211 z "},"ȷ":{"ha":288,"x_min":-3,"x_max":219,"o":"m -3 -211 q 53 -187 39 -208 q 68 -106 68 -165 l 68 689 l 219 689 l 219 -153 q 178 -287 219 -243 q 54 -333 136 -331 l 11 -336 l -3 -211 z "},"ĵ":{"ha":288,"x_min":-8,"x_max":297,"o":"m -3 -211 q 53 -187 39 -208 q 68 -106 68 -165 l 68 689 l 219 689 l 219 -153 q 178 -287 219 -243 q 54 -333 136 -331 l 11 -336 l -3 -211 m -8 883 l 144 1014 l 297 883 l 297 783 l 144 879 l -8 783 l -8 883 z "},"k":{"ha":585,"x_min":68,"x_max":579,"o":"m 68 1042 l 218 1042 l 218 401 l 401 689 l 574 689 l 361 367 l 579 0 l 406 0 l 218 326 l 218 0 l 68 0 l 68 1042 z "},"ķ":{"ha":585,"x_min":68,"x_max":579,"o":"m 68 1042 l 218 1042 l 218 401 l 401 689 l 574 689 l 361 367 l 579 0 l 406 0 l 218 326 l 218 0 l 68 0 l 68 1042 m 235 -407 l 290 -256 l 244 -256 l 244 -126 l 381 -126 l 381 -240 l 297 -407 l 235 -407 z "},"ĸ":{"ha":651,"x_min":69,"x_max":646,"o":"m 69 689 l 219 689 l 219 390 l 458 689 l 643 689 l 365 354 l 646 0 l 461 0 l 219 315 l 219 0 l 69 0 l 69 689 z "},"l":{"ha":317,"x_min":68,"x_max":290,"o":"m 221 -14 q 106 34 144 -14 q 68 161 68 82 l 68 1042 l 219 1042 l 219 224 q 224 153 219 176 q 244 122 229 131 q 290 113 258 113 l 276 -14 l 221 -14 z "},"ĺ":{"ha":317,"x_min":38,"x_max":290,"o":"m 221 -14 q 106 34 144 -14 q 68 161 68 82 l 68 1042 l 219 1042 l 219 224 q 224 153 219 176 q 244 122 229 131 q 290 113 258 113 l 276 -14 l 221 -14 m 38 1217 l 250 1328 l 250 1190 l 38 1126 l 38 1217 z "},"ľ":{"ha":386,"x_min":68,"x_max":406,"o":"m 221 -14 q 106 34 144 -14 q 68 161 68 82 l 68 1042 l 219 1042 l 219 224 q 224 153 219 176 q 244 122 229 131 q 290 113 258 113 l 276 -14 l 221 -14 m 275 1042 l 406 1042 l 365 801 l 275 801 l 275 1042 z "},"ļ":{"ha":317,"x_min":68,"x_max":290,"o":"m 221 -14 q 106 34 144 -14 q 68 161 68 82 l 68 1042 l 219 1042 l 219 224 q 224 153 219 176 q 244 122 229 131 q 290 113 258 113 l 276 -14 l 221 -14 m 115 -407 l 171 -256 l 125 -256 l 125 -126 l 261 -126 l 261 -240 l 178 -407 l 115 -407 z "},"ŀ":{"ha":425,"x_min":68,"x_max":425,"o":"m 221 -14 q 106 34 144 -14 q 68 161 68 82 l 68 1042 l 219 1042 l 219 224 q 224 153 219 176 q 244 122 229 131 q 290 113 258 113 l 276 -14 l 221 -14 m 288 653 l 425 653 l 425 500 l 288 500 l 288 653 z "},"ḷ":{"ha":317,"x_min":68,"x_max":290,"o":"m 221 -14 q 106 34 144 -14 q 68 161 68 82 l 68 1042 l 219 1042 l 219 224 q 224 153 219 176 q 244 122 229 131 q 290 113 258 113 l 276 -14 l 221 -14 m 128 -112 l 258 -112 l 258 -243 l 128 -243 l 128 -112 z "},"ǉ":{"ha":604,"x_min":68,"x_max":536,"o":"m 221 -14 q 106 34 144 -14 q 68 161 68 82 l 68 1042 l 219 1042 l 219 224 q 224 153 219 176 q 244 122 229 131 q 290 113 258 113 l 276 -14 l 221 -14 m 385 972 l 536 972 l 536 813 l 385 813 l 385 972 m 314 -211 q 370 -187 356 -208 q 385 -106 385 -165 l 385 689 l 536 689 l 536 -153 q 494 -287 536 -243 q 371 -333 453 -331 l 328 -336 l 314 -211 z "},"ḻ":{"ha":317,"x_min":-6,"x_max":392,"o":"m 221 -14 q 106 34 144 -14 q 68 161 68 82 l 68 1042 l 219 1042 l 219 224 q 224 153 219 176 q 244 122 229 131 q 290 113 258 113 l 276 -14 l 221 -14 m -6 -129 l 392 -129 l 392 -231 l -6 -231 l -6 -129 z "},"ł":{"ha":319,"x_min":-24,"x_max":301,"o":"m 207 599 l 207 224 q 212 153 207 176 q 231 122 217 131 q 278 113 246 113 l 264 -14 l 208 -14 q 94 34 132 -14 q 56 161 56 82 l 56 558 l -24 536 l -24 647 l 56 669 l 56 1042 l 207 1042 l 207 710 l 301 736 l 301 625 l 207 599 z "},"m":{"ha":1036,"x_min":69,"x_max":974,"o":"m 746 701 q 917 628 860 701 q 974 429 974 556 l 974 0 l 822 0 l 822 410 q 797 534 822 493 q 715 575 772 575 q 628 538 658 575 q 597 429 597 500 l 597 0 l 446 0 l 446 410 q 342 575 446 575 q 219 501 267 575 l 219 0 l 69 0 l 69 689 l 196 689 l 204 624 q 376 701 267 701 q 479 676 435 701 q 550 603 524 650 q 631 676 581 650 q 746 701 682 701 z "},"ṃ":{"ha":1036,"x_min":69,"x_max":974,"o":"m 746 701 q 917 628 860 701 q 974 429 974 556 l 974 0 l 822 0 l 822 410 q 797 534 822 493 q 715 575 772 575 q 628 538 658 575 q 597 429 597 500 l 597 0 l 446 0 l 446 410 q 342 575 446 575 q 219 501 267 575 l 219 0 l 69 0 l 69 689 l 196 689 l 204 624 q 376 701 267 701 q 479 676 435 701 q 550 603 524 650 q 631 676 581 650 q 746 701 682 701 m 457 -112 l 588 -112 l 588 -243 l 457 -243 l 457 -112 z "},"n":{"ha":661,"x_min":69,"x_max":597,"o":"m 382 701 q 542 628 488 701 q 597 429 597 554 l 597 0 l 447 0 l 447 410 q 422 533 447 492 q 342 575 396 575 q 219 501 265 575 l 219 0 l 69 0 l 69 689 l 199 689 l 206 625 q 382 701 271 701 z "},"ń":{"ha":661,"x_min":69,"x_max":597,"o":"m 382 701 q 542 628 488 701 q 597 429 597 554 l 597 0 l 447 0 l 447 410 q 422 533 447 492 q 342 575 396 575 q 219 501 265 575 l 219 0 l 69 0 l 69 689 l 199 689 l 206 625 q 382 701 271 701 m 235 899 l 447 1031 l 447 879 l 235 797 l 235 899 z "},"ŉ":{"ha":869,"x_min":74,"x_max":807,"o":"m 74 692 l 129 843 l 83 843 l 83 972 l 219 972 l 219 858 l 136 692 l 74 692 m 592 701 q 752 628 697 701 q 807 429 807 554 l 807 0 l 657 0 l 657 410 q 631 533 657 492 q 551 575 606 575 q 429 501 475 575 l 429 0 l 279 0 l 279 689 l 408 689 l 415 625 q 592 701 481 701 z "},"ň":{"ha":661,"x_min":69,"x_max":597,"o":"m 382 701 q 542 628 488 701 q 597 429 597 554 l 597 0 l 447 0 l 447 410 q 422 533 447 492 q 342 575 396 575 q 219 501 265 575 l 219 0 l 69 0 l 69 689 l 199 689 l 206 625 q 382 701 271 701 m 188 901 l 188 1003 l 340 907 l 493 1003 l 493 901 l 340 772 l 188 901 z "},"ņ":{"ha":661,"x_min":69,"x_max":597,"o":"m 382 701 q 542 628 488 701 q 597 429 597 554 l 597 0 l 447 0 l 447 410 q 422 533 447 492 q 342 575 396 575 q 219 501 265 575 l 219 0 l 69 0 l 69 689 l 199 689 l 206 625 q 382 701 271 701 m 256 -407 l 311 -256 l 265 -256 l 265 -126 l 401 -126 l 401 -240 l 318 -407 l 256 -407 z "},"ṅ":{"ha":661,"x_min":69,"x_max":597,"o":"m 382 701 q 542 628 488 701 q 597 429 597 554 l 597 0 l 447 0 l 447 410 q 422 533 447 492 q 342 575 396 575 q 219 501 265 575 l 219 0 l 69 0 l 69 689 l 199 689 l 206 625 q 382 701 271 701 m 275 953 l 406 953 l 406 822 l 275 822 l 275 953 z "},"ṇ":{"ha":661,"x_min":69,"x_max":597,"o":"m 382 701 q 542 628 488 701 q 597 429 597 554 l 597 0 l 447 0 l 447 410 q 422 533 447 492 q 342 575 396 575 q 219 501 265 575 l 219 0 l 69 0 l 69 689 l 199 689 l 206 625 q 382 701 271 701 m 268 -112 l 399 -112 l 399 -243 l 268 -243 l 268 -112 z "},"ŋ":{"ha":675,"x_min":69,"x_max":611,"o":"m 611 19 q 540 -180 611 -111 q 351 -249 468 -249 q 239 -233 288 -249 l 257 -110 q 340 -122 299 -122 q 426 -90 394 -122 q 457 6 457 -57 l 457 410 q 431 535 457 496 q 347 575 406 575 q 219 504 261 575 l 219 0 l 69 0 l 69 689 l 196 689 l 206 629 q 386 701 285 701 q 555 627 499 701 q 611 424 611 553 l 611 19 z "},"ǌ":{"ha":949,"x_min":69,"x_max":881,"o":"m 382 701 q 542 628 488 701 q 597 429 597 554 l 597 0 l 447 0 l 447 410 q 422 533 447 492 q 342 575 396 575 q 219 501 265 575 l 219 0 l 69 0 l 69 689 l 199 689 l 206 625 q 382 701 271 701 m 729 972 l 881 972 l 881 813 l 729 813 l 729 972 m 658 -211 q 715 -187 700 -208 q 729 -106 729 -165 l 729 689 l 881 689 l 881 -153 q 839 -287 881 -243 q 715 -333 797 -331 l 672 -336 l 658 -211 z "},"ṉ":{"ha":661,"x_min":69,"x_max":597,"o":"m 382 701 q 542 628 488 701 q 597 429 597 554 l 597 0 l 447 0 l 447 410 q 422 533 447 492 q 342 575 396 575 q 219 501 265 575 l 219 0 l 69 0 l 69 689 l 199 689 l 206 625 q 382 701 271 701 m 135 -129 l 532 -129 l 532 -231 l 135 -231 l 135 -129 z "},"ñ":{"ha":661,"x_min":69,"x_max":597,"o":"m 382 701 q 542 628 488 701 q 597 429 597 554 l 597 0 l 447 0 l 447 410 q 422 533 447 492 q 342 575 396 575 q 219 501 265 575 l 219 0 l 69 0 l 69 689 l 199 689 l 206 625 q 382 701 271 701 m 436 796 q 390 805 410 796 q 342 832 371 814 q 308 852 322 846 q 279 858 294 858 q 251 844 261 858 q 242 807 242 831 l 133 807 q 165 928 136 886 q 244 969 193 969 q 290 960 271 969 q 339 933 310 951 q 372 913 358 919 q 401 907 386 907 q 429 921 419 907 q 439 958 439 935 l 547 958 q 516 838 544 879 q 436 796 488 796 z "},"o":{"ha":672,"x_min":33,"x_max":639,"o":"m 336 -14 q 174 34 243 -14 q 69 164 106 82 q 33 344 33 246 q 69 524 33 443 q 174 653 106 606 q 336 701 243 701 q 498 653 429 701 q 603 524 567 606 q 639 344 639 443 q 603 164 639 246 q 498 34 567 82 q 336 -14 429 -14 m 336 113 q 447 175 407 113 q 486 344 486 238 q 447 513 486 450 q 336 575 407 575 q 226 513 267 575 q 186 344 186 450 q 226 175 186 238 q 336 113 265 113 z "},"ó":{"ha":672,"x_min":33,"x_max":639,"o":"m 336 -14 q 174 34 243 -14 q 69 164 106 82 q 33 344 33 246 q 69 524 33 443 q 174 653 106 606 q 336 701 243 701 q 498 653 429 701 q 603 524 567 606 q 639 344 639 443 q 603 164 639 246 q 498 34 567 82 q 336 -14 429 -14 m 336 113 q 447 175 407 113 q 486 344 486 238 q 447 513 486 450 q 336 575 407 575 q 226 513 267 575 q 186 344 186 450 q 226 175 186 238 q 336 113 265 113 m 232 907 l 444 1039 l 444 888 l 232 806 l 232 907 z "},"ŏ":{"ha":672,"x_min":33,"x_max":639,"o":"m 336 -14 q 174 34 243 -14 q 69 164 106 82 q 33 344 33 246 q 69 524 33 443 q 174 653 106 606 q 336 701 243 701 q 498 653 429 701 q 603 524 567 606 q 639 344 639 443 q 603 164 639 246 q 498 34 567 82 q 336 -14 429 -14 m 336 113 q 447 175 407 113 q 486 344 486 238 q 447 513 486 450 q 336 575 407 575 q 226 513 267 575 q 186 344 186 450 q 226 175 186 238 q 336 113 265 113 m 338 810 q 197 861 249 810 q 146 988 146 913 l 257 988 q 278 928 257 950 q 338 907 299 907 q 397 928 376 907 q 418 988 418 950 l 529 988 q 478 861 529 913 q 338 810 426 810 z "},"ô":{"ha":672,"x_min":33,"x_max":639,"o":"m 336 -14 q 174 34 243 -14 q 69 164 106 82 q 33 344 33 246 q 69 524 33 443 q 174 653 106 606 q 336 701 243 701 q 498 653 429 701 q 603 524 567 606 q 639 344 639 443 q 603 164 639 246 q 498 34 567 82 q 336 -14 429 -14 m 336 113 q 447 175 407 113 q 486 344 486 238 q 447 513 486 450 q 336 575 407 575 q 226 513 267 575 q 186 344 186 450 q 226 175 186 238 q 336 113 265 113 m 185 883 l 338 1014 l 490 883 l 490 783 l 338 879 l 185 783 l 185 883 z "},"ố":{"ha":672,"x_min":33,"x_max":658,"o":"m 336 -14 q 174 34 243 -14 q 69 164 106 82 q 33 344 33 246 q 69 524 33 443 q 174 653 106 606 q 336 701 243 701 q 498 653 429 701 q 603 524 567 606 q 639 344 639 443 q 603 164 639 246 q 498 34 567 82 q 336 -14 429 -14 m 336 113 q 447 175 407 113 q 486 344 486 238 q 447 513 486 450 q 336 575 407 575 q 226 513 267 575 q 186 344 186 450 q 226 175 186 238 q 336 113 265 113 m 513 1133 l 658 1133 l 533 963 l 435 963 l 513 1133 m 504 861 l 504 765 l 338 856 l 171 765 l 171 861 l 338 979 l 504 861 z "},"ộ":{"ha":672,"x_min":33,"x_max":639,"o":"m 336 -14 q 174 34 243 -14 q 69 164 106 82 q 33 344 33 246 q 69 524 33 443 q 174 653 106 606 q 336 701 243 701 q 498 653 429 701 q 603 524 567 606 q 639 344 639 443 q 603 164 639 246 q 498 34 567 82 q 336 -14 429 -14 m 336 113 q 447 175 407 113 q 486 344 486 238 q 447 513 486 450 q 336 575 407 575 q 226 513 267 575 q 186 344 186 450 q 226 175 186 238 q 336 113 265 113 m 185 883 l 338 1014 l 490 883 l 490 783 l 338 879 l 185 783 l 185 883 m 272 -112 l 403 -112 l 403 -243 l 272 -243 l 272 -112 z "},"ồ":{"ha":672,"x_min":33,"x_max":639,"o":"m 336 -14 q 174 34 243 -14 q 69 164 106 82 q 33 344 33 246 q 69 524 33 443 q 174 653 106 606 q 336 701 243 701 q 498 653 429 701 q 603 524 567 606 q 639 344 639 443 q 603 164 639 246 q 498 34 567 82 q 336 -14 429 -14 m 336 113 q 447 175 407 113 q 486 344 486 238 q 447 513 486 450 q 336 575 407 575 q 226 513 267 575 q 186 344 186 450 q 226 175 186 238 q 336 113 265 113 m 469 963 l 367 1133 l 504 1133 l 563 963 l 469 963 m 504 861 l 504 765 l 338 856 l 171 765 l 171 861 l 338 979 l 504 861 z "},"ổ":{"ha":672,"x_min":33,"x_max":639,"o":"m 336 -14 q 174 34 243 -14 q 69 164 106 82 q 33 344 33 246 q 69 524 33 443 q 174 653 106 606 q 336 701 243 701 q 498 653 429 701 q 603 524 567 606 q 639 344 639 443 q 603 164 639 246 q 498 34 567 82 q 336 -14 429 -14 m 336 113 q 447 175 407 113 q 486 344 486 238 q 447 513 486 450 q 336 575 407 575 q 226 513 267 575 q 186 344 186 450 q 226 175 186 238 q 336 113 265 113 m 504 851 l 504 756 l 338 846 l 171 756 l 171 851 l 338 969 l 504 851 m 457 986 q 488 1006 478 994 q 497 1036 497 1017 q 450 1076 497 1076 q 382 1057 421 1076 l 358 1136 q 460 1157 410 1157 q 549 1128 514 1157 q 583 1050 583 1100 q 556 976 583 1006 q 475 928 529 947 l 457 986 z "},"ỗ":{"ha":672,"x_min":33,"x_max":639,"o":"m 336 -14 q 174 34 243 -14 q 69 164 106 82 q 33 344 33 246 q 69 524 33 443 q 174 653 106 606 q 336 701 243 701 q 498 653 429 701 q 603 524 567 606 q 639 344 639 443 q 603 164 639 246 q 498 34 567 82 q 336 -14 429 -14 m 336 113 q 447 175 407 113 q 486 344 486 238 q 447 513 486 450 q 336 575 407 575 q 226 513 267 575 q 186 344 186 450 q 226 175 186 238 q 336 113 265 113 m 504 851 l 504 756 l 338 846 l 171 756 l 171 851 l 338 969 l 504 851 m 442 1022 q 395 1031 418 1022 q 343 1053 372 1039 q 305 1069 324 1063 q 271 1076 286 1076 q 231 1032 231 1076 l 131 1032 q 156 1138 131 1101 q 233 1175 182 1175 q 280 1167 257 1175 q 332 1144 303 1158 q 370 1128 351 1135 q 404 1121 389 1121 q 444 1167 444 1121 l 544 1167 q 519 1059 544 1096 q 442 1022 493 1022 z "},"ȍ":{"ha":672,"x_min":33,"x_max":639,"o":"m 336 -14 q 174 34 243 -14 q 69 164 106 82 q 33 344 33 246 q 69 524 33 443 q 174 653 106 606 q 336 701 243 701 q 498 653 429 701 q 603 524 567 606 q 639 344 639 443 q 603 164 639 246 q 498 34 567 82 q 336 -14 429 -14 m 336 113 q 447 175 407 113 q 486 344 486 238 q 447 513 486 450 q 336 575 407 575 q 226 513 267 575 q 186 344 186 450 q 226 175 186 238 q 336 113 265 113 m 204 811 l 75 1053 l 221 1053 l 303 811 l 204 811 m 401 811 l 282 1053 l 424 1053 l 494 811 l 401 811 z "},"ö":{"ha":672,"x_min":33,"x_max":639,"o":"m 336 -14 q 174 34 243 -14 q 69 164 106 82 q 33 344 33 246 q 69 524 33 443 q 174 653 106 606 q 336 701 243 701 q 498 653 429 701 q 603 524 567 606 q 639 344 639 443 q 603 164 639 246 q 498 34 567 82 q 336 -14 429 -14 m 336 113 q 447 175 407 113 q 486 344 486 238 q 447 513 486 450 q 336 575 407 575 q 226 513 267 575 q 186 344 186 450 q 226 175 186 238 q 336 113 265 113 m 164 940 l 286 940 l 286 821 l 164 821 l 164 940 m 389 940 l 511 940 l 511 821 l 389 821 l 389 940 z "},"ȫ":{"ha":672,"x_min":33,"x_max":639,"o":"m 336 -14 q 174 34 243 -14 q 69 164 106 82 q 33 344 33 246 q 69 524 33 443 q 174 653 106 606 q 336 701 243 701 q 498 653 429 701 q 603 524 567 606 q 639 344 639 443 q 603 164 639 246 q 498 34 567 82 q 336 -14 429 -14 m 336 113 q 447 175 407 113 q 486 344 486 238 q 447 513 486 450 q 336 575 407 575 q 226 513 267 575 q 186 344 186 450 q 226 175 186 238 q 336 113 265 113 m 164 924 l 288 924 l 288 810 l 164 810 l 164 924 m 388 924 l 511 924 l 511 810 l 388 810 l 388 924 m 125 1129 l 550 1129 l 550 1032 l 125 1032 l 125 1129 z "},"ȱ":{"ha":672,"x_min":33,"x_max":639,"o":"m 336 -14 q 174 34 243 -14 q 69 164 106 82 q 33 344 33 246 q 69 524 33 443 q 174 653 106 606 q 336 701 243 701 q 498 653 429 701 q 603 524 567 606 q 639 344 639 443 q 603 164 639 246 q 498 34 567 82 q 336 -14 429 -14 m 336 113 q 447 175 407 113 q 486 344 486 238 q 447 513 486 450 q 336 575 407 575 q 226 513 267 575 q 186 344 186 450 q 226 175 186 238 q 336 113 265 113 m 269 947 l 406 947 l 406 817 l 269 817 l 269 947 m 125 1158 l 550 1158 l 550 1061 l 125 1061 l 125 1158 z "},"ọ":{"ha":672,"x_min":33,"x_max":639,"o":"m 336 -14 q 174 34 243 -14 q 69 164 106 82 q 33 344 33 246 q 69 524 33 443 q 174 653 106 606 q 336 701 243 701 q 498 653 429 701 q 603 524 567 606 q 639 344 639 443 q 603 164 639 246 q 498 34 567 82 q 336 -14 429 -14 m 336 113 q 447 175 407 113 q 486 344 486 238 q 447 513 486 450 q 336 575 407 575 q 226 513 267 575 q 186 344 186 450 q 226 175 186 238 q 336 113 265 113 m 272 -112 l 403 -112 l 403 -243 l 272 -243 l 272 -112 z "},"ò":{"ha":672,"x_min":33,"x_max":639,"o":"m 336 -14 q 174 34 243 -14 q 69 164 106 82 q 33 344 33 246 q 69 524 33 443 q 174 653 106 606 q 336 701 243 701 q 498 653 429 701 q 603 524 567 606 q 639 344 639 443 q 603 164 639 246 q 498 34 567 82 q 336 -14 429 -14 m 336 113 q 447 175 407 113 q 486 344 486 238 q 447 513 486 450 q 336 575 407 575 q 226 513 267 575 q 186 344 186 450 q 226 175 186 238 q 336 113 265 113 m 231 889 l 231 1044 l 443 910 l 443 804 l 231 889 z "},"ỏ":{"ha":672,"x_min":33,"x_max":639,"o":"m 336 -14 q 174 34 243 -14 q 69 164 106 82 q 33 344 33 246 q 69 524 33 443 q 174 653 106 606 q 336 701 243 701 q 498 653 429 701 q 603 524 567 606 q 639 344 639 443 q 603 164 639 246 q 498 34 567 82 q 336 -14 429 -14 m 336 113 q 447 175 407 113 q 486 344 486 238 q 447 513 486 450 q 336 575 407 575 q 226 513 267 575 q 186 344 186 450 q 226 175 186 238 q 336 113 265 113 m 310 786 q 349 834 338 815 q 360 876 360 853 q 311 922 360 922 q 243 900 279 922 l 219 978 q 318 999 268 999 q 406 967 371 999 q 440 882 440 936 q 422 807 440 839 q 360 738 403 775 l 310 786 z "},"ơ":{"ha":672,"x_min":33,"x_max":639,"o":"m 538 621 q 613 499 586 571 q 639 344 639 426 q 603 164 639 246 q 498 34 567 82 q 336 -14 429 -14 q 174 34 243 -14 q 69 164 106 82 q 33 344 33 246 q 69 524 33 443 q 174 653 106 606 q 336 701 243 701 q 419 690 378 701 q 497 792 497 699 l 628 792 q 603 690 628 733 q 538 621 579 647 m 336 113 q 447 175 407 113 q 486 344 486 238 q 447 513 486 450 q 336 575 407 575 q 226 513 267 575 q 186 344 186 450 q 226 175 186 238 q 336 113 265 113 z "},"ớ":{"ha":672,"x_min":33,"x_max":639,"o":"m 538 621 q 613 499 586 571 q 639 344 639 426 q 603 164 639 246 q 498 34 567 82 q 336 -14 429 -14 q 174 34 243 -14 q 69 164 106 82 q 33 344 33 246 q 69 524 33 443 q 174 653 106 606 q 336 701 243 701 q 419 690 378 701 q 497 792 497 699 l 628 792 q 603 690 628 733 q 538 621 579 647 m 336 113 q 447 175 407 113 q 486 344 486 238 q 447 513 486 450 q 336 575 407 575 q 226 513 267 575 q 186 344 186 450 q 226 175 186 238 q 336 113 265 113 m 232 907 l 444 1039 l 444 888 l 232 806 l 232 907 z "},"ợ":{"ha":672,"x_min":33,"x_max":639,"o":"m 538 621 q 613 499 586 571 q 639 344 639 426 q 603 164 639 246 q 498 34 567 82 q 336 -14 429 -14 q 174 34 243 -14 q 69 164 106 82 q 33 344 33 246 q 69 524 33 443 q 174 653 106 606 q 336 701 243 701 q 419 690 378 701 q 497 792 497 699 l 628 792 q 603 690 628 733 q 538 621 579 647 m 336 113 q 447 175 407 113 q 486 344 486 238 q 447 513 486 450 q 336 575 407 575 q 226 513 267 575 q 186 344 186 450 q 226 175 186 238 q 336 113 265 113 m 272 -112 l 403 -112 l 403 -243 l 272 -243 l 272 -112 z "},"ờ":{"ha":672,"x_min":33,"x_max":639,"o":"m 538 621 q 613 499 586 571 q 639 344 639 426 q 603 164 639 246 q 498 34 567 82 q 336 -14 429 -14 q 174 34 243 -14 q 69 164 106 82 q 33 344 33 246 q 69 524 33 443 q 174 653 106 606 q 336 701 243 701 q 419 690 378 701 q 497 792 497 699 l 628 792 q 603 690 628 733 q 538 621 579 647 m 336 113 q 447 175 407 113 q 486 344 486 238 q 447 513 486 450 q 336 575 407 575 q 226 513 267 575 q 186 344 186 450 q 226 175 186 238 q 336 113 265 113 m 231 889 l 231 1044 l 443 910 l 443 804 l 231 889 z "},"ở":{"ha":672,"x_min":33,"x_max":639,"o":"m 538 621 q 613 499 586 571 q 639 344 639 426 q 603 164 639 246 q 498 34 567 82 q 336 -14 429 -14 q 174 34 243 -14 q 69 164 106 82 q 33 344 33 246 q 69 524 33 443 q 174 653 106 606 q 336 701 243 701 q 419 690 378 701 q 497 792 497 699 l 628 792 q 603 690 628 733 q 538 621 579 647 m 336 113 q 447 175 407 113 q 486 344 486 238 q 447 513 486 450 q 336 575 407 575 q 226 513 267 575 q 186 344 186 450 q 226 175 186 238 q 336 113 265 113 m 310 786 q 349 834 338 815 q 360 876 360 853 q 311 922 360 922 q 243 900 279 922 l 219 978 q 318 999 268 999 q 406 967 371 999 q 440 882 440 936 q 422 807 440 839 q 360 738 403 775 l 310 786 z "},"ỡ":{"ha":672,"x_min":33,"x_max":639,"o":"m 538 621 q 613 499 586 571 q 639 344 639 426 q 603 164 639 246 q 498 34 567 82 q 336 -14 429 -14 q 174 34 243 -14 q 69 164 106 82 q 33 344 33 246 q 69 524 33 443 q 174 653 106 606 q 336 701 243 701 q 419 690 378 701 q 497 792 497 699 l 628 792 q 603 690 628 733 q 538 621 579 647 m 336 113 q 447 175 407 113 q 486 344 486 238 q 447 513 486 450 q 336 575 407 575 q 226 513 267 575 q 186 344 186 450 q 226 175 186 238 q 336 113 265 113 m 433 804 q 388 813 407 804 q 339 840 368 822 q 306 860 319 854 q 276 867 292 867 q 249 853 258 867 q 239 815 239 839 l 131 815 q 162 936 133 894 q 242 978 190 978 q 288 969 268 978 q 336 942 307 960 q 369 922 356 928 q 399 915 383 915 q 426 929 417 915 q 436 967 436 943 l 544 967 q 513 846 542 888 q 433 804 485 804 z "},"ő":{"ha":672,"x_min":33,"x_max":639,"o":"m 336 -14 q 174 34 243 -14 q 69 164 106 82 q 33 344 33 246 q 69 524 33 443 q 174 653 106 606 q 336 701 243 701 q 498 653 429 701 q 603 524 567 606 q 639 344 639 443 q 603 164 639 246 q 498 34 567 82 q 336 -14 429 -14 m 336 113 q 447 175 407 113 q 486 344 486 238 q 447 513 486 450 q 336 575 407 575 q 226 513 267 575 q 186 344 186 450 q 226 175 186 238 q 336 113 265 113 m 267 1053 l 411 1053 l 283 811 l 188 811 l 267 1053 m 474 1053 l 618 1053 l 481 811 l 383 811 l 474 1053 z "},"ȏ":{"ha":672,"x_min":33,"x_max":639,"o":"m 336 -14 q 174 34 243 -14 q 69 164 106 82 q 33 344 33 246 q 69 524 33 443 q 174 653 106 606 q 336 701 243 701 q 498 653 429 701 q 603 524 567 606 q 639 344 639 443 q 603 164 639 246 q 498 34 567 82 q 336 -14 429 -14 m 336 113 q 447 175 407 113 q 486 344 486 238 q 447 513 486 450 q 336 575 407 575 q 226 513 267 575 q 186 344 186 450 q 226 175 186 238 q 336 113 265 113 m 338 983 q 484 933 431 983 q 538 810 538 883 l 424 810 q 401 864 424 844 q 338 883 378 883 q 274 864 297 883 q 251 810 251 844 l 138 810 q 192 933 138 883 q 338 983 246 983 z "},"ō":{"ha":672,"x_min":33,"x_max":639,"o":"m 336 -14 q 174 34 243 -14 q 69 164 106 82 q 33 344 33 246 q 69 524 33 443 q 174 653 106 606 q 336 701 243 701 q 498 653 429 701 q 603 524 567 606 q 639 344 639 443 q 603 164 639 246 q 498 34 567 82 q 336 -14 429 -14 m 336 113 q 447 175 407 113 q 486 344 486 238 q 447 513 486 450 q 336 575 407 575 q 226 513 267 575 q 186 344 186 450 q 226 175 186 238 q 336 113 265 113 m 139 933 l 536 933 l 536 832 l 139 832 l 139 933 z "},"ṓ":{"ha":672,"x_min":33,"x_max":639,"o":"m 336 -14 q 174 34 243 -14 q 69 164 106 82 q 33 344 33 246 q 69 524 33 443 q 174 653 106 606 q 336 701 243 701 q 498 653 429 701 q 603 524 567 606 q 639 344 639 443 q 603 164 639 246 q 498 34 567 82 q 336 -14 429 -14 m 336 113 q 447 175 407 113 q 486 344 486 238 q 447 513 486 450 q 336 575 407 575 q 226 513 267 575 q 186 344 186 450 q 226 175 186 238 q 336 113 265 113 m 125 915 l 550 915 l 550 818 l 125 818 l 125 915 m 232 1094 l 444 1206 l 444 1068 l 232 1004 l 232 1094 z "},"ṑ":{"ha":672,"x_min":33,"x_max":639,"o":"m 336 -14 q 174 34 243 -14 q 69 164 106 82 q 33 344 33 246 q 69 524 33 443 q 174 653 106 606 q 336 701 243 701 q 498 653 429 701 q 603 524 567 606 q 639 344 639 443 q 603 164 639 246 q 498 34 567 82 q 336 -14 429 -14 m 336 113 q 447 175 407 113 q 486 344 486 238 q 447 513 486 450 q 336 575 407 575 q 226 513 267 575 q 186 344 186 450 q 226 175 186 238 q 336 113 265 113 m 125 915 l 550 915 l 550 818 l 125 818 l 125 915 m 231 1067 l 231 1206 l 443 1094 l 443 1004 l 231 1067 z "},"ǫ":{"ha":672,"x_min":33,"x_max":639,"o":"m 399 -8 q 335 -81 357 -47 q 313 -149 313 -115 q 331 -197 313 -181 q 379 -212 349 -212 q 446 -197 406 -212 l 468 -269 q 365 -292 424 -292 q 265 -260 304 -292 q 226 -174 226 -229 q 249 -91 226 -129 q 311 -12 271 -53 q 163 42 225 -7 q 67 171 100 92 q 33 344 33 250 q 69 524 33 443 q 174 653 106 606 q 336 701 243 701 q 498 653 429 701 q 603 524 567 606 q 639 344 639 443 q 575 113 639 211 q 399 -8 511 15 m 186 344 q 226 175 186 238 q 336 113 265 113 q 447 175 407 113 q 486 344 486 238 q 447 513 486 450 q 336 575 407 575 q 226 513 267 575 q 186 344 186 450 z "},"ø":{"ha":672,"x_min":33,"x_max":639,"o":"m 547 611 q 615 492 592 561 q 639 344 639 424 q 603 164 639 246 q 498 34 567 82 q 336 -14 429 -14 q 204 17 263 -14 l 163 -56 l 54 -56 l 129 74 q 58 193 83 122 q 33 344 33 264 q 69 524 33 443 q 174 653 106 606 q 336 701 243 701 q 472 669 413 701 l 511 736 l 619 736 l 547 611 m 186 344 q 208 211 186 264 l 407 554 q 336 575 375 575 q 226 513 267 575 q 186 344 186 450 m 336 113 q 447 175 407 113 q 486 344 486 238 q 467 471 486 417 l 269 131 q 336 113 301 113 z "},"ǿ":{"ha":672,"x_min":33,"x_max":639,"o":"m 547 611 q 615 492 592 561 q 639 344 639 424 q 603 164 639 246 q 498 34 567 82 q 336 -14 429 -14 q 204 17 263 -14 l 163 -56 l 54 -56 l 129 74 q 58 193 83 122 q 33 344 33 264 q 69 524 33 443 q 174 653 106 606 q 336 701 243 701 q 472 669 413 701 l 511 736 l 619 736 l 547 611 m 186 344 q 208 211 186 264 l 407 554 q 336 575 375 575 q 226 513 267 575 q 186 344 186 450 m 336 113 q 447 175 407 113 q 486 344 486 238 q 467 471 486 417 l 269 131 q 336 113 301 113 m 232 907 l 444 1039 l 444 888 l 232 806 l 232 907 z "},"õ":{"ha":672,"x_min":33,"x_max":639,"o":"m 336 -14 q 174 34 243 -14 q 69 164 106 82 q 33 344 33 246 q 69 524 33 443 q 174 653 106 606 q 336 701 243 701 q 498 653 429 701 q 603 524 567 606 q 639 344 639 443 q 603 164 639 246 q 498 34 567 82 q 336 -14 429 -14 m 336 113 q 447 175 407 113 q 486 344 486 238 q 447 513 486 450 q 336 575 407 575 q 226 513 267 575 q 186 344 186 450 q 226 175 186 238 q 336 113 265 113 m 433 804 q 388 813 407 804 q 339 840 368 822 q 306 860 319 854 q 276 867 292 867 q 249 853 258 867 q 239 815 239 839 l 131 815 q 162 936 133 894 q 242 978 190 978 q 288 969 268 978 q 336 942 307 960 q 369 922 356 928 q 399 915 383 915 q 426 929 417 915 q 436 967 436 943 l 544 967 q 513 846 542 888 q 433 804 485 804 z "},"ṍ":{"ha":672,"x_min":33,"x_max":639,"o":"m 336 -14 q 174 34 243 -14 q 69 164 106 82 q 33 344 33 246 q 69 524 33 443 q 174 653 106 606 q 336 701 243 701 q 498 653 429 701 q 603 524 567 606 q 639 344 639 443 q 603 164 639 246 q 498 34 567 82 q 336 -14 429 -14 m 336 113 q 447 175 407 113 q 486 344 486 238 q 447 513 486 450 q 336 575 407 575 q 226 513 267 575 q 186 344 186 450 q 226 175 186 238 q 336 113 265 113 m 442 801 q 395 810 418 801 q 343 832 372 818 q 305 849 324 842 q 271 856 286 856 q 231 811 231 856 l 131 811 q 156 917 131 881 q 233 954 182 954 q 280 946 257 954 q 332 924 303 938 q 370 907 351 914 q 404 900 389 900 q 444 946 444 900 l 544 946 q 519 838 544 875 q 442 801 493 801 m 232 1099 l 444 1210 l 444 1072 l 232 1008 l 232 1099 z "},"ṏ":{"ha":672,"x_min":33,"x_max":639,"o":"m 336 -14 q 174 34 243 -14 q 69 164 106 82 q 33 344 33 246 q 69 524 33 443 q 174 653 106 606 q 336 701 243 701 q 498 653 429 701 q 603 524 567 606 q 639 344 639 443 q 603 164 639 246 q 498 34 567 82 q 336 -14 429 -14 m 336 113 q 447 175 407 113 q 486 344 486 238 q 447 513 486 450 q 336 575 407 575 q 226 513 267 575 q 186 344 186 450 q 226 175 186 238 q 336 113 265 113 m 442 801 q 395 810 418 801 q 343 832 372 818 q 305 849 324 842 q 271 856 286 856 q 231 811 231 856 l 131 811 q 156 917 131 881 q 233 954 182 954 q 280 946 257 954 q 332 924 303 938 q 370 907 351 914 q 404 900 389 900 q 444 946 444 900 l 544 946 q 519 838 544 875 q 442 801 493 801 m 164 1158 l 288 1158 l 288 1044 l 164 1044 l 164 1158 m 388 1158 l 511 1158 l 511 1044 l 388 1044 l 388 1158 z "},"ȭ":{"ha":672,"x_min":33,"x_max":639,"o":"m 336 -14 q 174 34 243 -14 q 69 164 106 82 q 33 344 33 246 q 69 524 33 443 q 174 653 106 606 q 336 701 243 701 q 498 653 429 701 q 603 524 567 606 q 639 344 639 443 q 603 164 639 246 q 498 34 567 82 q 336 -14 429 -14 m 336 113 q 447 175 407 113 q 486 344 486 238 q 447 513 486 450 q 336 575 407 575 q 226 513 267 575 q 186 344 186 450 q 226 175 186 238 q 336 113 265 113 m 442 801 q 395 810 418 801 q 343 832 372 818 q 305 849 324 842 q 271 856 286 856 q 231 811 231 856 l 131 811 q 156 917 131 881 q 233 954 182 954 q 280 946 257 954 q 332 924 303 938 q 370 907 351 914 q 404 900 389 900 q 444 946 444 900 l 544 946 q 519 838 544 875 q 442 801 493 801 m 125 1150 l 550 1150 l 550 1053 l 125 1053 l 125 1150 z "},"œ":{"ha":1071,"x_min":33,"x_max":1038,"o":"m 1038 414 q 1028 321 1038 365 l 646 321 q 829 117 664 117 q 1004 169 918 117 l 1011 42 q 922 1 972 17 q 811 -14 871 -14 q 667 20 731 -14 q 564 114 604 54 q 467 20 525 54 q 336 -14 410 -14 q 174 34 243 -14 q 69 164 106 82 q 33 344 33 246 q 69 524 33 443 q 174 653 106 606 q 336 701 243 701 q 465 668 408 701 q 561 574 522 635 q 658 667 599 633 q 794 701 718 701 q 972 624 907 701 q 1038 414 1038 547 m 336 117 q 446 178 407 117 q 485 344 485 239 q 445 510 485 449 q 336 571 406 571 q 227 510 267 571 q 188 344 188 449 q 226 178 188 239 q 336 117 265 117 m 885 426 q 860 528 885 486 q 779 571 835 571 q 691 533 725 571 q 647 426 657 496 l 885 426 z "},"p":{"ha":681,"x_min":68,"x_max":653,"o":"m 383 701 q 528 654 468 701 q 621 526 589 607 q 653 344 653 444 q 622 163 653 244 q 529 33 590 81 q 383 -14 468 -14 q 218 46 282 -14 l 218 -336 l 68 -336 l 68 689 l 188 689 l 203 619 q 383 701 276 701 m 356 113 q 460 175 422 113 q 499 344 499 238 q 460 513 499 450 q 356 575 422 575 q 248 513 288 575 q 208 344 208 451 q 248 174 208 235 q 356 113 288 113 z "},"þ":{"ha":682,"x_min":68,"x_max":653,"o":"m 383 701 q 528 654 468 701 q 621 526 589 607 q 653 344 653 444 q 622 163 653 244 q 529 33 590 81 q 383 -14 468 -14 q 291 0 331 -14 q 219 44 251 14 l 219 -336 l 68 -336 l 68 1042 l 219 1042 l 219 636 q 383 701 288 701 m 356 113 q 461 176 422 113 q 500 344 500 239 q 461 513 500 450 q 356 575 422 575 q 248 513 288 575 q 208 344 208 451 q 248 174 208 235 q 356 113 288 113 z "},"q":{"ha":685,"x_min":68,"x_max":653,"o":"m 653 689 l 653 -336 l 501 -336 l 501 38 q 346 -14 439 -14 q 195 33 258 -14 q 100 163 132 81 q 68 344 68 244 q 101 523 68 442 q 197 653 133 604 q 346 701 260 701 q 522 628 451 701 l 538 689 l 653 689 m 367 113 q 475 174 436 113 q 514 344 514 235 q 475 514 514 453 q 367 575 436 575 q 260 513 299 575 q 221 344 221 450 q 260 176 221 239 q 367 113 299 113 z "},"r":{"ha":403,"x_min":68,"x_max":404,"o":"m 68 689 l 197 689 l 210 601 q 288 677 251 653 q 371 701 325 701 q 404 697 389 701 l 392 540 q 349 546 375 546 q 219 476 279 546 l 219 0 l 68 0 l 68 689 z "},"ŕ":{"ha":403,"x_min":68,"x_max":404,"o":"m 68 689 l 197 689 l 210 601 q 288 677 251 653 q 371 701 325 701 q 404 697 389 701 l 392 540 q 349 546 375 546 q 219 476 279 546 l 219 0 l 68 0 l 68 689 m 142 907 l 354 1039 l 354 888 l 142 806 l 142 907 z "},"ř":{"ha":403,"x_min":68,"x_max":404,"o":"m 68 689 l 197 689 l 210 601 q 288 677 251 653 q 371 701 325 701 q 404 697 389 701 l 392 540 q 349 546 375 546 q 219 476 279 546 l 219 0 l 68 0 l 68 689 m 94 910 l 94 1011 l 247 915 l 400 1011 l 400 910 l 247 781 l 94 910 z "},"ŗ":{"ha":403,"x_min":67,"x_max":404,"o":"m 68 689 l 197 689 l 210 601 q 288 677 251 653 q 371 701 325 701 q 404 697 389 701 l 392 540 q 349 546 375 546 q 219 476 279 546 l 219 0 l 68 0 l 68 689 m 67 -407 l 122 -256 l 76 -256 l 76 -126 l 213 -126 l 213 -240 l 129 -407 l 67 -407 z "},"ȑ":{"ha":403,"x_min":-15,"x_max":404,"o":"m 68 689 l 197 689 l 210 601 q 288 677 251 653 q 371 701 325 701 q 404 697 389 701 l 392 540 q 349 546 375 546 q 219 476 279 546 l 219 0 l 68 0 l 68 689 m 114 811 l -15 1053 l 131 1053 l 213 811 l 114 811 m 311 811 l 192 1053 l 333 1053 l 404 811 l 311 811 z "},"ṛ":{"ha":403,"x_min":68,"x_max":404,"o":"m 68 689 l 197 689 l 210 601 q 288 677 251 653 q 371 701 325 701 q 404 697 389 701 l 392 540 q 349 546 375 546 q 219 476 279 546 l 219 0 l 68 0 l 68 689 m 79 -112 l 210 -112 l 210 -243 l 79 -243 l 79 -112 z "},"ȓ":{"ha":403,"x_min":47,"x_max":447,"o":"m 68 689 l 197 689 l 210 601 q 288 677 251 653 q 371 701 325 701 q 404 697 389 701 l 392 540 q 349 546 375 546 q 219 476 279 546 l 219 0 l 68 0 l 68 689 m 247 983 q 394 933 340 983 q 447 810 447 883 l 333 810 q 310 864 333 844 q 247 883 288 883 q 184 864 207 883 q 161 810 161 844 l 47 810 q 101 933 47 883 q 247 983 156 983 z "},"ṟ":{"ha":403,"x_min":-54,"x_max":404,"o":"m 68 689 l 197 689 l 210 601 q 288 677 251 653 q 371 701 325 701 q 404 697 389 701 l 392 540 q 349 546 375 546 q 219 476 279 546 l 219 0 l 68 0 l 68 689 m -54 -129 l 343 -129 l 343 -231 l -54 -231 l -54 -129 z "},"s":{"ha":508,"x_min":42,"x_max":479,"o":"m 244 -14 q 138 -1 186 -14 q 42 38 89 11 l 57 175 q 233 108 154 108 q 307 127 281 108 q 333 181 333 146 q 308 240 333 218 q 207 299 283 263 q 85 383 124 338 q 47 504 47 428 q 109 647 47 592 q 276 701 171 701 q 456 653 375 701 l 440 521 q 366 567 401 551 q 286 583 331 583 q 218 565 243 583 q 193 513 193 546 q 218 458 193 478 q 318 401 243 439 q 442 313 404 360 q 479 190 479 265 q 415 41 479 96 q 244 -14 351 -14 z "},"ś":{"ha":508,"x_min":42,"x_max":479,"o":"m 244 -14 q 138 -1 186 -14 q 42 38 89 11 l 57 175 q 233 108 154 108 q 307 127 281 108 q 333 181 333 146 q 308 240 333 218 q 207 299 283 263 q 85 383 124 338 q 47 504 47 428 q 109 647 47 592 q 276 701 171 701 q 456 653 375 701 l 440 521 q 366 567 401 551 q 286 583 331 583 q 218 565 243 583 q 193 513 193 546 q 218 458 193 478 q 318 401 243 439 q 442 313 404 360 q 479 190 479 265 q 415 41 479 96 q 244 -14 351 -14 m 171 907 l 383 1039 l 383 888 l 171 806 l 171 907 z "},"ṥ":{"ha":508,"x_min":42,"x_max":479,"o":"m 244 -14 q 138 -1 186 -14 q 42 38 89 11 l 57 175 q 233 108 154 108 q 307 127 281 108 q 333 181 333 146 q 308 240 333 218 q 207 299 283 263 q 85 383 124 338 q 47 504 47 428 q 109 647 47 592 q 276 701 171 701 q 456 653 375 701 l 440 521 q 366 567 401 551 q 286 583 331 583 q 218 565 243 583 q 193 513 193 546 q 218 458 193 478 q 318 401 243 439 q 442 313 404 360 q 479 190 479 265 q 415 41 479 96 q 244 -14 351 -14 m 171 864 l 383 975 l 383 838 l 171 774 l 171 864 m 208 1172 l 344 1172 l 344 1042 l 208 1042 l 208 1172 z "},"š":{"ha":508,"x_min":42,"x_max":479,"o":"m 244 -14 q 138 -1 186 -14 q 42 38 89 11 l 57 175 q 233 108 154 108 q 307 127 281 108 q 333 181 333 146 q 308 240 333 218 q 207 299 283 263 q 85 383 124 338 q 47 504 47 428 q 109 647 47 592 q 276 701 171 701 q 456 653 375 701 l 440 521 q 366 567 401 551 q 286 583 331 583 q 218 565 243 583 q 193 513 193 546 q 218 458 193 478 q 318 401 243 439 q 442 313 404 360 q 479 190 479 265 q 415 41 479 96 q 244 -14 351 -14 m 124 910 l 124 1011 l 276 915 l 429 1011 l 429 910 l 276 781 l 124 910 z "},"ṧ":{"ha":508,"x_min":42,"x_max":479,"o":"m 244 -14 q 138 -1 186 -14 q 42 38 89 11 l 57 175 q 233 108 154 108 q 307 127 281 108 q 333 181 333 146 q 308 240 333 218 q 207 299 283 263 q 85 383 124 338 q 47 504 47 428 q 109 647 47 592 q 276 701 171 701 q 456 653 375 701 l 440 521 q 366 567 401 551 q 286 583 331 583 q 218 565 243 583 q 193 513 193 546 q 218 458 193 478 q 318 401 243 439 q 442 313 404 360 q 479 190 479 265 q 415 41 479 96 q 244 -14 351 -14 m 110 921 l 110 1017 l 276 926 l 443 1017 l 443 921 l 276 803 l 110 921 m 208 1206 l 344 1206 l 344 1075 l 208 1075 l 208 1206 z "},"ş":{"ha":508,"x_min":42,"x_max":479,"o":"m 479 190 q 429 54 479 107 q 293 -11 379 1 l 272 -78 q 355 -110 325 -79 q 385 -193 385 -140 q 344 -290 385 -256 q 242 -325 304 -325 q 144 -307 189 -325 l 168 -235 q 239 -250 203 -250 q 287 -236 269 -250 q 304 -196 304 -222 q 289 -156 304 -169 q 244 -142 274 -142 q 190 -151 222 -142 l 224 -14 q 42 38 128 -10 l 57 175 q 233 108 154 108 q 307 127 281 108 q 333 181 333 146 q 308 240 333 218 q 207 299 283 263 q 85 383 124 338 q 47 504 47 428 q 109 647 47 592 q 276 701 171 701 q 456 653 375 701 l 440 521 q 366 567 401 551 q 286 583 331 583 q 218 565 243 583 q 193 513 193 546 q 218 458 193 478 q 318 401 243 439 q 442 313 404 360 q 479 190 479 265 z "},"ŝ":{"ha":508,"x_min":42,"x_max":479,"o":"m 244 -14 q 138 -1 186 -14 q 42 38 89 11 l 57 175 q 233 108 154 108 q 307 127 281 108 q 333 181 333 146 q 308 240 333 218 q 207 299 283 263 q 85 383 124 338 q 47 504 47 428 q 109 647 47 592 q 276 701 171 701 q 456 653 375 701 l 440 521 q 366 567 401 551 q 286 583 331 583 q 218 565 243 583 q 193 513 193 546 q 218 458 193 478 q 318 401 243 439 q 442 313 404 360 q 479 190 479 265 q 415 41 479 96 q 244 -14 351 -14 m 124 883 l 276 1014 l 429 883 l 429 783 l 276 879 l 124 783 l 124 883 z "},"ș":{"ha":508,"x_min":42,"x_max":479,"o":"m 244 -14 q 138 -1 186 -14 q 42 38 89 11 l 57 175 q 233 108 154 108 q 307 127 281 108 q 333 181 333 146 q 308 240 333 218 q 207 299 283 263 q 85 383 124 338 q 47 504 47 428 q 109 647 47 592 q 276 701 171 701 q 456 653 375 701 l 440 521 q 366 567 401 551 q 286 583 331 583 q 218 565 243 583 q 193 513 193 546 q 218 458 193 478 q 318 401 243 439 q 442 313 404 360 q 479 190 479 265 q 415 41 479 96 q 244 -14 351 -14 m 169 -407 l 225 -256 l 179 -256 l 179 -126 l 315 -126 l 315 -240 l 232 -407 l 169 -407 z "},"ṡ":{"ha":508,"x_min":42,"x_max":479,"o":"m 244 -14 q 138 -1 186 -14 q 42 38 89 11 l 57 175 q 233 108 154 108 q 307 127 281 108 q 333 181 333 146 q 308 240 333 218 q 207 299 283 263 q 85 383 124 338 q 47 504 47 428 q 109 647 47 592 q 276 701 171 701 q 456 653 375 701 l 440 521 q 366 567 401 551 q 286 583 331 583 q 218 565 243 583 q 193 513 193 546 q 218 458 193 478 q 318 401 243 439 q 442 313 404 360 q 479 190 479 265 q 415 41 479 96 q 244 -14 351 -14 m 211 961 l 342 961 l 342 831 l 211 831 l 211 961 z "},"ṣ":{"ha":508,"x_min":42,"x_max":479,"o":"m 244 -14 q 138 -1 186 -14 q 42 38 89 11 l 57 175 q 233 108 154 108 q 307 127 281 108 q 333 181 333 146 q 308 240 333 218 q 207 299 283 263 q 85 383 124 338 q 47 504 47 428 q 109 647 47 592 q 276 701 171 701 q 456 653 375 701 l 440 521 q 366 567 401 551 q 286 583 331 583 q 218 565 243 583 q 193 513 193 546 q 218 458 193 478 q 318 401 243 439 q 442 313 404 360 q 479 190 479 265 q 415 41 479 96 q 244 -14 351 -14 m 182 -112 l 313 -112 l 313 -243 l 182 -243 l 182 -112 z "},"ṩ":{"ha":508,"x_min":42,"x_max":479,"o":"m 244 -14 q 138 -1 186 -14 q 42 38 89 11 l 57 175 q 233 108 154 108 q 307 127 281 108 q 333 181 333 146 q 308 240 333 218 q 207 299 283 263 q 85 383 124 338 q 47 504 47 428 q 109 647 47 592 q 276 701 171 701 q 456 653 375 701 l 440 521 q 366 567 401 551 q 286 583 331 583 q 218 565 243 583 q 193 513 193 546 q 218 458 193 478 q 318 401 243 439 q 442 313 404 360 q 479 190 479 265 q 415 41 479 96 q 244 -14 351 -14 m 211 961 l 342 961 l 342 831 l 211 831 l 211 961 m 182 -112 l 313 -112 l 313 -243 l 182 -243 l 182 -112 z "},"ß":{"ha":743,"x_min":22,"x_max":722,"o":"m 442 -19 q 319 -4 385 -19 l 319 121 q 442 107 376 107 q 534 137 500 107 q 568 221 568 167 q 542 303 568 272 q 460 371 515 333 q 374 443 403 410 q 346 531 346 476 q 365 606 346 571 q 425 689 385 642 q 482 767 467 739 q 497 832 497 794 q 470 907 497 879 q 392 935 443 935 q 290 885 326 935 q 253 749 253 836 l 253 0 l 103 0 l 103 564 l 22 564 l 36 689 l 103 689 l 103 746 q 181 979 103 897 q 397 1061 260 1061 q 578 1001 510 1061 q 647 843 647 942 q 631 751 647 789 q 576 668 615 714 q 513 594 528 615 q 499 547 499 572 q 519 500 499 521 q 581 449 539 479 q 654 388 626 414 q 702 320 682 361 q 722 224 722 279 q 684 91 722 146 q 582 8 646 36 q 442 -19 518 -19 z "},"t":{"ha":415,"x_min":22,"x_max":388,"o":"m 268 -14 q 148 33 189 -14 q 107 161 107 79 l 107 564 l 22 564 l 36 689 l 107 689 l 107 847 l 257 864 l 257 689 l 388 689 l 388 564 l 257 564 l 257 206 q 276 135 257 157 q 340 113 296 113 l 388 113 l 374 -14 l 268 -14 z "},"ŧ":{"ha":415,"x_min":22,"x_max":388,"o":"m 257 564 l 257 425 l 379 425 l 379 321 l 257 321 l 257 206 q 276 135 257 157 q 340 113 296 113 l 388 113 l 374 -14 l 268 -14 q 148 33 189 -14 q 107 161 107 79 l 107 321 l 22 321 l 22 425 l 107 425 l 107 564 l 22 564 l 36 689 l 107 689 l 107 847 l 257 864 l 257 689 l 388 689 l 388 564 l 257 564 z "},"ť":{"ha":415,"x_min":22,"x_max":438,"o":"m 268 -14 q 148 33 189 -14 q 107 161 107 79 l 107 564 l 22 564 l 36 689 l 107 689 l 107 847 l 257 864 l 257 689 l 388 689 l 388 564 l 257 564 l 257 206 q 276 135 257 157 q 340 113 296 113 l 388 113 l 374 -14 l 268 -14 m 307 996 l 438 996 l 397 756 l 307 756 l 307 996 z "},"ţ":{"ha":415,"x_min":22,"x_max":393,"o":"m 281 -78 q 363 -110 333 -79 q 393 -193 393 -140 q 353 -290 393 -256 q 250 -325 313 -325 q 153 -307 197 -325 l 176 -235 q 247 -250 211 -250 q 295 -236 278 -250 q 313 -196 313 -222 q 297 -156 313 -169 q 253 -142 282 -142 q 199 -151 231 -142 l 232 -11 q 139 44 171 -1 q 107 161 107 89 l 107 564 l 22 564 l 36 689 l 107 689 l 107 847 l 257 864 l 257 689 l 388 689 l 388 564 l 257 564 l 257 206 q 276 135 257 157 q 340 113 296 113 l 388 113 l 374 -14 l 300 -14 l 281 -78 z "},"ț":{"ha":415,"x_min":22,"x_max":388,"o":"m 268 -14 q 148 33 189 -14 q 107 161 107 79 l 107 564 l 22 564 l 36 689 l 107 689 l 107 847 l 257 864 l 257 689 l 388 689 l 388 564 l 257 564 l 257 206 q 276 135 257 157 q 340 113 296 113 l 388 113 l 374 -14 l 268 -14 m 178 -407 l 233 -256 l 188 -256 l 188 -126 l 324 -126 l 324 -240 l 240 -407 l 178 -407 z "},"ẗ":{"ha":415,"x_min":8,"x_max":388,"o":"m 268 -14 q 148 33 189 -14 q 107 161 107 79 l 107 564 l 22 564 l 36 689 l 107 689 l 107 847 l 257 864 l 257 689 l 388 689 l 388 564 l 257 564 l 257 206 q 276 135 257 157 q 340 113 296 113 l 388 113 l 374 -14 l 268 -14 m 8 1106 l 131 1106 l 131 986 l 8 986 l 8 1106 m 233 1106 l 356 1106 l 356 986 l 233 986 l 233 1106 z "},"ṭ":{"ha":415,"x_min":22,"x_max":388,"o":"m 268 -14 q 148 33 189 -14 q 107 161 107 79 l 107 564 l 22 564 l 36 689 l 107 689 l 107 847 l 257 864 l 257 689 l 388 689 l 388 564 l 257 564 l 257 206 q 276 135 257 157 q 340 113 296 113 l 388 113 l 374 -14 l 268 -14 m 190 -112 l 321 -112 l 321 -243 l 190 -243 l 190 -112 z "},"ṯ":{"ha":415,"x_min":22,"x_max":454,"o":"m 268 -14 q 148 33 189 -14 q 107 161 107 79 l 107 564 l 22 564 l 36 689 l 107 689 l 107 847 l 257 864 l 257 689 l 388 689 l 388 564 l 257 564 l 257 206 q 276 135 257 157 q 340 113 296 113 l 388 113 l 374 -14 l 268 -14 m 57 -129 l 454 -129 l 454 -231 l 57 -231 l 57 -129 z "},"u":{"ha":654,"x_min":64,"x_max":588,"o":"m 588 689 l 588 0 l 457 0 l 450 63 q 276 -12 386 -12 q 117 58 171 -12 q 64 250 64 128 l 64 689 l 214 689 l 214 269 q 317 115 214 115 q 436 185 389 115 l 436 689 l 588 689 z "},"ú":{"ha":654,"x_min":64,"x_max":588,"o":"m 588 689 l 588 0 l 457 0 l 450 63 q 276 -12 386 -12 q 117 58 171 -12 q 64 250 64 128 l 64 689 l 214 689 l 214 269 q 317 115 214 115 q 436 185 389 115 l 436 689 l 588 689 m 219 907 l 432 1039 l 432 888 l 219 806 l 219 907 z "},"ŭ":{"ha":654,"x_min":64,"x_max":588,"o":"m 588 689 l 588 0 l 457 0 l 450 63 q 276 -12 386 -12 q 117 58 171 -12 q 64 250 64 128 l 64 689 l 214 689 l 214 269 q 317 115 214 115 q 436 185 389 115 l 436 689 l 588 689 m 325 810 q 185 861 236 810 q 133 988 133 913 l 244 988 q 265 928 244 950 q 325 907 286 907 q 385 928 364 907 q 406 988 406 950 l 517 988 q 465 861 517 913 q 325 810 414 810 z "},"û":{"ha":654,"x_min":64,"x_max":588,"o":"m 588 689 l 588 0 l 457 0 l 450 63 q 276 -12 386 -12 q 117 58 171 -12 q 64 250 64 128 l 64 689 l 214 689 l 214 269 q 317 115 214 115 q 436 185 389 115 l 436 689 l 588 689 m 172 883 l 325 1014 l 478 883 l 478 783 l 325 879 l 172 783 l 172 883 z "},"ȕ":{"ha":654,"x_min":63,"x_max":588,"o":"m 588 689 l 588 0 l 457 0 l 450 63 q 276 -12 386 -12 q 117 58 171 -12 q 64 250 64 128 l 64 689 l 214 689 l 214 269 q 317 115 214 115 q 436 185 389 115 l 436 689 l 588 689 m 192 811 l 63 1053 l 208 1053 l 290 811 l 192 811 m 389 811 l 269 1053 l 411 1053 l 482 811 l 389 811 z "},"ü":{"ha":654,"x_min":64,"x_max":588,"o":"m 588 689 l 588 0 l 457 0 l 450 63 q 276 -12 386 -12 q 117 58 171 -12 q 64 250 64 128 l 64 689 l 214 689 l 214 269 q 317 115 214 115 q 436 185 389 115 l 436 689 l 588 689 m 151 940 l 274 940 l 274 821 l 151 821 l 151 940 m 376 940 l 499 940 l 499 821 l 376 821 l 376 940 z "},"ụ":{"ha":654,"x_min":64,"x_max":588,"o":"m 588 689 l 588 0 l 457 0 l 450 63 q 276 -12 386 -12 q 117 58 171 -12 q 64 250 64 128 l 64 689 l 214 689 l 214 269 q 317 115 214 115 q 436 185 389 115 l 436 689 l 588 689 m 247 -112 l 378 -112 l 378 -243 l 247 -243 l 247 -112 z "},"ù":{"ha":654,"x_min":64,"x_max":588,"o":"m 588 689 l 588 0 l 457 0 l 450 63 q 276 -12 386 -12 q 117 58 171 -12 q 64 250 64 128 l 64 689 l 214 689 l 214 269 q 317 115 214 115 q 436 185 389 115 l 436 689 l 588 689 m 218 889 l 218 1044 l 431 910 l 431 804 l 218 889 z "},"ủ":{"ha":654,"x_min":64,"x_max":588,"o":"m 588 689 l 588 0 l 457 0 l 450 63 q 276 -12 386 -12 q 117 58 171 -12 q 64 250 64 128 l 64 689 l 214 689 l 214 269 q 317 115 214 115 q 436 185 389 115 l 436 689 l 588 689 m 297 786 q 336 834 325 815 q 347 876 347 853 q 299 922 347 922 q 231 900 267 922 l 207 978 q 306 999 256 999 q 393 967 358 999 q 428 882 428 936 q 409 807 428 839 q 347 738 390 775 l 297 786 z "},"ư":{"ha":654,"x_min":64,"x_max":704,"o":"m 588 689 l 588 0 l 457 0 l 450 63 q 276 -12 386 -12 q 117 58 171 -12 q 64 250 64 128 l 64 689 l 214 689 l 214 269 q 317 115 214 115 q 436 185 389 115 l 436 689 l 588 689 m 475 689 q 574 792 574 689 l 704 792 q 638 638 704 693 q 475 583 572 583 l 475 689 z "},"ứ":{"ha":654,"x_min":64,"x_max":704,"o":"m 588 689 l 588 0 l 457 0 l 450 63 q 276 -12 386 -12 q 117 58 171 -12 q 64 250 64 128 l 64 689 l 214 689 l 214 269 q 317 115 214 115 q 436 185 389 115 l 436 689 l 588 689 m 475 689 q 574 792 574 689 l 704 792 q 638 638 704 693 q 475 583 572 583 l 475 689 m 219 907 l 432 1039 l 432 888 l 219 806 l 219 907 z "},"ự":{"ha":654,"x_min":64,"x_max":704,"o":"m 588 689 l 588 0 l 457 0 l 450 63 q 276 -12 386 -12 q 117 58 171 -12 q 64 250 64 128 l 64 689 l 214 689 l 214 269 q 317 115 214 115 q 436 185 389 115 l 436 689 l 588 689 m 475 689 q 574 792 574 689 l 704 792 q 638 638 704 693 q 475 583 572 583 l 475 689 m 247 -112 l 378 -112 l 378 -243 l 247 -243 l 247 -112 z "},"ừ":{"ha":654,"x_min":64,"x_max":704,"o":"m 588 689 l 588 0 l 457 0 l 450 63 q 276 -12 386 -12 q 117 58 171 -12 q 64 250 64 128 l 64 689 l 214 689 l 214 269 q 317 115 214 115 q 436 185 389 115 l 436 689 l 588 689 m 475 689 q 574 792 574 689 l 704 792 q 638 638 704 693 q 475 583 572 583 l 475 689 m 218 889 l 218 1044 l 431 910 l 431 804 l 218 889 z "},"ử":{"ha":654,"x_min":64,"x_max":704,"o":"m 588 689 l 588 0 l 457 0 l 450 63 q 276 -12 386 -12 q 117 58 171 -12 q 64 250 64 128 l 64 689 l 214 689 l 214 269 q 317 115 214 115 q 436 185 389 115 l 436 689 l 588 689 m 475 689 q 574 792 574 689 l 704 792 q 638 638 704 693 q 475 583 572 583 l 475 689 m 297 786 q 336 834 325 815 q 347 876 347 853 q 299 922 347 922 q 231 900 267 922 l 207 978 q 306 999 256 999 q 393 967 358 999 q 428 882 428 936 q 409 807 428 839 q 347 738 390 775 l 297 786 z "},"ữ":{"ha":654,"x_min":64,"x_max":704,"o":"m 588 689 l 588 0 l 457 0 l 450 63 q 276 -12 386 -12 q 117 58 171 -12 q 64 250 64 128 l 64 689 l 214 689 l 214 269 q 317 115 214 115 q 436 185 389 115 l 436 689 l 588 689 m 475 689 q 574 792 574 689 l 704 792 q 638 638 704 693 q 475 583 572 583 l 475 689 m 421 804 q 375 813 394 804 q 326 840 356 822 q 293 860 307 854 q 264 867 279 867 q 236 853 246 867 q 226 815 226 839 l 118 815 q 149 936 121 894 q 229 978 178 978 q 275 969 256 978 q 324 942 294 960 q 357 922 343 928 q 386 915 371 915 q 414 929 404 915 q 424 967 424 943 l 532 967 q 501 846 529 888 q 421 804 472 804 z "},"ű":{"ha":654,"x_min":64,"x_max":606,"o":"m 588 689 l 588 0 l 457 0 l 450 63 q 276 -12 386 -12 q 117 58 171 -12 q 64 250 64 128 l 64 689 l 214 689 l 214 269 q 317 115 214 115 q 436 185 389 115 l 436 689 l 588 689 m 254 1053 l 399 1053 l 271 811 l 175 811 l 254 1053 m 461 1053 l 606 1053 l 468 811 l 371 811 l 461 1053 z "},"ȗ":{"ha":654,"x_min":64,"x_max":588,"o":"m 588 689 l 588 0 l 457 0 l 450 63 q 276 -12 386 -12 q 117 58 171 -12 q 64 250 64 128 l 64 689 l 214 689 l 214 269 q 317 115 214 115 q 436 185 389 115 l 436 689 l 588 689 m 325 983 q 472 933 418 983 q 525 810 525 883 l 411 810 q 388 864 411 844 q 325 883 365 883 q 262 864 285 883 q 239 810 239 844 l 125 810 q 179 933 125 883 q 325 983 233 983 z "},"ū":{"ha":654,"x_min":64,"x_max":588,"o":"m 588 689 l 588 0 l 457 0 l 450 63 q 276 -12 386 -12 q 117 58 171 -12 q 64 250 64 128 l 64 689 l 214 689 l 214 269 q 317 115 214 115 q 436 185 389 115 l 436 689 l 588 689 m 126 933 l 524 933 l 524 832 l 126 832 l 126 933 z "},"ṻ":{"ha":654,"x_min":64,"x_max":588,"o":"m 588 689 l 588 0 l 457 0 l 450 63 q 276 -12 386 -12 q 117 58 171 -12 q 64 250 64 128 l 64 689 l 214 689 l 214 269 q 317 115 214 115 q 436 185 389 115 l 436 689 l 588 689 m 113 915 l 538 915 l 538 818 l 113 818 l 113 915 m 151 1154 l 275 1154 l 275 1040 l 151 1040 l 151 1154 m 375 1154 l 499 1154 l 499 1040 l 375 1040 l 375 1154 z "},"ų":{"ha":654,"x_min":64,"x_max":649,"o":"m 649 -269 q 546 -292 604 -292 q 446 -260 485 -292 q 407 -174 407 -229 q 433 -85 407 -125 q 506 0 460 -44 l 457 0 l 450 63 q 276 -12 386 -12 q 117 58 171 -12 q 64 250 64 128 l 64 689 l 214 689 l 214 269 q 317 115 214 115 q 436 185 389 115 l 436 689 l 588 689 l 588 0 q 517 -79 542 -44 q 493 -149 493 -114 q 511 -197 493 -181 q 560 -212 529 -212 q 626 -197 586 -212 l 649 -269 z "},"ů":{"ha":654,"x_min":64,"x_max":588,"o":"m 588 689 l 588 0 l 457 0 l 450 63 q 276 -12 386 -12 q 117 58 171 -12 q 64 250 64 128 l 64 689 l 214 689 l 214 269 q 317 115 214 115 q 436 185 389 115 l 436 689 l 588 689 m 325 790 q 228 829 263 790 q 194 926 194 868 q 228 1024 194 985 q 325 1064 263 1064 q 422 1024 389 1064 q 456 926 456 985 q 422 829 456 868 q 325 790 389 790 m 325 857 q 366 876 351 857 q 381 926 381 894 q 365 978 381 958 q 325 997 350 997 q 285 978 300 997 q 269 926 269 958 q 284 876 269 894 q 325 857 299 857 z "},"ũ":{"ha":654,"x_min":64,"x_max":588,"o":"m 588 689 l 588 0 l 457 0 l 450 63 q 276 -12 386 -12 q 117 58 171 -12 q 64 250 64 128 l 64 689 l 214 689 l 214 269 q 317 115 214 115 q 436 185 389 115 l 436 689 l 588 689 m 421 804 q 375 813 394 804 q 326 840 356 822 q 293 860 307 854 q 264 867 279 867 q 236 853 246 867 q 226 815 226 839 l 118 815 q 149 936 121 894 q 229 978 178 978 q 275 969 256 978 q 324 942 294 960 q 357 922 343 928 q 386 915 371 915 q 414 929 404 915 q 424 967 424 943 l 532 967 q 501 846 529 888 q 421 804 472 804 z "},"ṹ":{"ha":654,"x_min":64,"x_max":588,"o":"m 588 689 l 588 0 l 457 0 l 450 63 q 276 -12 386 -12 q 117 58 171 -12 q 64 250 64 128 l 64 689 l 214 689 l 214 269 q 317 115 214 115 q 436 185 389 115 l 436 689 l 588 689 m 429 801 q 383 810 406 801 q 331 832 360 818 q 292 849 311 842 q 258 856 274 856 q 218 811 218 856 l 118 811 q 144 917 118 881 q 221 954 169 954 q 267 946 244 954 q 319 924 290 938 q 358 907 339 914 q 392 900 376 900 q 432 946 432 900 l 532 946 q 506 838 532 875 q 429 801 481 801 m 219 1099 l 432 1210 l 432 1072 l 219 1008 l 219 1099 z "},"v":{"ha":607,"x_min":4,"x_max":603,"o":"m 4 689 l 161 689 l 304 194 l 444 689 l 603 689 l 372 0 l 236 0 l 4 689 z "},"w":{"ha":865,"x_min":4,"x_max":861,"o":"m 4 689 l 160 689 l 264 192 l 368 674 l 499 674 l 606 192 l 706 689 l 861 689 l 675 0 l 540 0 l 433 468 l 326 0 l 192 0 l 4 689 z "},"ẃ":{"ha":865,"x_min":4,"x_max":861,"o":"m 4 689 l 160 689 l 264 192 l 368 674 l 499 674 l 606 192 l 706 689 l 861 689 l 675 0 l 540 0 l 433 468 l 326 0 l 192 0 l 4 689 m 328 907 l 540 1039 l 540 888 l 328 806 l 328 907 z "},"ŵ":{"ha":865,"x_min":4,"x_max":861,"o":"m 4 689 l 160 689 l 264 192 l 368 674 l 499 674 l 606 192 l 706 689 l 861 689 l 675 0 l 540 0 l 433 468 l 326 0 l 192 0 l 4 689 m 281 883 l 433 1014 l 586 883 l 586 783 l 433 879 l 281 783 l 281 883 z "},"ẅ":{"ha":865,"x_min":4,"x_max":861,"o":"m 4 689 l 160 689 l 264 192 l 368 674 l 499 674 l 606 192 l 706 689 l 861 689 l 675 0 l 540 0 l 433 468 l 326 0 l 192 0 l 4 689 m 260 940 l 382 940 l 382 821 l 260 821 l 260 940 m 485 940 l 607 940 l 607 821 l 485 821 l 485 940 z "},"ẁ":{"ha":865,"x_min":4,"x_max":861,"o":"m 4 689 l 160 689 l 264 192 l 368 674 l 499 674 l 606 192 l 706 689 l 861 689 l 675 0 l 540 0 l 433 468 l 326 0 l 192 0 l 4 689 m 326 889 l 326 1044 l 539 910 l 539 804 l 326 889 z "},"x":{"ha":583,"x_min":8,"x_max":574,"o":"m 206 344 l 8 689 l 179 689 l 294 461 l 404 689 l 574 689 l 375 349 l 574 0 l 403 0 l 286 228 l 179 0 l 8 0 l 206 344 z "},"y":{"ha":649,"x_min":10,"x_max":639,"o":"m 250 32 l 10 689 l 167 689 l 326 206 l 481 689 l 639 689 l 264 -336 l 110 -336 l 250 32 z "},"ý":{"ha":649,"x_min":10,"x_max":639,"o":"m 250 32 l 10 689 l 167 689 l 326 206 l 481 689 l 639 689 l 264 -336 l 110 -336 l 250 32 m 219 907 l 432 1039 l 432 888 l 219 806 l 219 907 z "},"ŷ":{"ha":649,"x_min":10,"x_max":639,"o":"m 250 32 l 10 689 l 167 689 l 326 206 l 481 689 l 639 689 l 264 -336 l 110 -336 l 250 32 m 172 883 l 325 1014 l 478 883 l 478 783 l 325 879 l 172 783 l 172 883 z "},"ÿ":{"ha":649,"x_min":10,"x_max":639,"o":"m 250 32 l 10 689 l 167 689 l 326 206 l 481 689 l 639 689 l 264 -336 l 110 -336 l 250 32 m 151 940 l 274 940 l 274 821 l 151 821 l 151 940 m 376 940 l 499 940 l 499 821 l 376 821 l 376 940 z "},"ẏ":{"ha":649,"x_min":10,"x_max":639,"o":"m 250 32 l 10 689 l 167 689 l 326 206 l 481 689 l 639 689 l 264 -336 l 110 -336 l 250 32 m 260 961 l 390 961 l 390 831 l 260 831 l 260 961 z "},"ỵ":{"ha":649,"x_min":10,"x_max":639,"o":"m 346 -112 l 443 -112 l 443 -243 l 313 -243 l 313 -203 l 264 -336 l 110 -336 l 250 32 l 10 689 l 167 689 l 326 206 l 481 689 l 639 689 l 346 -112 z "},"ỳ":{"ha":649,"x_min":10,"x_max":639,"o":"m 250 32 l 10 689 l 167 689 l 326 206 l 481 689 l 639 689 l 264 -336 l 110 -336 l 250 32 m 218 889 l 218 1044 l 431 910 l 431 804 l 218 889 z "},"ỷ":{"ha":649,"x_min":10,"x_max":639,"o":"m 250 32 l 10 689 l 167 689 l 326 206 l 481 689 l 639 689 l 264 -336 l 110 -336 l 250 32 m 297 786 q 336 834 325 815 q 347 876 347 853 q 299 922 347 922 q 231 900 267 922 l 207 978 q 306 999 256 999 q 393 967 358 999 q 428 882 428 936 q 409 807 428 839 q 347 738 390 775 l 297 786 z "},"ȳ":{"ha":649,"x_min":10,"x_max":639,"o":"m 250 32 l 10 689 l 167 689 l 326 206 l 481 689 l 639 689 l 264 -336 l 110 -336 l 250 32 m 126 933 l 524 933 l 524 832 l 126 832 l 126 933 z "},"ỹ":{"ha":649,"x_min":10,"x_max":639,"o":"m 250 32 l 10 689 l 167 689 l 326 206 l 481 689 l 639 689 l 264 -336 l 110 -336 l 250 32 m 421 804 q 375 813 394 804 q 326 840 356 822 q 293 860 307 854 q 264 867 279 867 q 236 853 246 867 q 226 815 226 839 l 118 815 q 149 936 121 894 q 229 978 178 978 q 275 969 256 978 q 324 942 294 960 q 357 922 343 928 q 386 915 371 915 q 414 929 404 915 q 424 967 424 943 l 532 967 q 501 846 529 888 q 421 804 472 804 z "},"z":{"ha":560,"x_min":25,"x_max":535,"o":"m 249 129 l 528 129 l 528 0 l 25 0 l 311 560 l 42 560 l 42 689 l 535 689 l 249 129 z "},"ź":{"ha":560,"x_min":25,"x_max":535,"o":"m 249 129 l 528 129 l 528 0 l 25 0 l 311 560 l 42 560 l 42 689 l 535 689 l 249 129 m 183 907 l 396 1039 l 396 888 l 183 806 l 183 907 z "},"ž":{"ha":560,"x_min":25,"x_max":535,"o":"m 249 129 l 528 129 l 528 0 l 25 0 l 311 560 l 42 560 l 42 689 l 535 689 l 249 129 m 136 910 l 136 1011 l 289 915 l 442 1011 l 442 910 l 289 781 l 136 910 z "},"ż":{"ha":560,"x_min":25,"x_max":535,"o":"m 249 129 l 528 129 l 528 0 l 25 0 l 311 560 l 42 560 l 42 689 l 535 689 l 249 129 m 224 961 l 354 961 l 354 831 l 224 831 l 224 961 z "},"ẓ":{"ha":560,"x_min":25,"x_max":535,"o":"m 249 129 l 528 129 l 528 0 l 25 0 l 311 560 l 42 560 l 42 689 l 535 689 l 249 129 m 211 -112 l 342 -112 l 342 -243 l 211 -243 l 211 -112 z "},"ª":{"ha":425,"x_min":36,"x_max":389,"o":"m 146 603 q 67 632 99 603 q 36 713 36 661 q 225 867 36 842 q 214 897 224 888 q 179 906 204 906 q 72 883 131 906 l 65 985 q 208 1013 139 1013 q 313 976 275 1013 q 351 867 351 939 l 351 744 q 374 710 351 710 l 389 710 l 382 604 l 329 604 q 242 650 268 604 q 146 603 204 603 m 193 696 q 226 713 210 696 l 226 786 q 169 728 169 776 q 193 696 169 696 z "},"º":{"ha":456,"x_min":36,"x_max":419,"o":"m 228 603 q 126 631 169 603 q 59 707 82 660 q 36 808 36 754 q 59 909 36 863 q 126 984 82 956 q 228 1013 169 1013 q 367 953 315 1013 q 419 808 419 893 q 397 707 419 754 q 330 631 374 660 q 228 603 286 603 m 228 701 q 274 732 257 701 q 292 808 292 763 q 274 885 292 854 q 228 915 257 915 q 182 884 200 915 q 164 808 164 853 q 182 733 164 764 q 228 701 200 701 z "},"π":{"ha":693,"x_min":21,"x_max":669,"o":"m 629 114 q 665 122 646 114 l 665 6 q 581 -14 633 -14 q 467 31 506 -14 q 429 165 429 76 l 429 564 l 260 564 l 260 0 l 108 0 l 108 564 l 21 564 l 21 689 l 669 689 l 669 564 l 579 564 l 579 181 q 629 114 579 114 z "},"₀":{"ha":501,"x_min":43,"x_max":457,"o":"m 250 -100 q 98 -22 153 -100 q 43 182 43 56 q 97 382 43 308 q 250 456 151 456 q 403 382 349 456 q 457 182 457 308 q 402 -22 457 56 q 250 -100 347 -100 m 250 8 q 332 182 332 8 q 250 347 332 347 q 169 182 169 347 q 250 8 169 8 z "},"₁":{"ha":296,"x_min":40,"x_max":225,"o":"m 108 294 q 49 250 82 261 l 40 354 q 94 388 67 365 q 136 436 121 411 l 225 436 l 225 -81 l 108 -81 l 108 294 z "},"₂":{"ha":372,"x_min":40,"x_max":339,"o":"m 339 26 l 339 -81 l 40 -81 l 156 139 q 189 215 179 185 q 199 272 199 244 q 182 324 199 304 q 135 343 165 343 q 50 306 94 343 l 40 424 q 167 456 99 456 q 281 411 238 456 q 324 294 324 367 q 309 208 324 249 q 253 92 294 168 l 217 26 l 339 26 z "},"₃":{"ha":404,"x_min":39,"x_max":357,"o":"m 268 190 q 333 141 310 174 q 357 60 357 108 q 309 -57 357 -14 q 186 -100 261 -100 q 39 -69 110 -100 l 65 42 q 161 10 115 10 q 213 26 194 10 q 232 71 232 42 q 151 136 232 136 l 140 136 l 140 235 l 153 235 q 200 249 183 235 q 217 292 217 264 q 202 331 217 317 q 158 346 188 346 q 79 317 117 346 l 69 432 q 188 456 121 456 q 299 416 258 456 q 340 314 340 376 q 322 239 340 271 q 268 190 303 207 z "},"₄":{"ha":443,"x_min":3,"x_max":397,"o":"m 397 113 l 397 25 l 343 25 l 343 -81 l 235 -81 l 235 25 l 3 25 l 246 436 l 343 436 l 343 113 l 397 113 m 235 165 l 239 275 l 200 192 l 157 113 l 235 113 l 235 165 z "},"₅":{"ha":408,"x_min":44,"x_max":364,"o":"m 201 249 q 321 203 278 249 q 364 82 364 158 q 312 -51 364 -3 q 178 -100 260 -100 q 44 -69 110 -100 l 68 42 q 117 18 94 26 q 167 10 140 10 q 219 26 200 10 q 239 74 239 43 q 217 125 239 107 q 153 143 194 143 q 74 132 111 143 l 106 436 l 343 436 l 335 329 l 190 329 l 182 249 l 201 249 z "},"₆":{"ha":432,"x_min":51,"x_max":393,"o":"m 249 238 q 353 190 314 238 q 393 69 393 143 q 347 -53 393 -6 q 229 -100 300 -100 q 98 -47 144 -100 q 51 100 51 7 q 117 307 51 214 q 282 456 182 400 l 353 375 q 253 310 300 350 q 179 222 207 271 q 249 238 213 238 m 226 0 q 268 19 253 0 q 283 69 283 39 q 268 119 283 100 q 226 139 253 139 q 185 119 200 139 q 169 69 169 100 q 185 19 169 39 q 226 0 200 0 z "},"₇":{"ha":375,"x_min":35,"x_max":356,"o":"m 356 444 l 183 -81 l 71 -81 l 204 338 l 35 338 l 35 444 l 356 444 z "},"₈":{"ha":396,"x_min":29,"x_max":367,"o":"m 294 203 q 348 146 329 182 q 367 63 367 110 q 321 -55 367 -10 q 199 -100 275 -100 q 75 -55 121 -100 q 29 63 29 -10 q 49 146 29 108 q 103 204 68 183 q 68 251 81 222 q 56 313 56 279 q 94 414 56 372 q 201 456 132 456 q 306 414 269 456 q 342 313 342 372 q 294 203 342 242 m 199 361 q 170 346 181 361 q 160 306 160 331 q 170 266 160 282 q 199 250 181 250 q 228 266 218 250 q 239 306 239 282 q 228 346 239 331 q 199 361 218 361 m 199 -4 q 240 17 225 -4 q 254 72 254 38 q 240 125 254 106 q 199 144 225 144 q 157 125 172 144 q 142 72 142 106 q 157 17 142 38 q 199 -4 172 -4 z "},"₉":{"ha":432,"x_min":39,"x_max":381,"o":"m 203 456 q 334 402 288 456 q 381 256 381 349 q 315 49 381 142 q 150 -100 250 -44 l 79 -19 q 178 45 132 6 q 253 133 225 85 q 183 118 219 118 q 78 165 118 118 q 39 286 39 213 q 85 408 39 361 q 203 456 132 456 m 206 217 q 248 236 233 217 q 263 286 263 256 q 248 336 263 317 q 206 356 233 356 q 164 336 179 356 q 149 286 149 317 q 164 236 149 256 q 206 217 179 217 z "},"⁰":{"ha":501,"x_min":43,"x_max":457,"o":"m 250 517 q 98 594 153 517 q 43 799 43 672 q 97 999 43 925 q 250 1072 151 1072 q 403 999 349 1072 q 457 799 457 925 q 402 594 457 672 q 250 517 347 517 m 250 625 q 332 799 332 625 q 250 964 332 964 q 169 799 169 964 q 250 625 169 625 z "},"¹":{"ha":296,"x_min":40,"x_max":225,"o":"m 108 911 q 49 867 82 878 l 40 971 q 94 1005 67 982 q 136 1053 121 1028 l 225 1053 l 225 536 l 108 536 l 108 911 z "}}}
